#N canvas 163 105 1531 750 10;
#X declare -path CG-Pd-Library-Local/sequencer;
#X declare -path CG-Pd-Library-Local/externals;
#X declare -path CG-Pd-Library-Local/metronome;
#X declare -path /sdcard/CG-Pd-Library/sequencer;
#X declare -path /sdcard/CG-Pd-Library/externals;
#X declare -path /sdcard/CG-Pd-Library/metronome;
#X obj 191 261 r notesIn-\$1;
#X obj 304 491 s notesOut-\$1;
#X obj 25 186 inlet~ inL-\$1;
#X obj 135 186 inlet~ inR-\$1;
#X obj 27 491 outlet~ outL-\$1;
#X obj 136 491 outlet~ outR-\$1;
#X obj 464 185 r auxIn-\$1;
#X obj 463 208 r expIn-\$1;
#X obj 463 233 r fsIn-\$1;
#X obj 482 506 s aux-label-\$1;
#X obj 749 276 s aux-led-\$1;
#X obj 191 282 list split 2;
#X obj 304 317 list append 0;
#X obj 464 264 r ctrlIn-\$1;
#X obj 464 290 s ctrlOut-\$1;
#N canvas 245 103 1257 583 seq3 0;
#X obj 345 133 inlet aux;
#X obj 462 198 r \$0-reprint-port;
#N canvas 594 50 1231 860 seq3-5option-control 0;
#X obj 139 278 outlet;
#X obj 65 121 t b;
#X msg 65 143 2;
#X obj 298 126 t b;
#X msg 298 148 3;
#X text 437 5 when aux is pressed after recording starts immediatley
end the rec and play the loop;
#X obj 170 70 sel 0;
#X obj 202 94 t b;
#X msg 202 116 1;
#X obj 33 88 sel 0;
#X obj 266 99 sel 0;
#X obj 54 541 sel 1, f 12;
#X obj 135 574 t b, f 4;
#X obj 381 574 t b, f 4;
#X obj 237 563 sel 2 3, f 12;
#X obj 1085 372 t b, f 4;
#X msg 1085 417 Latch:Off;
#X msg 1004 417 Latch:On;
#X text 248 513 print to the shortcut menu;
#X obj 378 141 f 0;
#X obj 130 0 r midi-start;
#X msg 130 22 4;
#X obj 373 105 r midi-stop;
#X obj 507 125 t b;
#X obj 475 98 sel 0;
#X msg 507 147 5;
#X obj 542 574 t b, f 4;
#X obj 461 550 sel 5, f 12;
#X obj 54 620 f;
#X msg 54 650 \$1Seq:Stop;
#X obj 135 619 f;
#X msg 135 649 \$1Seq:Play;
#X msg 237 633 \$1Rec:Armd;
#X msg 312 631 \$1Rec:On;
#X msg 381 635 \$1Rec:Off;
#X obj 237 608 f;
#X obj 312 607 f;
#X obj 381 607 f;
#X obj 542 596 f;
#X obj 461 602 f;
#X msg 461 649 \$1Dub:On;
#X obj 193 366 + 1;
#X obj 559 76 sel 1;
#X obj 559 174 t b b;
#X msg 640 152 0;
#X obj 559 152 spigot 0;
#X msg 612 129 1;
#X msg 559 196 1;
#X obj 1004 348 sel 4, f 12;
#X obj 358 53 t b;
#X obj 326 26 sel 0;
#X msg 358 75 6;
#X obj 740 623 f;
#X obj 612 104 sel 3, f 12;
#X msg 542 649 \$1Dub:Off;
#X obj 698 566 sel 6, f 10;
#X obj 765 591 t b;
#X obj 698 690 spigot 1;
#X obj 785 687 spigot 0;
#X obj 908 597 sel 3;
#X obj 825 641 ==;
#X obj 895 658 f;
#X msg 908 622 1;
#X msg 851 573 0;
#X msg 785 712 \$1:Undo;
#X msg 698 715 \$1:Undid;
#X obj 698 588 t b b;
#X msg 31 211 0;
#X obj 31 189 r loadbang-\$1;
#X obj 33 66 r cgSc-\$1-2;
#X obj 171 48 r cgSc-\$1-1;
#X obj 267 72 r cgSc-\$1-5;
#X obj 326 2 r cgSc-\$1-4;
#X obj 475 71 r cgSc-\$1-3;
#X obj 559 52 r cgSc-\$1-aux;
#X obj 612 80 r seq3-\$1-actions;
#X obj 237 542 r seq3-\$1-actions;
#X obj 1004 327 r seq3-\$1-actions;
#X obj 1004 460 s cgSc-\$1-5label;
#X obj 237 675 s cgSc-\$1-2label;
#X obj 54 692 s cgSc-\$1-1label;
#X obj 860 96 s cgSc-\$1-slots;
#X obj 193 343 r cgSc-\$1-slots;
#X obj 54 519 r seq3-\$1-actions;
#X obj 461 692 s cgSc-\$1-3label;
#X obj 698 748 s cgSc-\$1-4label;
#X obj 908 575 r seq3-\$1-actions;
#X obj 860 74 r init-\$1-slot;
#X obj 461 529 r seq3-\$1-actions;
#X obj 698 545 r seq3-\$1-actions;
#X obj 192 520 t f f;
#X obj 395 533 t f f f;
#X obj 590 549 t f f;
#X obj 193 386 t f f f f, f 107;
#X connect 1 0 2 0;
#X connect 2 0 0 0;
#X connect 3 0 4 0;
#X connect 4 0 0 0;
#X connect 6 1 7 0;
#X connect 7 0 8 0;
#X connect 8 0 0 0;
#X connect 9 1 1 0;
#X connect 10 1 3 0;
#X connect 11 0 28 0;
#X connect 11 1 12 0;
#X connect 12 0 30 0;
#X connect 13 0 37 0;
#X connect 14 0 35 0;
#X connect 14 1 36 0;
#X connect 14 2 13 0;
#X connect 15 0 16 0;
#X connect 16 0 78 0;
#X connect 17 0 78 0;
#X connect 19 0 0 0;
#X connect 20 0 21 0;
#X connect 21 0 0 0;
#X connect 22 0 19 0;
#X connect 23 0 25 0;
#X connect 24 1 23 0;
#X connect 25 0 0 0;
#X connect 26 0 38 0;
#X connect 27 0 39 0;
#X connect 27 1 26 0;
#X connect 28 0 29 0;
#X connect 29 0 80 0;
#X connect 30 0 31 0;
#X connect 31 0 80 0;
#X connect 32 0 79 0;
#X connect 33 0 79 0;
#X connect 34 0 79 0;
#X connect 35 0 32 0;
#X connect 36 0 33 0;
#X connect 37 0 34 0;
#X connect 38 0 54 0;
#X connect 39 0 40 0;
#X connect 40 0 84 0;
#X connect 41 0 93 0;
#X connect 42 0 45 0;
#X connect 43 0 47 0;
#X connect 43 1 44 0;
#X connect 44 0 45 1;
#X connect 45 0 43 0;
#X connect 46 0 45 1;
#X connect 47 0 0 0;
#X connect 48 0 17 0;
#X connect 48 1 15 0;
#X connect 49 0 51 0;
#X connect 50 1 49 0;
#X connect 51 0 0 0;
#X connect 52 0 57 0;
#X connect 52 0 58 0;
#X connect 53 0 46 0;
#X connect 54 0 84 0;
#X connect 55 0 66 0;
#X connect 55 1 56 0;
#X connect 56 0 52 0;
#X connect 57 0 65 0;
#X connect 58 0 64 0;
#X connect 59 0 62 0;
#X connect 60 0 57 1;
#X connect 61 0 60 0;
#X connect 61 0 58 1;
#X connect 62 0 61 0;
#X connect 63 0 61 0;
#X connect 64 0 85 0;
#X connect 65 0 85 0;
#X connect 66 0 52 0;
#X connect 66 1 63 0;
#X connect 67 0 0 0;
#X connect 68 0 67 0;
#X connect 69 0 9 0;
#X connect 70 0 6 0;
#X connect 71 0 10 0;
#X connect 72 0 50 0;
#X connect 73 0 24 0;
#X connect 74 0 42 0;
#X connect 75 0 53 0;
#X connect 76 0 14 0;
#X connect 77 0 48 0;
#X connect 82 0 41 0;
#X connect 83 0 11 0;
#X connect 86 0 59 0;
#X connect 87 0 81 0;
#X connect 88 0 27 0;
#X connect 89 0 55 0;
#X connect 90 0 28 0;
#X connect 90 1 30 0;
#X connect 91 0 35 0;
#X connect 91 1 36 0;
#X connect 91 2 37 0;
#X connect 92 0 39 0;
#X connect 92 1 38 0;
#X connect 93 0 90 0;
#X connect 93 1 91 0;
#X connect 93 2 92 0;
#X connect 93 3 52 0;
#X restore 382 252 pd seq3-5option-control;
#N canvas 13 50 450 300 CG-PdLibrary-Local 0;
#X obj 502 35 r cgSc-1-slots;
#X obj 60 98 declare -path CG-Pd-Library-Local/sequencer;
#X obj 58 130 declare -path CG-Pd-Library-Local/externals;
#X obj 59 165 declare -path CG-Pd-Library-Local/metronome;
#X restore 586 164 pd CG-PdLibrary-Local;
#N canvas 12 50 450 300 CG-PdLibrary-SDcard 0;
#X obj 60 98 declare -path /sdcard/CG-Pd-Library/sequencer;
#X obj 58 130 declare -path /sdcard/CG-Pd-Library/externals;
#X obj 59 165 declare -path /sdcard/CG-Pd-Library/metronome;
#X obj 502 35 r cgSc-1-slots;
#X restore 586 193 pd CG-PdLibrary-SDcard;
#N canvas 347 290 860 595 slot-saver-1 0;
#X obj 200 105 t b b;
#X msg 200 216 0;
#X obj 200 237 tabread \$0-slot;
#X obj 200 258 s cgSc-\$1-slots;
#X obj 388 19 r cgSc-\$1-slots;
#X obj 388 40 t a b;
#X obj 388 91 tabwrite \$0-slot;
#X msg 437 64 0;
#X obj 391 328 array define \$0-slot;
#X obj 598 140 list, f 7;
#X msg 598 117 69;
#X obj 598 161 route 69;
#X obj 637 116 r \$1-lokal-path;
#X obj 598 29 r saveState;
#X obj 618 55 r rackSavePreset;
#X obj 598 92 t b;
#X msg 404 297 write \$1/presets/\$2/\$3-slot-tracker.txt;
#X obj 598 182 list;
#X msg 391 267 read \$1/presets/\$2/\$3-slot-tracker.txt;
#X obj 391 194 list, f 7;
#X msg 391 171 69;
#X obj 391 215 route 69;
#X obj 430 170 r \$1-lokal-path;
#X obj 391 236 list;
#N canvas 100 596 803 448 presetDir 0;
#X obj 88 153 s rackMsgs;
#X obj 88 106 symbol \$1;
#X msg 88 128 getsetting currentPreset Defaut rackCurrentPreset-\$1
;
#X obj 87 181 r rackCurrentPreset;
#X obj 102 203 r rackCurrentPreset-\$1;
#X obj 87 225 symbol \$1;
#X obj 442 163 s rackMsgs;
#X obj 442 113 symbol \$1;
#X obj 159 24 r loadbang-\$1;
#X obj 442 186 r rackDataDir;
#X obj 535 189 r rackDataDir-\$1;
#X msg 442 138 getsetting dataDir ./data rackDataDir-\$1;
#X obj 441 219 symbol \$1;
#X obj 179 348 pack s s s;
#X obj 255 210 symbol \$1;
#X obj 159 50 t b b b, f 27;
#X obj 114 293 t b b s;
#X obj 255 232 t b s;
#X obj 111 387 outlet;
#X obj 179 387 outlet;
#X text 35 -1 track preset directory and bang on change;
#X connect 1 0 2 0;
#X connect 2 0 0 0;
#X connect 3 0 5 0;
#X connect 4 0 5 0;
#X connect 5 0 16 0;
#X connect 7 0 11 0;
#X connect 8 0 15 0;
#X connect 9 0 12 0;
#X connect 10 0 12 0;
#X connect 11 0 6 0;
#X connect 12 0 13 0;
#X connect 13 0 19 0;
#X connect 14 0 17 0;
#X connect 15 0 1 0;
#X connect 15 1 14 0;
#X connect 15 2 7 0;
#X connect 16 0 18 0;
#X connect 16 1 13 0;
#X connect 16 2 13 1;
#X connect 17 0 13 0;
#X connect 17 1 13 2;
#X restore 222 17 pd presetDir;
#X obj 291 44 s \$1-lokal-path;
#X connect 0 0 1 0;
#X connect 0 1 20 0;
#X connect 1 0 2 0;
#X connect 2 0 3 0;
#X connect 4 0 5 0;
#X connect 5 0 6 0;
#X connect 5 1 7 0;
#X connect 7 0 6 1;
#X connect 9 0 11 0;
#X connect 10 0 9 0;
#X connect 11 0 17 0;
#X connect 12 0 9 1;
#X connect 13 0 15 0;
#X connect 14 0 15 0;
#X connect 15 0 10 0;
#X connect 16 0 8 0;
#X connect 17 0 16 0;
#X connect 18 0 8 0;
#X connect 19 0 21 0;
#X connect 20 0 19 0;
#X connect 21 0 23 0;
#X connect 22 0 19 1;
#X connect 23 0 18 0;
#X connect 24 0 0 0;
#X connect 24 1 25 0;
#X restore 813 249 pd slot-saver-1;
#N canvas 19 51 1057 799 metro-here 0;
#X obj 549 508 f;
#X msg 696 393 0;
#X obj 765 393 t b b;
#X msg 792 423 1;
#X obj 430 566 list, f 7;
#X obj 430 588 route 69;
#X obj 430 502 t b a;
#X msg 430 536 69;
#X obj 430 444 pack, f 10;
#X obj 460 402 t b a;
#X obj 696 471 f;
#X obj 430 610 spigot 1;
#X obj 549 530 spigot 1, f 25;
#X obj 823 601 + 1;
#X obj 783 662 f;
#X obj 737 539 t b b;
#X obj 549 651 f;
#X obj 823 575 r cgSc-\$1-slots;
#X obj 562 479 r seq3-\$1-actions;
#X obj 446 313 s seq3-\$1-quan;
#X obj 430 695 print-line5 \$1, f 54;
#X obj 696 342 r cgSc-\$1-mute-print;
#X obj 126 296 s beat-clock-\$1;
#X obj 126 249 clockfix;
#X obj 126 173 r master-ticks;
#X obj 126 194 * 15;
#X obj 126 215 i;
#X obj 126 270 i;
#X obj 460 346 r bpm;
#X obj 380 63 r midi-clock-present;
#X obj 464 96 r link-session-present;
#X obj 380 154 pack, f 19;
#X obj 464 121 t b a;
#X obj 380 175 route 0 1, f 31;
#X obj 380 196 sel 1, f 7;
#X obj 419 218 t b;
#X obj 471 196 sel 1, f 7;
#X obj 510 218 t b;
#X msg 510 245 1;
#X text 543 248 midi on;
#X text 446 245 intrnl;
#X text 351 218 link;
#X obj 430 281 f;
#X msg 308 347 0;
#X obj 696 365 sel 1, f 12;
#X obj 308 319 t b b;
#X obj 460 377 f;
#X obj 804 171 inlet;
#X obj 737 518 del 1;
#X obj 308 289 del 2;
#X obj 549 455 del 3;
#X obj 349 430 bng 15 250 50 0 empty empty empty 17 7 0 10 -262144
-1 -1;
#X msg 419 247 1;
#X msg 471 217 3;
#X msg 380 217 3;
#X obj 430 716 outlet;
#X connect 0 0 12 0;
#X connect 1 0 10 0;
#X connect 2 0 50 0;
#X connect 2 1 3 0;
#X connect 3 0 10 0;
#X connect 4 0 5 0;
#X connect 5 0 11 0;
#X connect 6 0 7 0;
#X connect 6 1 4 1;
#X connect 7 0 4 0;
#X connect 8 0 6 0;
#X connect 9 0 8 0;
#X connect 9 1 8 1;
#X connect 10 0 11 1;
#X connect 10 0 12 1;
#X connect 11 0 20 0;
#X connect 12 0 16 0;
#X connect 13 0 14 0;
#X connect 14 0 20 2;
#X connect 15 0 16 0;
#X connect 15 1 14 0;
#X connect 16 0 20 1;
#X connect 17 0 13 0;
#X connect 18 0 0 0;
#X connect 20 0 55 0;
#X connect 21 0 44 0;
#X connect 23 0 27 0;
#X connect 24 0 25 0;
#X connect 25 0 26 0;
#X connect 26 0 23 0;
#X connect 27 0 22 0;
#X connect 28 0 46 0;
#X connect 29 0 31 0;
#X connect 30 0 32 0;
#X connect 31 0 33 0;
#X connect 32 0 31 0;
#X connect 32 1 31 1;
#X connect 33 0 34 0;
#X connect 33 1 36 0;
#X connect 34 0 54 0;
#X connect 34 1 35 0;
#X connect 35 0 52 0;
#X connect 36 0 53 0;
#X connect 36 1 37 0;
#X connect 37 0 38 0;
#X connect 38 0 42 0;
#X connect 42 0 19 0;
#X connect 42 0 8 0;
#X connect 43 0 42 0;
#X connect 44 0 1 0;
#X connect 44 1 2 0;
#X connect 45 0 43 0;
#X connect 45 1 46 0;
#X connect 46 0 9 0;
#X connect 47 0 48 0;
#X connect 47 0 49 0;
#X connect 47 0 50 0;
#X connect 48 0 15 0;
#X connect 49 0 45 0;
#X connect 50 0 0 0;
#X connect 50 0 7 0;
#X connect 51 0 8 0;
#X connect 52 0 42 0;
#X connect 53 0 42 0;
#X connect 54 0 42 0;
#X restore 813 135 pd metro-here;
#X obj 345 395 outlet notes;
#X obj 345 229 shortcut \$1 0, f 20;
#X obj 419 273 r cgSc-\$1-slots;
#X obj 456 295 r beat-clock-\$1;
#X obj 345 322 seq3 \$1 1 ../../sequences \$1 0, f 19;
#X obj 813 106 inlet;
#X obj 813 156 outlet;
#X connect 0 0 8 0;
#X connect 1 0 8 1;
#X connect 2 0 11 1;
#X connect 6 0 13 0;
#X connect 8 0 11 0;
#X connect 9 0 11 2;
#X connect 10 0 11 3;
#X connect 11 0 7 0;
#X connect 12 0 6 0;
#X restore 304 293 pd seq3;
#X obj 749 253 r seq3-\$1-led;
#X obj 343 144 r loadbang-\$1;
#X obj 582 208 r auxIn-\$1;
#X msg 482 482 Sequencer: \$2 - \$1;
#X obj 482 390 unpack s 0 0;
#X obj 482 411 pack s 0;
#X connect 0 0 11 0;
#X connect 6 0 15 0;
#X connect 11 0 1 0;
#X connect 12 0 1 0;
#X connect 15 0 12 0;
#X connect 15 1 20 0;
#X connect 16 0 10 0;
#X connect 17 0 15 1;
#X connect 19 0 9 0;
#X connect 20 0 21 0;
#X connect 20 1 21 1;
#X connect 21 0 19 0;
