#N canvas 249 249 1486 795 10;
#X obj 48 41 inlet note;
#X obj 371 665 vline~;
#X obj 240 578 sqrt;
#X obj 81 296 unpack 0 0;
#X obj 81 317 swap, f 10;
#X obj 81 478 sel 0, f 27;
#X obj 240 556 / 127;
#X obj 138 425 s~ \$0-freq;
#X obj 138 384 mtof;
#X obj 493 343 *~;
#X obj 821 643 clip~ -1 1;
#X obj 679 355 *~;
#X obj 856 364 *~;
#X obj 1066 357 *~;
#X obj 821 706 hip~ 4;
#X obj 821 727 outlet~;
#X obj 493 45 r~ \$0-freq;
#X obj 138 354 +, f 8;
#X obj 138 405 lop~ 100;
#X obj 156 326 t b a;
#X obj 195 730 switch~;
#X msg 195 706 1;
#X obj 81 519 t b b b;
#X msg 120 572 stop;
#X msg 100 634 0;
#X obj 81 426 t a a;
#X obj 108 450 s \$0-vel;
#X obj 371 716 s~ \$0-line;
#X obj 1067 294 *~;
#X obj 1083 221 r~ \$0-line;
#X obj 901 222 r~ \$0-line;
#X obj 856 293 *~, f 8;
#X obj 856 202 *~ 1;
#X obj 1066 175 *~ 1;
#X obj 240 521 t a b b b;
#X obj 291 568 s \$0-reset;
#X msg 291 543 0;
#X obj 586 147 r \$0-reset;
#X obj 739 131 r \$0-reset;
#X obj 915 144 r \$0-reset;
#X obj 1119 124 r \$0-reset;
#X obj 48 62 t a a, f 47;
#X obj 81 251 list, f 47;
#X msg 81 231 69;
#X obj 81 272 route 69;
#X obj 48 84 unpack;
#X obj 81 109 sel 0;
#X obj 108 135 t b b b, f 26;
#X msg 184 158 stop;
#X obj 493 193 *~ 1;
#X obj 679 185 *~ 1;
#X obj 493 96 *~;
#X obj 679 35 r~ \$0-freq;
#X obj 679 86 *~;
#X obj 858 39 r~ \$0-freq;
#X obj 858 90 *~;
#X obj 1066 25 r~ \$0-freq;
#X obj 1066 76 *~;
#X obj 725 204 r~ \$0-line;
#X obj 680 275 *~, f 8;
#X obj 538 207 r~ \$0-line;
#X obj 494 282 *~, f 8;
#X obj 100 613 del 123;
#X msg 81 677 0 123;
#X obj 821 664 *~ 0.8;
#X obj 108 192 del 3;
#X msg 371 453 0 3;
#X obj 493 384 s~ \$0-wave1-mod;
#X obj 678 389 s~ \$0-wave2-mod;
#X obj 856 395 s~ \$0-wave3-mod;
#X obj 1066 395 s~ \$0-wave4-mod;
#X obj 538 228 pow~ 2;
#X msg 240 601 \$1 8 \, 0.8 1000 8;
#X obj 725 225 pow~ 2;
#X obj 901 243 pow~ 2;
#X obj 1083 242 pow~ 2;
#X obj 492 173 phase-mod wave\$2-1;
#X obj 1068 153 phase-mod wave\$2-4;
#X obj 857 181 phase-mod wave\$2-3;
#X obj 679 160 phase-mod wave\$2-2;
#X obj 509 66 r~ wave-1-index-\$2;
#X obj 695 56 r~ wave-2-index-\$2;
#X obj 874 60 r~ wave-3-index-\$2;
#X obj 1082 46 r~ wave-4-index-\$2;
#X obj 1082 321 r~ wave-4-vol-\$2;
#X obj 872 330 r~ wave-3-vol-\$2;
#X obj 695 324 r~ wave-2-vol-\$2;
#X obj 509 313 r~ wave-1-vol-\$2;
#X obj 522 121 4-algo \$0 1 \$2;
#X obj 709 108 4-algo \$0 2 \$2;
#X obj 889 117 4-algo \$0 3 \$2;
#X obj 1100 99 4-algo \$0 4 \$2;
#X obj 821 591 4-algo \$0 5 \$2;
#X obj 157 303 r fw_t-\$2;
#X connect 0 0 41 0;
#X connect 1 0 27 0;
#X connect 2 0 72 0;
#X connect 3 0 4 0;
#X connect 3 1 4 1;
#X connect 4 0 25 0;
#X connect 4 1 17 0;
#X connect 5 0 22 0;
#X connect 5 1 34 0;
#X connect 6 0 2 0;
#X connect 8 0 18 0;
#X connect 9 0 67 0;
#X connect 10 0 64 0;
#X connect 11 0 68 0;
#X connect 12 0 69 0;
#X connect 13 0 70 0;
#X connect 14 0 15 0;
#X connect 16 0 51 0;
#X connect 17 0 8 0;
#X connect 18 0 7 0;
#X connect 19 0 17 0;
#X connect 19 1 17 1;
#X connect 21 0 20 0;
#X connect 22 0 63 0;
#X connect 22 1 62 0;
#X connect 22 2 23 0;
#X connect 23 0 62 0;
#X connect 24 0 21 0;
#X connect 25 0 5 0;
#X connect 25 1 26 0;
#X connect 28 0 13 0;
#X connect 29 0 75 0;
#X connect 30 0 74 0;
#X connect 31 0 12 0;
#X connect 32 0 31 0;
#X connect 33 0 28 0;
#X connect 34 0 6 0;
#X connect 34 1 21 0;
#X connect 34 2 23 0;
#X connect 34 3 36 0;
#X connect 37 0 76 3;
#X connect 38 0 79 3;
#X connect 39 0 78 3;
#X connect 40 0 77 3;
#X connect 41 0 45 0;
#X connect 41 1 42 1;
#X connect 42 0 44 0;
#X connect 43 0 42 0;
#X connect 44 0 3 0;
#X connect 45 1 46 0;
#X connect 46 0 43 0;
#X connect 46 1 47 0;
#X connect 47 0 65 0;
#X connect 47 1 48 0;
#X connect 47 2 66 0;
#X connect 48 0 65 0;
#X connect 49 0 61 0;
#X connect 50 0 59 0;
#X connect 51 0 76 0;
#X connect 52 0 53 0;
#X connect 53 0 79 0;
#X connect 54 0 55 0;
#X connect 55 0 78 0;
#X connect 56 0 57 0;
#X connect 57 0 77 0;
#X connect 58 0 73 0;
#X connect 59 0 11 0;
#X connect 60 0 71 0;
#X connect 61 0 9 0;
#X connect 62 0 24 0;
#X connect 63 0 1 0;
#X connect 64 0 14 0;
#X connect 65 0 43 0;
#X connect 66 0 1 0;
#X connect 71 0 61 1;
#X connect 72 0 1 0;
#X connect 73 0 59 1;
#X connect 74 0 31 1;
#X connect 75 0 28 1;
#X connect 76 0 49 0;
#X connect 77 0 33 0;
#X connect 78 0 32 0;
#X connect 79 0 50 0;
#X connect 80 0 51 1;
#X connect 81 0 53 1;
#X connect 82 0 55 1;
#X connect 83 0 57 1;
#X connect 84 0 13 1;
#X connect 85 0 12 1;
#X connect 86 0 11 1;
#X connect 87 0 9 1;
#X connect 88 0 76 1;
#X connect 89 0 79 1;
#X connect 90 0 78 1;
#X connect 91 0 77 1;
#X connect 92 0 10 0;
#X connect 93 0 19 0;
