#N canvas 233 67 1192 713 10;
#X obj 304 186 r notesIn-\$1;
#X obj 304 490 s notesOut-\$1;
#X obj 410 7 r loadbang-\$1;
#X obj 25 186 inlet~ inL-\$1;
#X obj 135 186 inlet~ inR-\$1;
#X obj 27 491 outlet~ outL-\$1;
#X obj 136 491 outlet~ outR-\$1;
#X obj 487 182 r auxIn-\$1;
#X obj 486 331 r expIn-\$1;
#X obj 486 356 r fsIn-\$1;
#N canvas 263 140 1535 858 sequencer 1;
#X msg 770 427 stop;
#X msg 628 415 arm;
#X obj 433 414 seq-format-event note;
#X msg 866 427 play-sync;
#N canvas 10 50 468 388 flush-stuck-notes 0;
#X obj 167 212 bag;
#X msg 203 161 flush;
#X msg 160 254 \$1 0;
#X obj 124 157 t a a;
#X obj 137 354 outlet;
#X obj 101 22 inlet;
#X obj 258 20 inlet;
#X obj 238 107 bang;
#X obj 114 102 route note;
#X obj 248 61 route end stop;
#X connect 0 0 2 0;
#X connect 1 0 0 0;
#X connect 2 0 4 0;
#X connect 3 0 4 0;
#X connect 3 1 0 0;
#X connect 5 0 8 0;
#X connect 6 0 9 0;
#X connect 7 0 1 0;
#X connect 8 0 3 0;
#X connect 9 0 7 0;
#X connect 9 1 7 0;
#X restore 431 592 pd flush-stuck-notes;
#X text 747 473 beat clock \, events \, controls in;
#X text 747 487 events and status out;
#X text 933 426 start on top of next beat;
#X text 654 387 arm recording;
#X obj 292 157 r beat-clock;
#X obj 914 91 list;
#X obj 1222 47 r rackSavePreset;
#X obj 1070 193 print sequence;
#X obj 1229 188 print sequence;
#N canvas 100 596 803 448 presetDir 0;
#X obj 88 153 s rackMsgs;
#X obj 88 106 symbol \$1;
#X msg 88 128 getsetting currentPreset Defaut rackCurrentPreset-\$1
;
#X obj 88 181 r rackCurrentPreset;
#X obj 215 181 r rackCurrentPreset-\$1;
#X obj 87 215 symbol \$1;
#X obj 442 163 s rackMsgs;
#X obj 442 113 symbol \$1;
#X obj 204 50 r loadbang-\$1;
#X obj 442 186 r rackDataDir;
#X obj 535 189 r rackDataDir-\$1;
#X msg 442 138 getsetting dataDir ./data rackDataDir-\$1;
#X obj 441 219 symbol \$1;
#X obj 249 276 pack s s s;
#X obj 255 210 symbol \$1;
#X obj 205 76 t b b b;
#X obj 444 71 bng 15 250 50 0 empty empty empty 17 7 0 10 -262144 -1
-1;
#X obj 71 67 bng 15 250 50 0 empty empty empty 17 7 0 10 -262144 -1
-1;
#X obj 114 243 t b b s;
#X obj 255 232 t b s;
#X obj 111 387 outlet;
#X obj 219 386 outlet;
#X text 81 25 track preset directory and bang on change;
#X connect 1 0 2 0;
#X connect 2 0 0 0;
#X connect 3 0 5 0;
#X connect 4 0 5 0;
#X connect 5 0 18 0;
#X connect 7 0 11 0;
#X connect 8 0 15 0;
#X connect 9 0 12 0;
#X connect 10 0 12 0;
#X connect 11 0 6 0;
#X connect 12 0 13 0;
#X connect 13 0 21 0;
#X connect 14 0 19 0;
#X connect 15 0 1 0;
#X connect 15 1 14 0;
#X connect 15 2 7 0;
#X connect 16 0 7 0;
#X connect 17 0 1 0;
#X connect 18 0 20 0;
#X connect 18 1 13 0;
#X connect 18 2 13 1;
#X connect 19 0 13 0;
#X connect 19 1 13 2;
#X restore 917 29 pd presetDir;
#X msg 943 146 read \$1/presets/\$2/\$3-sequence.txt;
#X msg 1166 147 write \$1/presets/\$2/\$3-sequence.txt;
#N canvas 103 262 721 484 savePreset 0;
#X obj 343 124 r saveState;
#X obj 252 232 list;
#X obj 146 127 unpack s s s;
#X obj 251 167 pack s s s;
#X obj 272 127 symbol \$1;
#X obj 113 96 list;
#X obj 233 101 t b b a b;
#X obj 106 54 inlet;
#X obj 258 286 outlet;
#X obj 229 39 inlet;
#X connect 0 0 1 0;
#X connect 1 0 8 0;
#X connect 2 0 3 0;
#X connect 2 2 3 2;
#X connect 3 0 1 1;
#X connect 4 0 3 1;
#X connect 5 0 2 0;
#X connect 6 0 1 0;
#X connect 6 1 3 0;
#X connect 6 2 4 0;
#X connect 6 3 5 0;
#X connect 7 0 5 1;
#X connect 9 0 6 0;
#X restore 1147 75 pd savePreset;
#X obj 530 563 t a a;
#X obj 430 533 seq \$1;
#N canvas 84 99 1493 885 seq-button-control 0;
#X obj 232 262 f;
#X obj 232 209 sel 1;
#X floatatom 42 271 5 0 0 0 - - -;
#X obj 42 302 sel 1;
#X obj 42 328 bng 15 250 50 0 empty empty empty 17 7 0 10 -262144 -1
-1;
#X obj 42 475 sel 0 1 2 3, f 54;
#X obj 42 550 t b b;
#X msg 74 585 1;
#X obj 135 526 t b b;
#X msg 159 547 0;
#X msg 361 366 2;
#X obj 217 169 t f f;
#X obj 232 288 sel 1;
#X obj 284 262 bng 15 250 50 0 empty empty empty 17 7 0 10 -262144
-1 -1;
#X obj 229 527 t b b;
#X msg 273 557 0;
#X obj 323 530 t b b b;
#X msg 406 556 1;
#X obj 232 316 t b b b;
#X msg 791 265 Sequencer: Playing;
#X msg 939 265 Sequencer: Stopped;
#X msg 1094 265 Sequencer: Enabled;
#X msg 1248 264 Sequencer: Recording;
#X text 800 32 states are: 0 = stopped \, 1 = playing \, 2 = rec enabled
\, 3 = recording, f 70;
#X text 825 151 Controls LED & Screen Infomation:;
#X obj 232 234 del 500;
#X text 19 10 Controls State With Aux Button;
#X obj 611 540 t b b;
#X obj 674 634 sel 0 1 2 3, f 33;
#X obj 674 586 delay 100;
#X text 675 543 Flashes LED at loop & sets color after sequence stop
;
#X msg 674 661 0;
#X msg 788 661 6;
#X msg 611 584 7;
#X obj 46 33 inlet;
#X msg 947 289 0;
#X msg 1097 291 6;
#X obj 975 383 s aux-label-\$1;
#X obj 1159 380 s aux-led-\$1;
#X obj 674 703 s aux-led-\$1;
#X obj 665 345 t b;
#X obj 665 345;
#X obj 665 324 route end rec;
#X obj 714 402 t b b;
#X msg 746 437 3;
#X floatatom 935 675 5 0 0 0 - - -;
#X msg 731 660 4;
#X msg 845 661 3;
#X msg 1239 298 3;
#X msg 831 305 4;
#X obj 508 37 inlet start;
#X obj 474 195 t b b;
#X msg 506 230 1;
#X text 328 274 press and hold;
#X obj 42 361 v seq-\$1-state;
#X obj 42 659 s seq-\$1-start;
#X obj 81 608 v seq-\$1-state;
#X obj 134 627 s seq-\$1-stop;
#X obj 159 569 v seq-\$1-state;
#X obj 273 579 v seq-\$1-state;
#X obj 241 624 s seq-\$1-stop;
#X obj 347 631 s seq-\$1-start;
#X obj 370 603 s seq-\$1-end_seq;
#X obj 406 578 v seq-\$1-state;
#X obj 674 610 v seq-\$1-state;
#X obj 714 511 s seq-\$1-record;
#X obj 754 459 v seq-\$1-state;
#X obj 232 408 s seq-\$1-recenable;
#X obj 255 381 s seq-\$1-stop;
#X obj 365 388 v seq-\$1-state;
#X obj 598 179 r seq-\$1-status;
#X obj 474 304 s seq-\$1-start;
#X obj 513 252 v seq-\$1-state;
#X obj 791 179 r seq-\$1-start;
#X obj 939 182 r seq-\$1-stop;
#X obj 1094 180 r seq-\$1-recenable;
#X obj 1248 179 r seq-\$1-record;
#X obj 719 35 inlet stop;
#X connect 0 0 12 0;
#X connect 1 0 25 0;
#X connect 2 0 3 0;
#X connect 3 0 4 0;
#X connect 4 0 54 0;
#X connect 5 0 6 0;
#X connect 5 1 8 0;
#X connect 5 2 14 0;
#X connect 5 3 16 0;
#X connect 6 0 55 0;
#X connect 6 1 7 0;
#X connect 7 0 56 0;
#X connect 8 0 57 0;
#X connect 8 1 9 0;
#X connect 9 0 58 0;
#X connect 10 0 69 0;
#X connect 11 0 1 0;
#X connect 11 1 0 1;
#X connect 12 0 18 0;
#X connect 14 0 60 0;
#X connect 14 1 15 0;
#X connect 15 0 59 0;
#X connect 16 0 61 0;
#X connect 16 1 62 0;
#X connect 16 2 17 0;
#X connect 17 0 63 0;
#X connect 18 0 67 0;
#X connect 18 1 68 0;
#X connect 18 2 10 0;
#X connect 19 0 37 0;
#X connect 20 0 37 0;
#X connect 21 0 37 0;
#X connect 22 0 37 0;
#X connect 25 0 0 0;
#X connect 25 0 13 0;
#X connect 27 0 33 0;
#X connect 27 1 29 0;
#X connect 28 0 31 0;
#X connect 28 1 46 0;
#X connect 28 2 32 0;
#X connect 28 3 47 0;
#X connect 29 0 64 0;
#X connect 31 0 39 0;
#X connect 32 0 39 0;
#X connect 33 0 39 0;
#X connect 34 0 2 0;
#X connect 34 0 11 0;
#X connect 35 0 38 0;
#X connect 36 0 38 0;
#X connect 40 0 27 0;
#X connect 42 0 40 0;
#X connect 42 0 41 0;
#X connect 42 1 43 0;
#X connect 43 0 65 0;
#X connect 43 1 44 0;
#X connect 44 0 66 0;
#X connect 45 0 39 0;
#X connect 46 0 39 0;
#X connect 47 0 39 0;
#X connect 48 0 38 0;
#X connect 49 0 38 0;
#X connect 50 0 51 0;
#X connect 51 0 71 0;
#X connect 51 1 52 0;
#X connect 52 0 72 0;
#X connect 54 0 5 0;
#X connect 64 0 28 0;
#X connect 70 0 42 0;
#X connect 73 0 19 0;
#X connect 73 0 49 0;
#X connect 74 0 20 0;
#X connect 74 0 35 0;
#X connect 75 0 21 0;
#X connect 75 0 36 0;
#X connect 76 0 22 0;
#X connect 76 0 48 0;
#X connect 77 0 8 0;
#X restore 799 260 pd seq-button-control;
#X obj 391 201 r seq_speed_factor-\$1;
#X floatatom 391 222 5 0 0 0 - - -;
#X obj 294 363 * 1;
#X obj 294 412 clockfix;
#X obj 302 221 t f f;
#X obj 294 387 % 360;
#X obj 776 200 r seq-\$1-aux-in;
#X obj 770 401 r seq-\$1-stop;
#X obj 891 400 r seq-\$1-start;
#X obj 618 364 r seq-\$1-recenable;
#X obj 601 596 s seq-\$1-status;
#X obj 58 162 r seq-\$1-notes-in;
#X obj 418 798 s seq-\$1-notes-out;
#X obj 77 669 outlet~;
#N canvas 4 50 1048 617 save-recall-state 0;
#X obj 391 436 textfile;
#X msg 601 227 write \$1/presets/\$2/\$3-sequence-state.txt;
#X msg 883 220 clear;
#X obj 652 179 t l b b;
#X msg 642 263 add state \$1;
#X obj 327 490 i 0;
#X text 389 504 state = playing;
#X obj 327 516 sel 1;
#X msg 299 262 read \$1/presets/\$2/\$3-sequence-state.txt;
#X msg 320 230 clear;
#X msg 269 286 rewind;
#X obj 355 459 route state;
#X obj 247 88 inlet recall;
#X obj 706 58 inlet save;
#X obj 327 543 outlet;
#X text 387 545 outlets a bang to playing if saved state matches play
;
#X obj 217 171 t b b b a b b;
#X obj 754 544 outlet;
#X text 811 538 first stop it;
#X obj 665 205 v seq-\$1-state;
#X connect 0 0 11 0;
#X connect 1 0 0 0;
#X connect 2 0 0 0;
#X connect 3 0 1 0;
#X connect 3 1 19 0;
#X connect 3 2 2 0;
#X connect 4 0 0 0;
#X connect 5 0 7 0;
#X connect 7 0 14 0;
#X connect 8 0 0 0;
#X connect 9 0 0 0;
#X connect 10 0 0 0;
#X connect 11 0 5 1;
#X connect 12 0 16 0;
#X connect 13 0 3 0;
#X connect 16 0 5 0;
#X connect 16 1 0 0;
#X connect 16 2 10 0;
#X connect 16 3 8 0;
#X connect 16 4 9 0;
#X connect 16 5 17 0;
#X connect 19 0 4 0;
#X restore 903 208 pd save-recall-state;
#X text 942 258 bang middle start \, right stop;
#X obj 920 113 t l l;
#X obj 1141 106 t l l;
#X obj 616 388 t b;
#X obj 762 122 r global-start;
#X obj 804 148 r global-stop;
#X connect 0 0 19 3;
#X connect 1 0 19 3;
#X connect 2 0 19 2;
#X connect 3 0 19 3;
#X connect 4 0 33 0;
#X connect 9 0 25 0;
#X connect 10 0 37 0;
#X connect 11 0 17 1;
#X connect 14 0 10 0;
#X connect 14 1 10 1;
#X connect 14 1 17 0;
#X connect 15 0 12 0;
#X connect 15 0 19 3;
#X connect 16 0 13 0;
#X connect 16 0 19 3;
#X connect 17 0 38 0;
#X connect 18 0 4 1;
#X connect 18 1 31 0;
#X connect 19 0 4 0;
#X connect 19 1 18 0;
#X connect 21 0 22 0;
#X connect 22 0 23 1;
#X connect 23 0 26 0;
#X connect 24 0 19 0;
#X connect 25 0 23 0;
#X connect 25 1 19 1;
#X connect 26 0 24 0;
#X connect 27 0 20 0;
#X connect 28 0 0 0;
#X connect 29 0 3 0;
#X connect 30 0 39 0;
#X connect 32 0 2 0;
#X connect 32 0 33 0;
#X connect 35 1 20 2;
#X connect 37 0 35 0;
#X connect 37 1 15 0;
#X connect 38 0 35 1;
#X connect 38 1 16 0;
#X connect 39 0 1 0;
#X connect 40 0 20 1;
#X connect 41 0 20 2;
#X restore 313 353 pd sequencer;
#X obj 651 222 r ctrlIn-\$1;
#X obj 651 309 s ctrlOut-\$1;
#X obj 304 207 list split 2;
#X obj 304 463 list append 0;
#X obj 304 293 s seq-\$1-notes-in;
#X obj 487 288 s seq-\$1-aux-in;
#X obj 304 442 r seq-\$1-notes-out;
#X obj 411 45 s seq-\$1-enable;
#X obj 655 40 r seq_test_param-\$1;
#X obj 655 61 print TEST;
#X connect 0 0 13 0;
#X connect 2 0 18 0;
#X connect 7 0 16 0;
#X connect 13 0 15 0;
#X connect 14 0 1 0;
#X connect 17 0 14 0;
#X connect 19 0 20 0;
