#N canvas 163 173 1530 750 10;
#X declare -path CG-Pd-Library-Local/sequencer;
#X declare -path CG-Pd-Library-Local/externals;
#X declare -path CG-Pd-Library-Local/metronome;
#X obj 258 172 r notesIn-\$1;
#X obj 304 491 s notesOut-\$1;
#X obj 25 186 inlet~ inL-\$1;
#X obj 135 186 inlet~ inR-\$1;
#X obj 27 491 outlet~ outL-\$1;
#X obj 136 491 outlet~ outR-\$1;
#X obj 464 185 r auxIn-\$1;
#X obj 463 208 r expIn-\$1;
#X obj 463 233 r fsIn-\$1;
#X obj 258 193 list split 2;
#X obj 304 317 list append 0;
#X obj 464 264 r ctrlIn-\$1;
#X obj 464 290 s ctrlOut-\$1;
#N canvas 245 103 1348 558 pinkMode 1;
#X obj 130 78 inlet aux;
#N canvas 13 50 450 300 CG-PdLibrary-Local 0;
#X obj 502 35 r cgSc-1-slots;
#X obj 60 98 declare -path CG-Pd-Library-Local/sequencer;
#X obj 58 130 declare -path CG-Pd-Library-Local/externals;
#X obj 59 165 declare -path CG-Pd-Library-Local/metronome;
#X restore 140 37 pd CG-PdLibrary-Local;
#X obj 336 268 outlet notes;
#N canvas 4 78 1352 709 xy-visual-grid 0;
#X obj 417 584 s oscOut;
#X obj 538 384 list;
#X msg 538 358 69;
#X obj 538 406 route 69;
#X obj 397 305 t b a a b, f 24;
#X msg 311 379 /oled/gFlip 3;
#X obj 420 462 t a a;
#X obj 538 428 t a a;
#X obj 395 213 * 16;
#X obj 458 229 * 16;
#X obj 395 186 moses 8;
#X obj 159 590 s oscOut;
#X obj 199 389 list;
#X msg 199 363 69;
#X obj 199 411 route 69;
#X obj 139 311 t b a a b;
#X msg 53 385 /oled/gFlip 3;
#X obj 162 468 t a a;
#X obj 199 433 t a a;
#X obj 139 201 * 16;
#X obj 202 217 * 16;
#X obj 139 146 moses 8;
#X obj 139 100 spigot 0;
#X msg 540 458 /oled/gBox 3 \$1 \$2 15 15 0;
#X msg 447 498 /oled/gBox 3 \$1 \$2 15 15 1;
#X obj 395 234 + 0;
#X obj 458 250 + 0;
#X msg 458 273 \$1 33;
#X obj 458 209 - 8;
#X obj 626 121 t b b;
#X msg 395 266 \$1 13;
#X msg 201 466 /oled/gCircle 3 \$1 \$2 7 0;
#X msg 161 554 /oled/gCircle 3 \$1 \$2 7 1;
#X obj 139 222 + 7;
#X obj 202 238 + 7;
#X msg 139 265 \$1 20;
#X msg 202 264 \$1 40;
#X msg 414 546 /oled/gCircle 3 \$1 \$2 7 0;
#N canvas 515 272 450 300 simple-conversion 0;
#X obj 40 15 inlet;
#X obj 40 36 unpack 0 0, f 54;
#X obj 40 57 + 7;
#X obj 355 61 + 7;
#X obj 43 154 pack, f 31;
#X obj 43 175 outlet;
#X connect 0 0 1 0;
#X connect 1 0 2 0;
#X connect 1 1 3 0;
#X connect 2 0 4 0;
#X connect 3 0 4 1;
#X connect 4 0 5 0;
#X restore 414 520 pd simple-conversion;
#X obj 202 197 - 8;
#X msg 238 340 0 0;
#X msg 603 344 0 0;
#N canvas 276 79 451 299 place 0;
#X obj 34 13 inlet;
#X obj 119 201 unpack 0 0;
#X obj 119 222 outlet;
#X obj 179 222 outlet;
#X obj 119 103 * 16;
#X obj 182 119 * 16;
#X obj 119 48 moses 8;
#X obj 182 99 - 8;
#X obj 119 124 + 2;
#X obj 182 140 + 2;
#X msg 119 167 \$1 17;
#X msg 182 166 \$1 37;
#X connect 0 0 6 0;
#X connect 1 0 2 0;
#X connect 1 1 3 0;
#X connect 4 0 8 0;
#X connect 5 0 9 0;
#X connect 6 0 4 0;
#X connect 6 1 7 0;
#X connect 7 0 5 0;
#X connect 8 0 10 0;
#X connect 9 0 11 0;
#X connect 10 0 1 0;
#X connect 11 0 1 0;
#X restore 1246 317 pd place;
#X msg 1121 574 /oled/gPrintln 3 \$2 \$3 8 1 \$1;
#X obj 1121 358 pack 0 0 0, f 22;
#X obj 1094 503 pack 0 0 0, f 22;
#X msg 1094 413 0;
#X obj 1094 611 s oscOut;
#X obj 1121 379 t a b;
#X msg 1094 536 /oled/gFillArea 3 \$2 \$3 11 8 \$1;
#X obj 1000 190 stripnote;
#X msg 900 497 /oled/gFlip 3;
#X obj 1000 246 pack 0 0;
#X obj 1000 271 t b a a, f 32;
#X obj 1189 294 unpack 0 0;
#X obj 1094 296 unpack 0 0;
#X obj 1094 330 sel 0;
#X obj 926 159 t b;
#X msg 926 180 0;
#X obj 660 218 t b a;
#X msg 660 259 69;
#X obj 660 280 list, f 7;
#X obj 660 437 s oscOut;
#X obj 660 341 t a b;
#X obj 660 301 route 69;
#X obj 607 45 sel 0 1 2;
#X obj 682 94 t b b;
#X obj 1136 32 sel 2;
#X obj 1163 57 t b;
#X msg 1163 78 1;
#X msg 1136 53 0;
#X obj 1076 100 spigot 1;
#X msg 682 118 /oled/gPrintln 3 0 56 8 1 Jam On Top!;
#X msg 660 191 /oled/gPrintln 3 0 56 8 1 Live Mode;
#X obj 510 38 * 17;
#X obj 510 59 i;
#X obj 510 80 moses 16;
#X obj 510 101 + 1;
#X msg 607 156 /oled/gPrintln 3 0 56 8 1 Step: \$1;
#X obj 1094 465 % 100;
#X text 903 468 keeps note numbers to 2 digits;
#X obj 238 319 r loadbang-\$1;
#X obj 603 323 r loadbang-\$1;
#X obj 424 27 r x-count-\$1;
#X obj 128 6 r print-count-\$1;
#X obj 607 24 r live-mode-\$1;
#X obj 510 17 r step-knob-\$1;
#X obj 1136 11 r live-mode-\$1;
#X obj 1045 217 r x-count-\$1;
#X obj 926 138 r print-a-delete-\$1;
#X obj 715 227 r return-line-5-\$1;
#X obj 1018 16 r local-notes-\$1;
#N canvas 4 68 606 805 re-print 0;
#X obj 129 24 inlet;
#X obj 129 162 f;
#X obj 160 162 + 1;
#X obj 129 135 until;
#X obj 129 100 t a b;
#X msg 177 130 0;
#X msg 129 76 16;
#X obj 129 48 t b;
#X obj 156 320 pack, f 17;
#X obj 228 248 sel 0;
#X obj 129 293 sel 0;
#X obj 228 227 tabread vel-list-\$1;
#X obj 129 272 tabread note-list-\$1;
#N canvas 276 79 451 299 place 0;
#X obj 34 13 inlet;
#X obj 119 201 unpack 0 0;
#X obj 119 222 outlet;
#X obj 179 222 outlet;
#X obj 119 103 * 16;
#X obj 182 119 * 16;
#X obj 119 48 moses 8;
#X obj 182 99 - 8;
#X obj 119 124 + 2;
#X obj 182 140 + 2;
#X msg 119 167 \$1 17;
#X msg 182 166 \$1 37;
#X connect 0 0 6 0;
#X connect 1 0 2 0;
#X connect 1 1 3 0;
#X connect 4 0 8 0;
#X connect 5 0 9 0;
#X connect 6 0 4 0;
#X connect 6 1 7 0;
#X connect 7 0 5 0;
#X connect 8 0 10 0;
#X connect 9 0 11 0;
#X connect 10 0 1 0;
#X connect 11 0 1 0;
#X restore 402 472 pd place;
#X msg 277 729 /oled/gPrintln 3 \$2 \$3 8 1 \$1;
#X obj 277 513 pack 0 0 0, f 22;
#X obj 250 658 pack 0 0 0, f 22;
#X msg 250 568 0;
#X obj 250 766 s oscOut;
#X obj 277 534 t a b;
#X msg 250 691 /oled/gFillArea 3 \$2 \$3 11 8 \$1;
#X obj 156 345 stripnote;
#X msg 56 652 /oled/gFlip 3;
#X obj 156 401 pack 0 0;
#X obj 156 426 t b a a, f 32;
#X obj 345 449 unpack 0 0;
#X obj 250 451 unpack 0 0;
#X obj 250 485 sel 0;
#X obj 250 620 % 100;
#X text 59 623 keeps note numbers to 2 digits;
#X obj 201 372 r x-count-\$1;
#X obj 129 183 t f f f, f 29;
#X connect 0 0 7 0;
#X connect 1 0 2 0;
#X connect 1 0 31 0;
#X connect 2 0 1 1;
#X connect 3 0 1 0;
#X connect 4 0 3 0;
#X connect 4 1 5 0;
#X connect 5 0 1 1;
#X connect 6 0 4 0;
#X connect 7 0 6 0;
#X connect 8 0 21 0;
#X connect 9 1 8 1;
#X connect 10 1 8 0;
#X connect 11 0 9 0;
#X connect 12 0 10 0;
#X connect 13 0 15 1;
#X connect 13 0 16 1;
#X connect 13 1 15 2;
#X connect 13 1 16 2;
#X connect 14 0 18 0;
#X connect 15 0 19 0;
#X connect 16 0 20 0;
#X connect 17 0 28 0;
#X connect 19 0 14 0;
#X connect 19 1 17 0;
#X connect 20 0 18 0;
#X connect 21 0 23 0;
#X connect 22 0 18 0;
#X connect 23 0 24 0;
#X connect 24 0 22 0;
#X connect 24 1 26 0;
#X connect 24 2 25 0;
#X connect 25 1 13 0;
#X connect 26 0 27 0;
#X connect 27 0 17 0;
#X connect 27 1 15 0;
#X connect 28 0 16 0;
#X connect 30 0 23 1;
#X connect 31 0 12 0;
#X connect 31 1 11 0;
#X connect 31 2 23 1;
#X restore 760 575 pd re-print;
#X obj 770 489 sel 1;
#X obj 285 89 sel 1;
#X msg 686 361 /oled/gFillArea 3 0 53 108 11 0;
#X obj 1076 121 spigot 0;
#X obj 506 126 spigot 0, f 19;
#X obj 294 653 s loadbang-\$1;
#X obj 302 617 bng 15 250 50 0 empty empty empty 17 7 0 10 -262144
-1 -1;
#X floatatom 425 60 5 0 0 0 - - -;
#X obj 395 158 change -1;
#X obj 395 131 i;
#X obj 254 18 r graphics-enable-\$1;
#X obj 1175 111 r graphics-enable-\$1;
#X obj 607 69 r graphics-enable-\$1;
#X obj 753 442 r graphics-enable-\$1;
#X obj 377 105 spigot 0;
#X obj 282 51 t f f;
#X connect 1 0 3 0;
#X connect 2 0 1 0;
#X connect 3 0 7 0;
#X connect 4 0 5 0;
#X connect 4 1 6 0;
#X connect 4 2 1 1;
#X connect 4 3 2 0;
#X connect 5 0 0 0;
#X connect 6 0 38 0;
#X connect 6 1 24 0;
#X connect 7 0 23 0;
#X connect 8 0 25 0;
#X connect 9 0 26 0;
#X connect 10 0 8 0;
#X connect 10 1 28 0;
#X connect 12 0 14 0;
#X connect 13 0 12 0;
#X connect 14 0 18 0;
#X connect 15 0 16 0;
#X connect 15 1 17 0;
#X connect 15 2 12 1;
#X connect 15 3 13 0;
#X connect 16 0 11 0;
#X connect 17 0 32 0;
#X connect 18 0 31 0;
#X connect 19 0 33 0;
#X connect 20 0 34 0;
#X connect 21 0 19 0;
#X connect 21 1 39 0;
#X connect 22 0 21 0;
#X connect 23 0 0 0;
#X connect 24 0 0 0;
#X connect 25 0 30 0;
#X connect 26 0 27 0;
#X connect 27 0 4 0;
#X connect 28 0 9 0;
#X connect 29 0 73 0;
#X connect 29 1 2 0;
#X connect 30 0 4 0;
#X connect 31 0 11 0;
#X connect 32 0 11 0;
#X connect 33 0 35 0;
#X connect 34 0 36 0;
#X connect 35 0 15 0;
#X connect 36 0 15 0;
#X connect 37 0 0 0;
#X connect 38 0 37 0;
#X connect 39 0 20 0;
#X connect 40 0 12 1;
#X connect 41 0 1 1;
#X connect 42 0 44 1;
#X connect 42 0 45 1;
#X connect 42 1 44 2;
#X connect 42 1 45 2;
#X connect 43 0 47 0;
#X connect 44 0 48 0;
#X connect 45 0 49 0;
#X connect 46 0 79 0;
#X connect 48 0 43 0;
#X connect 48 1 46 0;
#X connect 49 0 47 0;
#X connect 50 0 52 0;
#X connect 51 0 47 0;
#X connect 52 0 53 0;
#X connect 53 0 51 0;
#X connect 53 1 55 0;
#X connect 53 2 54 0;
#X connect 54 1 42 0;
#X connect 55 0 56 0;
#X connect 56 0 46 0;
#X connect 56 1 44 0;
#X connect 57 0 58 0;
#X connect 58 0 52 0;
#X connect 59 0 60 0;
#X connect 59 1 61 1;
#X connect 60 0 61 0;
#X connect 61 0 64 0;
#X connect 63 0 62 0;
#X connect 63 1 95 0;
#X connect 64 0 63 0;
#X connect 65 1 29 0;
#X connect 65 2 66 0;
#X connect 66 0 72 0;
#X connect 66 1 2 0;
#X connect 67 0 70 0;
#X connect 67 1 68 0;
#X connect 68 0 69 0;
#X connect 69 0 71 1;
#X connect 70 0 71 1;
#X connect 71 0 96 0;
#X connect 72 0 59 0;
#X connect 73 0 59 0;
#X connect 74 0 75 0;
#X connect 75 0 76 0;
#X connect 76 0 77 0;
#X connect 77 0 97 0;
#X connect 78 0 59 0;
#X connect 79 0 45 0;
#X connect 81 0 40 0;
#X connect 82 0 41 0;
#X connect 83 0 100 0;
#X connect 84 0 22 0;
#X connect 85 0 65 0;
#X connect 86 0 74 0;
#X connect 87 0 67 0;
#X connect 88 0 52 1;
#X connect 89 0 57 0;
#X connect 90 0 60 0;
#X connect 91 0 71 0;
#X connect 93 0 92 0;
#X connect 94 0 102 0;
#X connect 95 0 62 0;
#X connect 96 0 50 0;
#X connect 97 0 78 0;
#X connect 99 0 98 0;
#X connect 100 0 107 0;
#X connect 101 0 10 0;
#X connect 102 0 101 0;
#X connect 103 0 22 1;
#X connect 103 0 108 0;
#X connect 104 0 96 1;
#X connect 105 0 97 1;
#X connect 106 0 93 0;
#X connect 107 0 102 0;
#X connect 108 0 94 0;
#X connect 108 1 107 1;
#X restore 337 378 pd xy-visual-grid;
#N canvas 1077 267 676 470 play-the-array 0;
#X obj 49 324 outlet;
#X obj 49 264 pack, f 17;
#X obj 121 192 sel 0;
#X obj 22 237 sel 0;
#X obj 20 91 r beat-clock-\$1;
#X obj 22 147 t f f f, f 41;
#X obj 265 201 s print-count-\$1;
#X obj 121 171 tabread vel-list-\$1;
#X obj 22 216 tabread note-list-\$1;
#X connect 1 0 0 0;
#X connect 2 1 1 1;
#X connect 3 1 1 0;
#X connect 4 0 5 0;
#X connect 5 0 8 0;
#X connect 5 1 7 0;
#X connect 5 2 6 0;
#X connect 7 0 2 0;
#X connect 8 0 3 0;
#X restore 336 142 pd play-the-array;
#N canvas 853 269 780 441 fill-the-text-note-list 0;
#X obj 40 49 inlet;
#X obj 40 270 sel 0, f 27;
#X obj 40 220 swap, f 10;
#X obj 199 297 t b a, f 10;
#X obj 199 318 f, f 4;
#X obj 199 339 pack 0 0, f 10;
#N canvas 214 206 584 481 note-on 0;
#X obj 32 33 inlet;
#X text 329 15 If note is on;
#X obj 239 79 f;
#X obj 32 54 t a b, f 35;
#X obj 32 135 unpack, f 16;
#X obj 239 100 t f f, f 11;
#X obj 254 50 r x-count-\$1;
#X obj 32 205 tabwrite note-list-\$1;
#X obj 125 166 tabwrite vel-list-\$1, f 29;
#X connect 0 0 3 0;
#X connect 2 0 5 0;
#X connect 3 0 4 0;
#X connect 3 1 2 0;
#X connect 4 0 7 0;
#X connect 4 1 8 0;
#X connect 5 0 7 1;
#X connect 5 1 8 1;
#X connect 6 0 2 1;
#X restore 199 373 pd note-on;
#X obj 40 198 unpack 0 0;
#N canvas 4 50 450 492 hold-note 0;
#X obj 54 12 inlet;
#X obj 265 184 outlet;
#X obj 54 61 unpack;
#X obj 87 87 sel 0;
#X msg 153 170 stop;
#X obj 133 196 del 500;
#X obj 54 33 t a a, f 37;
#X msg 265 95 69;
#X obj 265 138 route 69;
#X obj 265 117 list append;
#X obj 61 190 t b b;
#X msg 87 249 1;
#X msg 133 227 0;
#X obj 87 289 sel 0 1;
#X obj 325 186 outlet;
#X obj 328 72 stripnote;
#X obj 328 93 pack 0 0;
#X obj 114 109 t b b b b;
#X msg 165 133 1;
#X obj 61 212 spigot 0;
#X connect 0 0 6 0;
#X connect 2 1 3 0;
#X connect 3 0 10 0;
#X connect 3 1 17 0;
#X connect 4 0 5 0;
#X connect 5 0 12 0;
#X connect 6 0 2 0;
#X connect 6 1 15 0;
#X connect 7 0 9 0;
#X connect 8 0 1 0;
#X connect 9 0 8 0;
#X connect 10 0 19 0;
#X connect 10 1 4 0;
#X connect 11 0 13 0;
#X connect 12 0 13 0;
#X connect 12 0 19 1;
#X connect 13 0 14 0;
#X connect 13 1 7 0;
#X connect 15 0 16 0;
#X connect 15 1 16 1;
#X connect 16 0 9 1;
#X connect 17 1 5 0;
#X connect 17 2 4 0;
#X connect 17 3 18 0;
#X connect 18 0 19 1;
#X connect 19 0 11 0;
#X restore 40 128 pd hold-note;
#N canvas 214 206 584 481 erase-note 0;
#X obj 32 13 inlet;
#X obj 342 79 f;
#X obj 342 100 t f f, f 10;
#X msg 135 75 0;
#X obj 135 96 t a a;
#X obj 32 34 t b b b, f 35;
#X obj 228 166 tabwrite vel-list-\$1, f 29;
#X obj 135 205 tabwrite note-list-\$1, f 40;
#X obj 32 243 s print-a-delete-\$1;
#X obj 357 50 r x-count-\$1;
#X connect 0 0 5 0;
#X connect 1 0 2 0;
#X connect 2 0 7 1;
#X connect 2 1 6 1;
#X connect 3 0 4 0;
#X connect 4 0 7 0;
#X connect 4 1 6 0;
#X connect 5 0 8 0;
#X connect 5 1 3 0;
#X connect 5 2 1 0;
#X connect 9 0 1 1;
#X restore 109 168 pd erase-note;
#X obj 40 90 spigot 1;
#X obj 191 66 sel 2;
#X obj 218 91 t b;
#X msg 218 112 1;
#X msg 191 87 0;
#X msg 466 188 const 0;
#X obj 466 211 t a a;
#X obj 439 131 t b b;
#N canvas 4 50 966 728 clear-screen 0;
#N canvas 276 78 450 300 place 0;
#X obj 34 13 inlet;
#X obj 119 201 unpack 0 0;
#X obj 119 222 outlet;
#X obj 179 222 outlet;
#X obj 119 103 * 16;
#X obj 182 119 * 16;
#X obj 119 48 moses 8;
#X obj 182 99 - 8;
#X obj 119 124 + 2;
#X obj 182 140 + 2;
#X msg 119 167 \$1 17;
#X msg 182 166 \$1 37;
#X connect 0 0 6 0;
#X connect 1 0 2 0;
#X connect 1 1 3 0;
#X connect 4 0 8 0;
#X connect 5 0 9 0;
#X connect 6 0 4 0;
#X connect 6 1 7 0;
#X connect 7 0 5 0;
#X connect 8 0 10 0;
#X connect 9 0 11 0;
#X connect 10 0 1 0;
#X connect 11 0 1 0;
#X restore 382 411 pd place;
#X obj 382 558 s oscOut;
#X msg 231 489 /oled/gFlip 3;
#X obj 129 24 inlet;
#X obj 382 386 f;
#X obj 413 386 + 1;
#X obj 382 359 until;
#X obj 382 324 t a b;
#X msg 430 354 0;
#X msg 382 300 16;
#X msg 382 483 /oled/gFillArea 3 \$1 \$2 11 8 0;
#X obj 382 441 pack 0 0;
#X obj 327 244 t b b;
#X connect 0 0 11 0;
#X connect 0 1 11 1;
#X connect 2 0 1 0;
#X connect 3 0 12 0;
#X connect 4 0 5 0;
#X connect 4 0 0 0;
#X connect 5 0 4 1;
#X connect 6 0 4 0;
#X connect 7 0 6 0;
#X connect 7 1 8 0;
#X connect 8 0 4 1;
#X connect 9 0 7 0;
#X connect 10 0 1 0;
#X connect 11 0 10 0;
#X connect 12 0 2 0;
#X connect 12 1 9 0;
#X restore 418 165 pd clear-screen;
#X obj 191 30 r live-mode-\$1;
#X obj 310 279 r master-vel-\$1;
#X obj 439 99 r clear-all-\$1;
#X obj 493 258 array define -k note-list-\$1 16;
#A 0 83 82 83 75 65 0 74 0 67 76 0 77 0 79 63 0;
#X obj 466 282 array define -k vel-list-\$1 16;
#A 0 127 127 127 111 127 0 127 0 127 127 0 127 0 68 127 0;
#X connect 0 0 10 0;
#X connect 1 1 3 0;
#X connect 2 0 1 0;
#X connect 2 1 4 1;
#X connect 3 0 4 0;
#X connect 4 0 5 0;
#X connect 5 0 6 0;
#X connect 7 0 2 0;
#X connect 7 1 2 1;
#X connect 8 0 7 0;
#X connect 8 1 9 0;
#X connect 10 0 8 0;
#X connect 11 0 14 0;
#X connect 11 1 12 0;
#X connect 12 0 13 0;
#X connect 13 0 10 1;
#X connect 14 0 10 1;
#X connect 15 0 16 0;
#X connect 16 0 23 0;
#X connect 16 1 22 0;
#X connect 17 0 18 0;
#X connect 17 1 15 0;
#X connect 19 0 11 0;
#X connect 20 0 5 1;
#X connect 21 0 17 0;
#X restore 624 169 pd fill-the-text-note-list;
#X obj 130 181 t b;
#X obj 161 208 + 1;
#X obj 130 228 % 2;
#X obj 130 207 f 1;
#X obj 177 264 sel 1;
#X msg 177 285 4;
#N canvas 138 50 1583 997 knobzz 0;
#X msg 181 588 1;
#X msg 148 587 0;
#X obj 171 489 moses 16;
#X obj 148 618 change -1;
#X obj 129 727 spigot 0;
#X obj 247 725 spigot 0;
#X obj 189 540 t b b;
#X msg 285 598 1;
#X msg 252 597 0;
#X obj 252 628 change -1;
#X obj 174 696 ==;
#X obj 511 184 * 126;
#X obj 511 205 + 1;
#X obj 599 317 i;
#X obj 533 656 s oscOut;
#X msg 533 520 /oled/gPrintln 3 0 56 8 1 Vel: \$1;
#X obj 881 834 s oscOut;
#X obj 189 519 route 16 17, f 20;
#X msg 270 545 2;
#X obj 270 566 t f b;
#X msg 317 601 0;
#X obj 622 369 s master-vel-\$1;
#X obj 148 642 s live-mode-\$1;
#X obj 132 757 s x-count-\$1;
#X msg 881 700 /oled/gPrintln 3 0 56 8 1 Loop: \$1;
#X obj 247 677 r beat-clock-\$1;
#X obj 159 159 spigot 0;
#X obj 509 153 spigot 0;
#X obj 891 514 spigot 0;
#X obj 1151 500 spigot 0;
#X obj 1223 894 s oscOut;
#X obj 235 340 s pre-step-knob-\$1;
#X obj 116 438 spigot 0;
#X obj 163 196 * 17, f 5;
#X obj 160 219 i;
#X obj 209 309 t a a;
#X obj 170 928 s oscOut;
#X obj 170 832 t a b;
#X msg 170 863 /oled/gPrintln 3 0 56 8 1 Step: \$1;
#X obj 168 809 + 1;
#X msg 28 698 /oled/gFlip 3;
#X obj 103 546 t b a a b b;
#X msg 456 474 /oled/gFlip 3;
#X obj 533 417 t b a b, f 16;
#X msg 785 689 /oled/gFlip 3;
#X msg 1114 822 /oled/gFlip 3;
#X obj 881 632 t b a b, f 16;
#X obj 1159 708 t b a b, f 16;
#X obj 219 134 r graphics-enable-\$1;
#X obj 184 411 r graphics-enable-\$1;
#X obj 572 121 r graphics-enable-\$1;
#X obj 959 407 r graphics-enable-\$1;
#X obj 1240 397 r graphics-enable-\$1;
#X msg 1200 773 /oled/gPrintln 3 0 56 8 1 Note Length: \$1 ms;
#X obj 927 122 spigot;
#X obj 927 93 / 1023;
#X obj 927 176 symbol \$1;
#X obj 927 210 pack s 2;
#X obj 927 149 t b f;
#X obj 927 40 i;
#X obj 927 61 change -1;
#X obj 927 16 r oknob3Raw;
#X obj 189 108 / 1023;
#X obj 189 55 i;
#X obj 189 76 change -1;
#X obj 189 31 r oknob1Raw;
#X obj 505 118 / 1023;
#X obj 505 65 i;
#X obj 505 86 change -1;
#X obj 885 364 r looplength-\$1;
#X obj 1167 375 r notelength-\$1;
#X obj 1141 121 spigot;
#X obj 1141 92 / 1023;
#X obj 1141 175 symbol \$1;
#X obj 1141 209 pack s 2;
#X obj 1141 148 t b f;
#X obj 1141 39 i;
#X obj 1141 60 change -1;
#X obj 1141 15 r oknob4Raw;
#X obj 980 94 r graphics-enable-\$1;
#X obj 1194 93 r graphics-enable-\$1;
#X msg 1141 239 setparam \$1 notelength \$2;
#X text 1279 39 loop length and note lenght are orac params \, so set
them from the knobs;
#X text 1322 518 then draw them from the orac params;
#X obj 505 41 r oknob2Raw;
#X msg 927 240 setparam \$1 looplength \$2;
#X obj 1043 296 s rackMsgs;
#X msg 924 748 /oled/gFillArea 3 0 53 127 11 0;
#X msg 1248 838 /oled/gFillArea 3 0 53 127 11 0;
#X msg 595 562 /oled/gFillArea 3 0 53 127 11 0;
#X msg 196 885 /oled/gFillArea 3 0 53 127 11 0;
#X obj 892 479 i;
#X obj 959 428 t b f;
#X obj 1240 418 t b f;
#X obj 1161 467 i;
#X connect 0 0 3 0;
#X connect 1 0 3 0;
#X connect 2 0 41 0;
#X connect 2 1 17 0;
#X connect 3 0 22 0;
#X connect 4 0 23 0;
#X connect 5 0 23 0;
#X connect 6 0 0 0;
#X connect 6 1 7 0;
#X connect 7 0 9 0;
#X connect 8 0 9 0;
#X connect 9 0 10 0;
#X connect 9 0 5 1;
#X connect 10 0 4 1;
#X connect 11 0 12 0;
#X connect 12 0 13 0;
#X connect 13 0 21 0;
#X connect 13 0 43 0;
#X connect 15 0 14 0;
#X connect 17 0 6 0;
#X connect 17 1 18 0;
#X connect 18 0 19 0;
#X connect 19 0 3 0;
#X connect 19 1 20 0;
#X connect 20 0 9 0;
#X connect 24 0 16 0;
#X connect 25 0 5 0;
#X connect 26 0 33 0;
#X connect 27 0 11 0;
#X connect 28 0 46 0;
#X connect 29 0 47 0;
#X connect 32 0 2 0;
#X connect 33 0 34 0;
#X connect 34 0 35 0;
#X connect 35 0 32 0;
#X connect 35 1 31 0;
#X connect 37 0 38 0;
#X connect 37 1 90 0;
#X connect 38 0 36 0;
#X connect 39 0 37 0;
#X connect 40 0 36 0;
#X connect 41 0 40 0;
#X connect 41 1 4 0;
#X connect 41 2 39 0;
#X connect 41 3 1 0;
#X connect 41 4 8 0;
#X connect 42 0 14 0;
#X connect 43 0 42 0;
#X connect 43 1 15 0;
#X connect 43 2 89 0;
#X connect 44 0 16 0;
#X connect 45 0 30 0;
#X connect 46 0 44 0;
#X connect 46 1 24 0;
#X connect 46 2 87 0;
#X connect 47 0 45 0;
#X connect 47 1 53 0;
#X connect 47 2 88 0;
#X connect 48 0 26 1;
#X connect 49 0 32 1;
#X connect 50 0 27 1;
#X connect 51 0 92 0;
#X connect 52 0 93 0;
#X connect 53 0 30 0;
#X connect 54 0 58 0;
#X connect 55 0 54 0;
#X connect 56 0 57 0;
#X connect 57 0 85 0;
#X connect 58 0 56 0;
#X connect 58 1 57 1;
#X connect 59 0 60 0;
#X connect 60 0 55 0;
#X connect 61 0 59 0;
#X connect 62 0 26 0;
#X connect 63 0 64 0;
#X connect 64 0 62 0;
#X connect 65 0 63 0;
#X connect 66 0 27 0;
#X connect 67 0 68 0;
#X connect 68 0 66 0;
#X connect 69 0 91 0;
#X connect 70 0 94 0;
#X connect 71 0 75 0;
#X connect 72 0 71 0;
#X connect 73 0 74 0;
#X connect 74 0 81 0;
#X connect 75 0 73 0;
#X connect 75 1 74 1;
#X connect 76 0 77 0;
#X connect 77 0 72 0;
#X connect 78 0 76 0;
#X connect 79 0 54 1;
#X connect 80 0 71 1;
#X connect 81 0 86 0;
#X connect 84 0 67 0;
#X connect 85 0 86 0;
#X connect 87 0 16 0;
#X connect 88 0 30 0;
#X connect 89 0 14 0;
#X connect 90 0 36 0;
#X connect 91 0 28 0;
#X connect 92 0 91 0;
#X connect 92 1 28 1;
#X connect 93 0 94 0;
#X connect 93 1 29 1;
#X connect 94 0 29 0;
#X restore 932 61 pd knobzz;
#N canvas 4 50 450 492 hold-note 0;
#X obj 54 12 inlet;
#X obj 265 184 outlet;
#X obj 54 61 unpack;
#X obj 87 87 sel 0;
#X msg 153 170 stop;
#X obj 133 196 del 500;
#X obj 54 33 t a a, f 37;
#X msg 265 95 69;
#X obj 265 138 route 69;
#X obj 265 117 list append;
#X obj 61 190 t b b;
#X msg 87 249 1;
#X msg 133 227 0;
#X obj 87 289 sel 0 1;
#X obj 325 186 outlet;
#X obj 328 72 stripnote;
#X obj 328 93 pack 0 0;
#X obj 114 109 t b b b b;
#X msg 165 133 1;
#X obj 61 212 spigot 0;
#X connect 0 0 6 0;
#X connect 2 1 3 0;
#X connect 3 0 10 0;
#X connect 3 1 17 0;
#X connect 4 0 5 0;
#X connect 5 0 12 0;
#X connect 6 0 2 0;
#X connect 6 1 15 0;
#X connect 7 0 9 0;
#X connect 8 0 1 0;
#X connect 9 0 8 0;
#X connect 10 0 19 0;
#X connect 10 1 4 0;
#X connect 11 0 13 0;
#X connect 12 0 13 0;
#X connect 12 0 19 1;
#X connect 13 0 14 0;
#X connect 13 1 7 0;
#X connect 15 0 16 0;
#X connect 15 1 16 1;
#X connect 16 0 9 1;
#X connect 17 1 5 0;
#X connect 17 2 4 0;
#X connect 17 3 18 0;
#X connect 18 0 19 1;
#X connect 19 0 11 0;
#X restore 130 136 pd hold-note;
#X msg 130 114 1 \$1;
#X text 998 61 Knob Management;
#X text 458 151 Play the notes;
#X text 696 92 the arrays and note management;
#X text 352 359 the printing to the screen;
#X text 208 74 Turn on the sequencer;
#X text 214 136 Hold for clear;
#N canvas 645 268 462 363 make-the-note 0;
#X obj 52 15 inlet;
#X obj 52 237 makenote 60 100 100;
#X obj 52 36 unpack 0 0;
#X obj 52 258 pack 0 0, f 20;
#X obj 52 279 outlet;
#X obj 198 22 r notelength-\$1;
#X connect 0 0 2 0;
#X connect 1 0 3 0;
#X connect 1 1 3 1;
#X connect 2 0 1 0;
#X connect 2 1 1 1;
#X connect 3 0 4 0;
#X connect 5 0 1 2;
#X restore 336 228 pd make-the-note;
#X obj 605 62 inlet notes;
#X obj 130 383 s on-off-\$1;
#X obj 648 489 s beat-clock-\$1;
#X obj 648 390 f;
#X obj 679 390 + 1;
#X obj 648 441 % 16, f 13;
#X obj 199 162 s clear-all-\$1;
#X obj 605 113 t a a a;
#X obj 644 143 s local-notes-\$1;
#X obj 787 257 r on-off-\$1;
#X obj 787 278 sel 0;
#X msg 787 299 0;
#X obj 705 277 r on-off-\$1;
#X obj 648 306 spigot 0, f 10;
#X obj 204 336 f;
#X obj 234 313 sel 1;
#X obj 648 212 r master-ticks;
#X obj 648 239 sel 0 6 12 18;
#X obj 955 202 orac-mod-sel \$1 graphics;
#X obj 955 234 s graphics-enable-\$1;
#X text 1107 218 check if we are on graphic page;
#X obj 234 292 r graphics-enable-\$1;
#X obj 226 371 s aux-led-\$1;
#X obj 723 408 r looplength-\$1;
#N canvas 4 50 924 468 save-recall 0;
#X obj 131 167 list;
#X obj 516 67 r rackSavePreset;
#N canvas 100 596 803 448 presetDir 0;
#X obj 88 153 s rackMsgs;
#X obj 88 106 symbol \$1;
#X msg 88 128 getsetting currentPreset Defaut rackCurrentPreset-\$1
;
#X obj 88 181 r rackCurrentPreset;
#X obj 215 181 r rackCurrentPreset-\$1;
#X obj 87 215 symbol \$1;
#X obj 442 163 s rackMsgs;
#X obj 442 113 symbol \$1;
#X obj 204 50 r loadbang-\$1;
#X obj 442 186 r rackDataDir;
#X obj 535 189 r rackDataDir-\$1;
#X msg 442 138 getsetting dataDir ./data rackDataDir-\$1;
#X obj 441 219 symbol \$1;
#X obj 249 276 pack s s s;
#X obj 255 210 symbol \$1;
#X obj 205 76 t b b b;
#X obj 114 243 t b b s;
#X obj 255 232 t b s;
#X obj 111 387 outlet;
#X obj 219 386 outlet;
#X text 81 25 track preset directory and bang on change;
#X obj 168 52 bng 15 250 50 0 empty empty empty 17 7 0 10 -262144 -1
-1;
#X connect 1 0 2 0;
#X connect 2 0 0 0;
#X connect 3 0 5 0;
#X connect 4 0 5 0;
#X connect 5 0 16 0;
#X connect 7 0 11 0;
#X connect 8 0 15 0;
#X connect 9 0 12 0;
#X connect 10 0 12 0;
#X connect 11 0 6 0;
#X connect 12 0 13 0;
#X connect 13 0 19 0;
#X connect 14 0 17 0;
#X connect 15 0 1 0;
#X connect 15 1 14 0;
#X connect 15 2 7 0;
#X connect 16 0 18 0;
#X connect 16 1 13 0;
#X connect 16 2 13 1;
#X connect 17 0 13 0;
#X connect 17 1 13 2;
#X connect 21 0 15 0;
#X restore 218 50 pd presetDir;
#N canvas 103 262 721 484 savePreset 0;
#X obj 468 172 r saveState;
#X obj 281 352 list;
#X obj 189 196 unpack s s s;
#X obj 268 242 pack s s s;
#X obj 275 178 symbol \$1;
#X obj 191 161 list;
#X obj 233 101 t b b a b;
#X obj 106 54 inlet;
#X obj 287 406 outlet;
#X obj 229 39 inlet;
#X connect 0 0 1 0;
#X connect 1 0 8 0;
#X connect 2 0 3 0;
#X connect 2 2 3 2;
#X connect 3 0 1 1;
#X connect 4 0 3 1;
#X connect 5 0 2 0;
#X connect 6 0 1 0;
#X connect 6 1 3 0;
#X connect 6 2 4 0;
#X connect 6 3 5 0;
#X connect 7 0 5 1;
#X connect 9 0 6 0;
#X restore 479 169 pd savePreset;
#X obj 462 294 s vel-list-\$1;
#X msg 462 248 write \$1/presets/\$2/\$3-step-seq-vel.txt;
#X obj 557 307 s note-list-\$1;
#X msg 557 275 write \$1/presets/\$2/\$3-step-seq-note.txt;
#N canvas 4 50 966 728 fill-screen 0;
#N canvas 276 78 450 300 place 0;
#X obj 34 13 inlet;
#X obj 119 201 unpack 0 0;
#X obj 119 222 outlet;
#X obj 179 222 outlet;
#X obj 119 103 * 16;
#X obj 182 119 * 16;
#X obj 119 48 moses 8;
#X obj 182 99 - 8;
#X obj 119 124 + 2;
#X obj 182 140 + 2;
#X msg 119 167 \$1 17;
#X msg 182 166 \$1 37;
#X connect 0 0 6 0;
#X connect 1 0 2 0;
#X connect 1 1 3 0;
#X connect 4 0 8 0;
#X connect 5 0 9 0;
#X connect 6 0 4 0;
#X connect 6 1 7 0;
#X connect 7 0 5 0;
#X connect 8 0 10 0;
#X connect 9 0 11 0;
#X connect 10 0 1 0;
#X connect 11 0 1 0;
#X restore 382 411 pd place;
#X obj 382 618 s oscOut;
#X msg 231 489 /oled/gFlip 3;
#X obj 231 105 inlet;
#X obj 382 296 f;
#X obj 413 296 + 1;
#X obj 382 264 until;
#X obj 382 234 t a b;
#X msg 430 264 0;
#X msg 382 210 16;
#X msg 409 551 /oled/gFillArea 3 \$1 \$2 11 8 0;
#X obj 231 173 t b b;
#X obj 382 317 t a a, f 21;
#X obj 382 522 t a a;
#X obj 382 481 pack 0 0 0, f 16;
#X msg 382 579 /oled/gPrintln 3 \$1 \$2 8 1 \$3;
#X obj 505 367 sel 0, f 12;
#X obj 505 388 t b;
#X obj 574 390 t a b;
#X obj 382 338 spigot 0;
#X msg 505 409 0;
#X msg 603 413 1;
#X obj 505 346 tabread note-list-\$1;
#X connect 0 0 14 0;
#X connect 0 1 14 1;
#X connect 2 0 1 0;
#X connect 3 0 11 0;
#X connect 4 0 5 0;
#X connect 4 0 12 0;
#X connect 5 0 4 1;
#X connect 6 0 4 0;
#X connect 7 0 6 0;
#X connect 7 1 8 0;
#X connect 8 0 4 1;
#X connect 9 0 7 0;
#X connect 10 0 1 0;
#X connect 11 0 2 0;
#X connect 11 1 9 0;
#X connect 12 0 19 0;
#X connect 12 1 22 0;
#X connect 13 0 15 0;
#X connect 13 1 10 0;
#X connect 14 0 13 0;
#X connect 15 0 1 0;
#X connect 16 0 17 0;
#X connect 16 1 18 0;
#X connect 17 0 20 0;
#X connect 18 0 14 2;
#X connect 18 1 21 0;
#X connect 19 0 0 0;
#X connect 20 0 19 1;
#X connect 21 0 19 1;
#X connect 22 0 16 0;
#X restore 72 351 pd fill-screen;
#X obj 132 190 t b l l;
#X msg 160 222 read \$1/presets/\$2/\$3-step-seq-vel.txt;
#X msg 192 244 read \$1/presets/\$2/\$3-step-seq-note.txt;
#X obj 137 289 s vel-list-\$1;
#X obj 225 284 s note-list-\$1;
#X text 181 356 I don't think we need this because it gets re printed
whenever the graphic page is enabled anyway.;
#X connect 0 0 9 0;
#X connect 1 0 3 1;
#X connect 2 0 0 0;
#X connect 2 1 0 1;
#X connect 2 1 3 0;
#X connect 3 0 5 0;
#X connect 3 0 7 0;
#X connect 5 0 4 0;
#X connect 7 0 6 0;
#X connect 9 1 10 0;
#X connect 9 2 11 0;
#X connect 10 0 12 0;
#X connect 11 0 13 0;
#X restore 934 102 pd save-recall;
#X connect 0 0 14 0;
#X connect 4 0 21 0;
#X connect 6 0 9 0;
#X connect 7 0 9 1;
#X connect 8 0 10 0;
#X connect 8 0 23 0;
#X connect 9 0 7 0;
#X connect 9 0 8 0;
#X connect 10 0 11 0;
#X connect 10 1 36 0;
#X connect 11 0 36 0;
#X connect 13 0 6 0;
#X connect 13 1 28 0;
#X connect 14 0 13 0;
#X connect 21 0 2 0;
#X connect 22 0 29 0;
#X connect 25 0 26 0;
#X connect 25 0 27 0;
#X connect 26 0 25 1;
#X connect 27 0 24 0;
#X connect 29 0 2 0;
#X connect 29 1 5 0;
#X connect 29 2 30 0;
#X connect 31 0 32 0;
#X connect 32 0 33 0;
#X connect 33 0 25 1;
#X connect 34 0 35 1;
#X connect 35 0 25 0;
#X connect 36 0 44 0;
#X connect 37 0 36 0;
#X connect 38 0 39 0;
#X connect 39 0 35 0;
#X connect 39 1 35 0;
#X connect 39 2 35 0;
#X connect 39 3 35 0;
#X connect 40 0 41 0;
#X connect 43 0 37 0;
#X connect 45 0 27 1;
#X restore 304 293 pd pinkMode;
#X f 20;
#X connect 0 0 9 0;
#X connect 6 0 13 0;
#X connect 9 0 13 1;
#X connect 10 0 1 0;
#X connect 13 0 10 0;
