#N canvas 807 365 885 520 10;
#X text 290 11 Object to report when the module is selected;
#X obj 71 431 outlet;
#X obj 71 110 sel \$1, f 11;
#X obj 71 238 &&, f 22;
#X msg 71 204 1;
#X msg 134 204 0;
#X obj 71 34 r activePage;
#X msg 287 204 0;
#X text 121 426 1 on \, 0 is off;
#X obj 287 58 symbol \$2;
#X obj 287 34 r loadbang-\$1;
#X text 438 67 Arg1: \$1 orac slot for module (ex: a1 **this should
always be \$1**);
#X obj 200 110 sel s, f 14;
#X obj 71 72 unpack s s, f 15;
#X text 438 103 Arg2: name of Page where parameter should print(ex:
main);
#X obj 71 287 sel 1 0, f 23;
#X obj 71 309 t b b;
#X msg 92 332 stop;
#X msg 71 380 1;
#X msg 157 365 0;
#X obj 138 310 t b b;
#X floatatom 110 264 5 0 0 0 - - -;
#X msg 200 131 1;
#X obj 71 359 del 500;
#X connect 2 0 4 0;
#X connect 2 1 5 0;
#X connect 3 0 15 0;
#X connect 4 0 3 0;
#X connect 5 0 3 0;
#X connect 6 0 13 0;
#X connect 7 0 3 1;
#X connect 9 0 12 1;
#X connect 10 0 9 0;
#X connect 12 0 22 0;
#X connect 12 1 7 0;
#X connect 13 0 2 0;
#X connect 13 1 12 0;
#X connect 15 0 16 0;
#X connect 15 1 20 0;
#X connect 16 0 23 0;
#X connect 16 1 17 0;
#X connect 17 0 23 0;
#X connect 18 0 1 0;
#X connect 19 0 1 0;
#X connect 20 0 19 0;
#X connect 20 1 17 0;
#X connect 22 0 3 1;
#X connect 23 0 18 0;
