#N canvas 173 50 1005 608 10;
#X obj 304 186 r notesIn-\$1;
#X obj 304 490 s notesOut-\$1;
#X obj 410 7 r loadbang-\$1;
#X obj 25 186 inlet~ inL-\$1;
#X obj 135 186 inlet~ inR-\$1;
#X obj 27 491 outlet~ outL-\$1;
#X obj 136 491 outlet~ outR-\$1;
#X obj 487 182 r auxIn-\$1;
#X obj 486 331 r expIn-\$1;
#X obj 486 356 r fsIn-\$1;
#N canvas 159 71 1602 910 sequencer 1;
#N canvas 529 128 1387 916 latch 0;
#X obj 263 252 tgl 15 0 empty empty empty 17 7 0 10 -262144 -1 -1 0
1;
#X obj 133 368 spigot 1;
#X obj 43 368 spigot 0;
#X obj 263 278 == 0;
#X obj 263 368 sel 0 1;
#X obj 263 106 inlet;
#X obj 43 626 outlet;
#X obj 43 106 inlet;
#X text 311 105 bang enable / disables latch;
#X text 44 53 incoming notes get sent through latch if enabled \, or
directly to output if disabled;
#X text 323 367 Update Screen & LED;
#X obj 309 316 b;
#X obj 43 421 latch-notes;
#X obj 263 160 t f b, f 7;
#X obj 262 496 t b b;
#X obj 439 496 t b b;
#X obj 312 674 s aux-label-\$1;
#X msg 263 579 Aux: Latch ON \;;
#X msg 487 579 Aux: Latch OFF \;;
#X obj 495 679 s aux-led-\$1;
#X msg 487 534 0;
#X msg 289 534 2;
#X connect 0 0 3 0;
#X connect 0 0 2 1;
#X connect 1 0 6 0;
#X connect 2 0 12 0;
#X connect 3 0 1 1;
#X connect 3 0 4 0;
#X connect 4 0 14 0;
#X connect 4 1 15 0;
#X connect 5 0 13 0;
#X connect 7 0 2 0;
#X connect 7 0 1 0;
#X connect 11 0 12 1;
#X connect 12 0 6 0;
#X connect 13 0 0 0;
#X connect 13 1 11 0;
#X connect 14 1 21 0;
#X connect 14 1 17 0;
#X connect 15 1 20 0;
#X connect 15 1 18 0;
#X restore 184 90 pd latch;
#X msg 928 514 stop;
#X msg 803 526 arm;
#X obj 617 563 seq-format-event note;
#X msg 1024 514 play-sync;
#N canvas 10 50 468 388 flush-stuck-notes 0;
#X obj 167 212 bag;
#X msg 203 161 flush;
#X msg 160 254 \$1 0;
#X obj 124 157 t a a;
#X obj 137 354 outlet;
#X obj 101 22 inlet;
#X obj 258 20 inlet;
#X obj 238 107 bang;
#X obj 114 102 route note;
#X obj 248 61 route end stop;
#X connect 0 0 2 0;
#X connect 1 0 0 0;
#X connect 2 0 4 0;
#X connect 3 0 4 0;
#X connect 3 1 0 0;
#X connect 5 0 8 0;
#X connect 6 0 9 0;
#X connect 7 0 1 0;
#X connect 8 0 3 0;
#X connect 9 0 7 0;
#X connect 9 1 7 0;
#X restore 589 679 pd flush-stuck-notes;
#X text 905 560 beat clock \, events \, controls in;
#X text 904 571 events and status out;
#X text 1091 513 start on top of next beat;
#X text 812 474 arm recording;
#X obj 776 474 bng 15 250 50 0 empty empty empty 17 7 0 10 -262144
-1 -1;
#X obj 776 496 t b b;
#N canvas 22 50 885 660 wait-for-first-sixteenth 0;
#X obj 53 53 inlet;
#X text 109 52 notes;
#X obj 209 52 inlet;
#X text 265 51 sixteenth notes;
#X obj 429 48 inlet;
#X text 485 47 arm;
#X obj 172 301 spigot 0;
#X obj 182 433 bag;
#X msg 218 380 flush;
#X msg 133 451 1;
#X msg 236 452 0;
#X obj 155 637 outlet;
#X msg 451 141 0;
#X obj 419 106 t b b b;
#X msg 414 139 1;
#X obj 171 340 t b b b b;
#X msg 284 326 0;
#X obj 183 526 spigot;
#X obj 86 519 spigot;
#X obj 182 496 pack 0 101;
#N canvas 505 261 450 300 once 0;
#X obj 102 42 inlet;
#X obj 211 67 inlet;
#X obj 118 215 outlet;
#X obj 114 137 == 1;
#X obj 114 115 i 0;
#X obj 114 162 sel 1;
#X obj 114 184 t b b;
#X msg 166 152 0;
#X msg 203 92 1;
#X text 260 68 reset;
#X obj 100 79 bang;
#X connect 0 0 10 0;
#X connect 1 0 8 0;
#X connect 3 0 5 0;
#X connect 4 0 3 0;
#X connect 5 0 6 0;
#X connect 6 0 2 0;
#X connect 6 1 7 0;
#X connect 7 0 4 1;
#X connect 8 0 4 1;
#X connect 10 0 4 0;
#X restore 219 196 pd once;
#X msg 219 243 1;
#X text 394 247 upon arming the sequencer \, we wait for the first
arp tick (sixteenth note) to start the recording. after that \, notes
pass through normally.;
#X obj 131 134 stripnote;
#X obj 84 98 t a a;
#X obj 151 164 bang;
#X connect 0 0 18 0;
#X connect 0 0 24 0;
#X connect 2 0 6 0;
#X connect 4 0 13 0;
#X connect 6 0 15 0;
#X connect 7 0 19 0;
#X connect 8 0 7 0;
#X connect 9 0 18 1;
#X connect 10 0 17 1;
#X connect 12 0 18 1;
#X connect 13 0 20 1;
#X connect 13 1 14 0;
#X connect 13 2 12 0;
#X connect 14 0 17 1;
#X connect 15 0 9 0;
#X connect 15 1 10 0;
#X connect 15 2 16 0;
#X connect 15 3 8 0;
#X connect 16 0 6 1;
#X connect 17 0 11 0;
#X connect 18 0 11 0;
#X connect 19 0 17 0;
#X connect 20 0 21 0;
#X connect 21 0 6 1;
#X connect 23 0 25 0;
#X connect 24 0 7 0;
#X connect 24 1 23 0;
#X connect 25 0 20 0;
#X restore 617 529 pd wait-for-first-sixteenth;
#X obj 491 204 t f f;
#X obj 491 155 r beat-clock;
#X obj 691 803 r arpseq_length-\$1;
#X obj 690 782 r arpseq_pattern-\$1;
#N canvas 4 50 1004 709 arpseq 0;
#X obj 169 100 unpack 0 0;
#X obj 169 160 pack 0 0 0;
#X obj 169 221 unpack, f 54;
#N canvas 135 50 826 891 array-sort 0;
#X obj 263 111 until;
#X obj 263 153 f;
#X obj 296 154 + 1, f 4;
#X msg 321 91 0, f 2;
#X obj 312 267 f;
#X obj 264 232 t f b;
#X obj 262 182 t f f;
#X obj 249 452 f;
#X obj 306 399 sel 1;
#X obj 214 485 f;
#X obj 173 537 f;
#X obj 213 553 t b b;
#X obj 333 550 t b f;
#X obj 250 580 f;
#X obj 343 -90 until;
#X obj 344 -46 f;
#X obj 376 -47 + 1, f 4;
#X msg 401 -110 0, f 2;
#X obj 345 -139 t b b;
#X obj 329 -11 t b f;
#X obj 252 48 t b b b b;
#X msg 324 575 0, f 2;
#X msg 357 89 0;
#X obj 217 333 expr if ($f1 > $f2 \, $f1 \, $f2) \; if ($f1 > $f2 \,
1 \, 0);
#X msg 344 -115 8, f 2;
#X msg 263 83 8, f 2;
#X text 419 137 sort array a into b. a gets clobbered in the process
probably a much better way to do this ...;
#X obj 345 -174 r \$0-reorder;
#X obj 264 210 tabread \$0-notes-squashed;
#X obj 324 611 tabwrite \$0-notes-squashed;
#X obj 139 648 tabwrite \$0-notes-decreasing;
#X connect 0 0 1 0;
#X connect 1 0 2 0;
#X connect 1 0 6 0;
#X connect 2 0 1 1;
#X connect 3 0 1 1;
#X connect 4 0 23 1;
#X connect 5 0 23 0;
#X connect 5 1 4 0;
#X connect 6 0 28 0;
#X connect 6 1 7 1;
#X connect 7 0 9 1;
#X connect 8 0 7 0;
#X connect 9 0 11 0;
#X connect 9 0 12 0;
#X connect 10 0 30 0;
#X connect 11 0 10 0;
#X connect 11 1 13 0;
#X connect 12 0 21 0;
#X connect 12 1 29 1;
#X connect 13 0 30 1;
#X connect 14 0 15 0;
#X connect 15 0 16 0;
#X connect 15 0 19 0;
#X connect 16 0 15 1;
#X connect 17 0 15 1;
#X connect 18 0 24 0;
#X connect 18 1 17 0;
#X connect 19 0 20 0;
#X connect 19 1 13 1;
#X connect 20 0 9 0;
#X connect 20 1 25 0;
#X connect 20 2 3 0;
#X connect 20 3 22 0;
#X connect 21 0 29 0;
#X connect 22 0 4 1;
#X connect 23 0 4 1;
#X connect 23 0 10 1;
#X connect 23 1 8 0;
#X connect 24 0 14 0;
#X connect 25 0 0 0;
#X connect 27 0 18 0;
#X connect 28 0 5 0;
#X restore 165 497 pd array-sort;
#X text 473 454 array1 is raw data from poly (notes with 0 velocity
are given 0 pitch);
#X text 476 531 here are the notes sorted...;
#X floatatom 624 386 5 0 0 0 - - -;
#N canvas 168 50 726 731 increasing 0;
#X obj 156 260 until;
#X obj 157 304 f;
#X obj 189 303 + 1, f 4;
#X msg 214 240 0, f 2;
#X obj 155 236 f 0;
#X obj 156 357 - 0;
#X obj 157 408 abs;
#X obj 157 326 t f f;
#X obj 266 471 f;
#X obj 156 469 t f b;
#X obj 156 379 + 1;
#X obj 416 331 until;
#X obj 416 373 f;
#X obj 449 374 + 1, f 4;
#X msg 474 311 0, f 2;
#X obj 416 276 t b b;
#X obj 424 398 t b f;
#X msg 415 423 0, f 2;
#X msg 416 303 8, f 2;
#X obj 155 197 t b b b;
#X obj 321 197 r \$0-num-down;
#X obj 156 437 tabread \$0-notes-decreasing;
#X obj 152 508 tabwrite \$0-notes-increasing;
#X obj 413 448 tabwrite \$0-notes-increasing;
#X obj 185 100 r \$0-others;
#X connect 0 0 1 0;
#X connect 1 0 2 0;
#X connect 1 0 7 0;
#X connect 2 0 1 1;
#X connect 3 0 1 1;
#X connect 4 0 0 0;
#X connect 5 0 10 0;
#X connect 6 0 21 0;
#X connect 7 0 5 0;
#X connect 7 1 8 1;
#X connect 8 0 22 1;
#X connect 9 0 22 0;
#X connect 9 1 8 0;
#X connect 10 0 6 0;
#X connect 11 0 12 0;
#X connect 12 0 13 0;
#X connect 12 0 16 0;
#X connect 13 0 12 1;
#X connect 14 0 12 1;
#X connect 15 0 18 0;
#X connect 15 1 14 0;
#X connect 16 0 17 0;
#X connect 16 1 23 1;
#X connect 17 0 23 0;
#X connect 18 0 11 0;
#X connect 19 0 4 0;
#X connect 19 1 3 0;
#X connect 19 2 15 0;
#X connect 20 0 4 1;
#X connect 20 0 5 1;
#X connect 21 0 9 0;
#X connect 24 0 19 0;
#X restore 167 541 pd increasing;
#X obj 169 125 poly 8 1, f 10;
#N canvas 12 50 588 574 format_for_array 0;
#X obj 111 44 inlet;
#X obj 102 128 f;
#X obj 144 151 sel 0;
#X msg 121 188 0;
#X obj 167 181 t b b;
#X obj 137 126 f;
#X obj 79 268 t f b;
#X obj 75 336 pack 0 0;
#X obj 85 75 unpack 0 0 0;
#X obj 41 132 t b f;
#X obj 117 304 f;
#X obj 78 389 outlet;
#X obj 133 274 - 1;
#X text 169 280 array index starts at 0 \, poly index starts at 1;
#X text 223 150 if the velocity is > 0 \, outputs note number. If =
0 \, it outputs 0 for note number;
#X connect 0 0 8 0;
#X connect 1 0 6 0;
#X connect 2 0 3 0;
#X connect 2 1 4 0;
#X connect 3 0 6 0;
#X connect 4 0 1 0;
#X connect 5 0 2 0;
#X connect 6 0 7 0;
#X connect 6 1 10 0;
#X connect 7 0 11 0;
#X connect 8 0 9 0;
#X connect 8 1 1 1;
#X connect 8 2 5 1;
#X connect 9 0 5 0;
#X connect 9 1 12 0;
#X connect 10 0 7 1;
#X connect 12 0 10 1;
#X restore 169 189 pd format_for_array;
#N canvas 8 50 1000 647 array-copy 0;
#X obj 228 194 until;
#X obj 228 236 f;
#X obj 261 237 + 1, f 4;
#X msg 286 174 0, f 2;
#X obj 426 272 until;
#X obj 426 314 f;
#X obj 459 315 + 1, f 4;
#X msg 484 252 0, f 2;
#X obj 426 217 t b b;
#X obj 426 339 t b f;
#X msg 426 364 0, f 2;
#X obj 228 121 t b b b;
#X msg 228 166 8, f 2;
#X msg 426 244 8, f 2;
#X text 324 97 this removes 0 elements (or actually just moves the
following elements over 1 place);
#X text 528 296 first zero out the destination array;
#X obj 228 258 t f f;
#X obj 228 297 tabread \$0-notes-from-poly;
#X obj 426 385 tabwrite \$0-notes-squashed;
#X obj 228 410 tabwrite \$0-notes-squashed;
#X obj 228 97 b;
#X obj 228 75 r \$0-copy;
#X connect 0 0 1 0;
#X connect 1 0 2 0;
#X connect 1 0 16 0;
#X connect 2 0 1 1;
#X connect 3 0 1 1;
#X connect 4 0 5 0;
#X connect 5 0 6 0;
#X connect 5 0 9 0;
#X connect 6 0 5 1;
#X connect 7 0 5 1;
#X connect 8 0 13 0;
#X connect 8 1 7 0;
#X connect 9 0 10 0;
#X connect 9 1 18 1;
#X connect 10 0 18 0;
#X connect 11 0 12 0;
#X connect 11 1 3 0;
#X connect 11 2 8 0;
#X connect 12 0 0 0;
#X connect 13 0 4 0;
#X connect 16 0 17 0;
#X connect 16 1 19 1;
#X connect 17 0 19 0;
#X connect 20 0 11 0;
#X connect 21 0 20 0;
#X restore 164 460 pd array-copy;
#X text 477 561 then increasing;
#X text 219 613 then play them!;
#N canvas 280 112 919 687 arp 0;
#N canvas 22 50 1242 820 double-double 0;
#X obj 307 345 bng 15 250 50 0 empty empty empty 17 7 0 10 -262144
-1 -1;
#X floatatom 422 282 5 0 0 0 - - -;
#X floatatom 484 494 5 0 0 0 - - -;
#X obj 306 623 + 0;
#X obj 485 513 * 12;
#X obj 298 304 spigot;
#X obj 306 659 - 12;
#X obj 378 338 sel 0;
#X obj 396 437 bng 15 250 50 0 empty empty empty 17 7 0 10 -262144
-1 -1;
#X obj 422 301 t f f;
#X msg 506 462 0;
#X obj 247 467 % 1;
#X obj 679 299 bng 15 250 50 0 empty empty empty 17 7 0 10 -262144
-1 -1;
#X floatatom 794 236 5 0 0 0 - - -;
#X floatatom 856 448 5 0 0 0 - - -;
#X obj 678 577 + 0;
#X obj 857 467 * 12;
#X obj 670 258 spigot;
#X obj 671 636 - 12;
#X obj 750 292 sel 0;
#X obj 768 391 bng 15 250 50 0 empty empty empty 17 7 0 10 -262144
-1 -1;
#X obj 794 255 t f f;
#X msg 878 416 0;
#X obj 619 421 % 1;
#X obj 487 756 outlet;
#X obj 327 176 spigot 0;
#X obj 592 158 spigot 0;
#X obj 459 91 inlet;
#X obj 410 225 r \$0-num-down;
#X obj 420 255 r \$0-num-down;
#X obj 234 516 tabread \$0-notes-increasing;
#X obj 606 470 tabread \$0-notes-increasing;
#X obj 792 209 r \$0-num-down;
#X obj 782 179 r \$0-num-down;
#X obj 852 385 counter-up 2 \$1;
#X obj 627 348 counter-up 0 \$1;
#X obj 255 394 counter-up 0 \$1;
#X obj 480 427 counter-up 2 \$1;
#X obj 268 79 r \$0-tick;
#X obj 624 67 r \$0-tick;
#X connect 0 0 36 0;
#X connect 1 0 9 0;
#X connect 2 0 4 0;
#X connect 3 0 6 0;
#X connect 4 0 3 1;
#X connect 5 0 0 0;
#X connect 6 0 24 0;
#X connect 7 0 10 0;
#X connect 7 0 36 1;
#X connect 7 0 37 1;
#X connect 8 0 37 0;
#X connect 9 0 7 0;
#X connect 9 0 11 1;
#X connect 9 1 36 2;
#X connect 10 0 2 0;
#X connect 11 0 30 0;
#X connect 12 0 35 0;
#X connect 13 0 21 0;
#X connect 14 0 16 0;
#X connect 15 0 18 0;
#X connect 16 0 15 1;
#X connect 17 0 12 0;
#X connect 18 0 24 0;
#X connect 19 0 22 0;
#X connect 19 0 34 1;
#X connect 19 0 35 1;
#X connect 20 0 34 0;
#X connect 21 0 19 0;
#X connect 21 0 23 1;
#X connect 21 1 35 2;
#X connect 22 0 14 0;
#X connect 23 0 31 0;
#X connect 25 0 5 0;
#X connect 26 0 17 0;
#X connect 27 0 25 1;
#X connect 27 0 26 1;
#X connect 28 0 5 1;
#X connect 29 0 1 0;
#X connect 30 0 3 0;
#X connect 31 0 15 0;
#X connect 32 0 13 0;
#X connect 33 0 17 1;
#X connect 34 0 14 0;
#X connect 35 0 23 0;
#X connect 35 1 20 0;
#X connect 36 0 11 0;
#X connect 36 1 8 0;
#X connect 37 0 2 0;
#X connect 38 0 25 0;
#X connect 39 0 26 0;
#X restore 654 437 pd double-double;
#X obj 283 276 sel 0 1 2 3 4 5 6 7, f 69;
#X obj 283 177 t f b;
#X msg 354 375 0;
#X msg 280 308 1;
#X msg 351 306 1;
#X msg 413 305 1;
#X msg 471 303 1;
#N canvas 25 50 1242 820 double-randoms 0;
#X floatatom 451 564 5 0 0 0 - - -;
#X obj 247 642 + 0;
#X obj 451 583 * 12;
#X obj 255 324 spigot;
#X obj 247 678 - 12;
#X obj 420 330 sel 0;
#X obj 420 301 t f f;
#X msg 473 532 0;
#X obj 247 467 % 1;
#X floatatom 822 528 5 0 0 0 - - -;
#X obj 606 617 + 0;
#X obj 822 547 * 12;
#X obj 627 258 spigot;
#X obj 606 676 - 12;
#X obj 750 292 sel 0;
#X obj 721 246 t f f;
#X msg 844 496 0;
#X obj 606 441 % 1;
#X obj 487 756 outlet;
#X obj 255 185 spigot 0;
#X obj 627 158 spigot 0;
#X obj 459 91 inlet;
#X obj 451 495 random 3;
#X obj 255 394 random;
#X obj 606 470 tabread \$0-notes-increasing;
#X obj 247 496 tabread \$0-notes-increasing;
#X obj 410 225 r \$0-num-down;
#X obj 420 255 r \$0-num-down;
#X obj 721 220 r \$0-num-down;
#X obj 666 195 r \$0-num-down;
#X obj 451 452 b;
#X obj 255 351 b;
#X obj 627 280 b;
#X obj 708 388 b;
#X obj 822 465 counter-up 2 \$1;
#X obj 627 348 counter-up 0 \$1;
#X obj 255 88 r \$0-tick;
#X obj 627 97 r \$0-tick;
#X connect 0 0 2 0;
#X connect 1 0 4 0;
#X connect 2 0 1 1;
#X connect 3 0 31 0;
#X connect 4 0 18 0;
#X connect 5 0 7 0;
#X connect 6 0 5 0;
#X connect 6 0 8 1;
#X connect 7 0 0 0;
#X connect 8 0 25 0;
#X connect 9 0 11 0;
#X connect 10 0 13 0;
#X connect 11 0 10 1;
#X connect 12 0 32 0;
#X connect 13 0 18 0;
#X connect 14 0 16 0;
#X connect 14 0 34 1;
#X connect 14 0 35 1;
#X connect 15 0 14 0;
#X connect 15 0 17 1;
#X connect 15 1 35 2;
#X connect 16 0 9 0;
#X connect 17 0 24 0;
#X connect 19 0 3 0;
#X connect 20 0 12 0;
#X connect 21 0 19 1;
#X connect 21 0 20 1;
#X connect 22 0 0 0;
#X connect 23 0 8 0;
#X connect 24 0 10 0;
#X connect 25 0 1 0;
#X connect 26 0 3 1;
#X connect 27 0 23 1;
#X connect 27 0 6 0;
#X connect 28 0 15 0;
#X connect 29 0 12 1;
#X connect 30 0 22 0;
#X connect 31 0 30 0;
#X connect 31 0 23 0;
#X connect 32 0 35 0;
#X connect 33 0 34 0;
#X connect 34 0 9 0;
#X connect 35 0 17 0;
#X connect 35 1 33 0;
#X connect 36 0 19 0;
#X connect 37 0 20 0;
#X restore 523 439 pd double-randoms;
#X obj 283 129 i;
#X msg 322 129 0;
#N canvas 22 50 1242 820 singleup4 0;
#X obj 307 345 bng 15 250 50 0 empty empty empty 17 7 0 10 -262144
-1 -1;
#X floatatom 422 282 5 0 0 0 - - -;
#X floatatom 484 494 5 0 0 0 - - -;
#X obj 306 623 + 0;
#X obj 485 513 * 12;
#X obj 298 304 spigot;
#X obj 378 338 sel 0;
#X obj 396 437 bng 15 250 50 0 empty empty empty 17 7 0 10 -262144
-1 -1;
#X obj 422 301 t f f;
#X msg 506 462 0;
#X obj 247 467 % 1;
#X obj 487 756 outlet;
#X obj 327 176 spigot 0;
#X obj 459 91 inlet;
#X obj 307 659 - 24;
#X obj 410 225 r \$0-num-down;
#X obj 420 255 r \$0-num-down;
#X obj 234 516 tabread \$0-notes-increasing;
#X obj 480 427 counter-up 4 \$1;
#X obj 255 394 counter-up 0 \$1;
#X obj 268 79 r \$0-tick;
#X connect 0 0 19 0;
#X connect 1 0 8 0;
#X connect 2 0 4 0;
#X connect 3 0 14 0;
#X connect 4 0 3 1;
#X connect 5 0 0 0;
#X connect 6 0 9 0;
#X connect 6 0 18 1;
#X connect 6 0 19 1;
#X connect 7 0 18 0;
#X connect 8 0 6 0;
#X connect 8 0 10 1;
#X connect 8 1 19 2;
#X connect 9 0 2 0;
#X connect 10 0 17 0;
#X connect 12 0 5 0;
#X connect 13 0 12 1;
#X connect 14 0 11 0;
#X connect 15 0 5 1;
#X connect 16 0 1 0;
#X connect 17 0 3 0;
#X connect 18 0 2 0;
#X connect 19 0 10 0;
#X connect 19 1 7 0;
#X connect 20 0 12 0;
#X restore 307 441 pd singleup4;
#N canvas 21 50 1242 820 singledown4 0;
#X floatatom 484 494 5 0 0 0 - - -;
#X obj 306 623 + 0;
#X obj 485 513 * 12;
#X obj 298 304 spigot;
#X obj 378 338 sel 0;
#X obj 422 301 t f f;
#X msg 506 462 0;
#X obj 247 467 % 1;
#X obj 487 756 outlet;
#X obj 327 176 spigot 0;
#X obj 459 91 inlet;
#X obj 307 659 - 24;
#X obj 234 516 tabread \$0-notes-increasing;
#X obj 420 255 r \$0-num-down;
#X obj 410 225 r \$0-num-down;
#X obj 298 326 b;
#X obj 350 423 b;
#X obj 480 427 counter-down 4 \$1;
#X obj 255 394 counter-down 0 \$1;
#X obj 268 79 r \$0-tick;
#X connect 0 0 2 0;
#X connect 1 0 11 0;
#X connect 2 0 1 1;
#X connect 3 0 15 0;
#X connect 4 0 6 0;
#X connect 4 0 17 1;
#X connect 4 0 18 1;
#X connect 5 0 4 0;
#X connect 5 0 7 1;
#X connect 5 1 18 2;
#X connect 6 0 0 0;
#X connect 7 0 12 0;
#X connect 9 0 3 0;
#X connect 10 0 9 1;
#X connect 11 0 8 0;
#X connect 12 0 1 0;
#X connect 13 0 5 0;
#X connect 14 0 3 1;
#X connect 15 0 18 0;
#X connect 16 0 17 0;
#X connect 17 0 0 0;
#X connect 18 0 7 0;
#X connect 18 1 16 0;
#X connect 19 0 9 0;
#X restore 410 439 pd singledown4;
#X msg 553 305 1;
#X msg 611 305 1;
#X msg 659 305 1;
#X msg 714 305 1;
#N canvas 28 50 1242 820 singleup2 0;
#X floatatom 484 494 5 0 0 0 - - -;
#X obj 306 623 + 0;
#X obj 485 513 * 12;
#X obj 298 304 spigot;
#X obj 378 338 sel 0;
#X obj 422 301 t f f;
#X msg 506 462 0;
#X obj 247 467 % 1;
#X obj 487 756 outlet;
#X obj 327 176 spigot 0;
#X obj 459 91 inlet;
#X obj 307 659 - 24;
#X obj 410 225 r \$0-num-down;
#X obj 420 255 r \$0-num-down;
#X obj 389 474 b;
#X obj 298 326 b;
#X obj 234 516 tabread \$0-notes-increasing;
#X obj 255 394 counter-up 0 \$1;
#X obj 480 427 counter-up 2 \$1;
#X obj 268 79 r \$0-tick;
#X connect 0 0 2 0;
#X connect 1 0 11 0;
#X connect 2 0 1 1;
#X connect 3 0 15 0;
#X connect 4 0 6 0;
#X connect 4 0 17 1;
#X connect 4 0 18 1;
#X connect 5 0 4 0;
#X connect 5 0 7 1;
#X connect 5 1 17 2;
#X connect 6 0 0 0;
#X connect 7 0 16 0;
#X connect 9 0 3 0;
#X connect 10 0 9 1;
#X connect 11 0 8 0;
#X connect 12 0 3 1;
#X connect 13 0 5 0;
#X connect 14 0 18 0;
#X connect 15 0 17 0;
#X connect 16 0 1 0;
#X connect 17 0 7 0;
#X connect 17 1 14 0;
#X connect 18 0 0 0;
#X connect 19 0 9 0;
#X restore 104 441 pd singleup2;
#N canvas 24 50 1242 820 singledown2 0;
#X obj 271 348 bng 15 250 50 0 empty empty empty 17 7 0 10 -262144
-1 -1;
#X floatatom 484 494 5 0 0 0 - - -;
#X obj 306 623 + 0;
#X obj 485 513 * 12;
#X obj 298 304 spigot;
#X obj 378 338 sel 0;
#X obj 422 301 t f f;
#X msg 506 462 0;
#X obj 247 467 % 1;
#X obj 487 756 outlet;
#X obj 327 176 spigot 0;
#X obj 459 91 inlet;
#X obj 307 659 - 24;
#X obj 410 225 r \$0-num-down;
#X obj 420 255 r \$0-num-down;
#X obj 234 516 tabread \$0-notes-increasing;
#X obj 369 480 b;
#X obj 480 427 counter-down 2 \$1;
#X obj 255 394 counter-down 0 \$1;
#X obj 268 79 r \$0-tick;
#X connect 0 0 18 0;
#X connect 1 0 3 0;
#X connect 2 0 12 0;
#X connect 3 0 2 1;
#X connect 4 0 0 0;
#X connect 5 0 7 0;
#X connect 5 0 17 1;
#X connect 5 0 18 1;
#X connect 6 0 5 0;
#X connect 6 0 8 1;
#X connect 6 1 18 2;
#X connect 7 0 1 0;
#X connect 8 0 15 0;
#X connect 10 0 4 0;
#X connect 11 0 10 1;
#X connect 12 0 9 0;
#X connect 13 0 4 1;
#X connect 14 0 6 0;
#X connect 15 0 2 0;
#X connect 16 0 17 0;
#X connect 17 0 1 0;
#X connect 18 0 8 0;
#X connect 18 1 16 0;
#X connect 19 0 10 0;
#X restore 199 442 pd singledown2;
#N canvas 31 50 1242 820 updown2 0;
#X obj 338 565 outlet;
#N canvas 36 50 1242 820 singleup2 0;
#X obj 307 345 bng 15 250 50 0 empty empty empty 17 7 0 10 -262144
-1 -1;
#X floatatom 484 494 5 0 0 0 - - -;
#X obj 306 623 + 0;
#X obj 485 513 * 12;
#X obj 298 304 spigot;
#X obj 378 338 sel 0;
#X obj 396 437 bng 15 250 50 0 empty empty empty 17 7 0 10 -262144
-1 -1;
#X obj 422 301 t f f;
#X msg 506 462 0;
#X obj 247 467 % 1;
#X obj 487 756 outlet;
#X obj 307 659 - 24;
#X obj 631 661 outlet;
#X obj 225 164 inlet;
#X obj 410 225 r \$0-num-down;
#X obj 420 255 r \$0-num-down;
#X obj 234 516 tabread \$0-notes-increasing;
#X obj 255 394 counter-up 0 \$1;
#X obj 480 427 counter-up 2 \$1;
#X connect 0 0 17 0;
#X connect 1 0 3 0;
#X connect 2 0 11 0;
#X connect 3 0 2 1;
#X connect 4 0 0 0;
#X connect 5 0 8 0;
#X connect 5 0 17 1;
#X connect 5 0 18 1;
#X connect 6 0 18 0;
#X connect 7 0 5 0;
#X connect 7 0 9 1;
#X connect 7 1 17 2;
#X connect 8 0 1 0;
#X connect 9 0 16 0;
#X connect 11 0 10 0;
#X connect 13 0 4 0;
#X connect 14 0 4 1;
#X connect 15 0 7 0;
#X connect 16 0 2 0;
#X connect 17 0 9 0;
#X connect 17 1 6 0;
#X connect 18 0 1 0;
#X connect 18 1 12 0;
#X restore 276 400 pd singleup2;
#X obj 301 151 spigot 0;
#X obj 433 66 inlet;
#N canvas 27 50 1242 820 singledown2 0;
#X obj 271 348 bng 15 250 50 0 empty empty empty 17 7 0 10 -262144
-1 -1;
#X floatatom 422 282 5 0 0 0 - - -;
#X floatatom 484 494 5 0 0 0 - - -;
#X obj 306 623 + 0;
#X obj 485 513 * 12;
#X obj 298 304 spigot;
#X obj 378 338 sel 0;
#X obj 396 437 bng 15 250 50 0 empty empty empty 17 7 0 10 -262144
-1 -1;
#X obj 422 301 t f f;
#X msg 506 462 0;
#X obj 247 467 % 1;
#X obj 487 756 outlet;
#X obj 307 659 - 24;
#X obj 678 572 outlet;
#X obj 327 176 inlet;
#X obj 410 225 r \$0-num-down;
#X obj 420 255 r \$0-num-down;
#X obj 234 517 tabread \$0-notes-increasing;
#X obj 255 394 counter-down 0 \$1;
#X obj 480 427 counter-down 2 \$1;
#X connect 0 0 18 0;
#X connect 1 0 8 0;
#X connect 2 0 4 0;
#X connect 3 0 12 0;
#X connect 4 0 3 1;
#X connect 5 0 0 0;
#X connect 6 0 9 0;
#X connect 6 0 18 1;
#X connect 6 0 19 1;
#X connect 7 0 19 0;
#X connect 8 0 6 0;
#X connect 8 0 10 1;
#X connect 8 1 18 2;
#X connect 9 0 2 0;
#X connect 10 0 17 0;
#X connect 12 0 11 0;
#X connect 14 0 5 0;
#X connect 15 0 5 1;
#X connect 16 0 1 0;
#X connect 17 0 3 0;
#X connect 18 0 10 0;
#X connect 18 1 7 0;
#X connect 19 0 2 0;
#X connect 19 1 13 0;
#X restore 411 403 pd singledown2;
#X obj 462 194 tgl 15 0 empty empty empty 17 7 0 10 -262144 -1 -1 0
1;
#X obj 463 133 tgl 15 0 empty empty empty 17 7 0 10 -262144 -1 -1 1
1;
#X obj 463 153 ==;
#X obj 314 243 spigot 0;
#X obj 230 240 spigot 1;
#X obj 544 93 sel 0;
#X msg 544 115 1;
#X obj 544 71 r \$0-num-down;
#X obj 242 54 r \$0-tick;
#X connect 1 0 0 0;
#X connect 1 1 6 0;
#X connect 2 0 9 0;
#X connect 2 0 8 0;
#X connect 3 0 2 1;
#X connect 4 0 0 0;
#X connect 4 1 6 0;
#X connect 5 0 8 1;
#X connect 6 0 7 0;
#X connect 6 0 9 1;
#X connect 7 0 5 0;
#X connect 8 0 4 0;
#X connect 9 0 1 0;
#X connect 10 0 11 0;
#X connect 11 0 6 0;
#X connect 12 0 10 0;
#X connect 13 0 2 0;
#X restore 779 437 pd updown2;
#X obj 567 132 i;
#X obj 324 566 pack 0 0, f 16;
#X obj 324 514 f;
#X obj 324 539 makenote 100 100;
#X obj 567 176 s \$0-decay;
#X obj 433 512 r \$0-decay;
#X obj 322 107 r loadbang-\$1;
#X obj 50 129 t b b;
#X obj 118 172 s resort-\$1;
#X text 7 249 send a re-sort first to check if there have been note
updates;
#X obj 52 49 inlet clock;
#X obj 251 15 inlet pattern;
#X obj 543 23 inlet length;
#X obj 324 597 outlet notes;
#X obj 44 170 s \$0-tick;
#X connect 0 0 22 0;
#X connect 1 0 4 0;
#X connect 1 1 5 0;
#X connect 1 2 6 0;
#X connect 1 3 7 0;
#X connect 1 4 13 0;
#X connect 1 5 14 0;
#X connect 1 6 15 0;
#X connect 1 7 16 0;
#X connect 2 0 1 0;
#X connect 2 1 3 0;
#X connect 3 0 11 0;
#X connect 3 0 12 0;
#X connect 3 0 8 0;
#X connect 3 0 0 0;
#X connect 3 0 17 0;
#X connect 3 0 18 0;
#X connect 3 0 19 0;
#X connect 4 0 17 0;
#X connect 5 0 18 0;
#X connect 6 0 11 0;
#X connect 7 0 12 0;
#X connect 8 0 22 0;
#X connect 9 0 2 0;
#X connect 10 0 2 0;
#X connect 11 0 22 0;
#X connect 12 0 22 0;
#X connect 13 0 8 0;
#X connect 14 0 0 0;
#X connect 15 0 19 0;
#X connect 16 0 17 0;
#X connect 16 0 18 0;
#X connect 16 0 12 0;
#X connect 16 0 19 0;
#X connect 16 0 8 0;
#X connect 17 0 22 0;
#X connect 18 0 22 0;
#X connect 19 0 22 0;
#X connect 20 0 24 0;
#X connect 21 0 33 0;
#X connect 22 0 23 0;
#X connect 23 0 21 0;
#X connect 23 1 21 1;
#X connect 25 0 23 2;
#X connect 26 0 10 0;
#X connect 27 0 34 0;
#X connect 27 1 28 0;
#X connect 30 0 27 0;
#X connect 31 0 9 0;
#X connect 32 0 20 0;
#X restore 167 611 pd arp;
#X text 475 490 array squash pulls out 0 notes. this array gets clobbered
by the sorting function so it always looks blank;
#N canvas 640 236 533 527 countnotes 0;
#X obj 104 289 > 0;
#X obj 104 316 sel 1;
#X obj 158 352 + 1, f 4;
#X obj 110 353 f 0;
#X obj 141 130 until;
#X obj 142 174 f;
#X obj 174 173 + 1, f 4;
#X msg 319 198 0, f 2;
#X msg 142 105 8, f 2;
#X obj 89 395 f 0;
#X obj 89 458 outlet;
#X obj 83 200 t f f;
#X obj 36 244 sel 7;
#X obj 143 81 t b b;
#X obj 143 35 r \$0-countem;
#X obj 106 234 tabread \$0-notes-from-poly;
#X connect 0 0 1 0;
#X connect 1 0 3 0;
#X connect 2 0 3 1;
#X connect 2 0 9 1;
#X connect 3 0 2 0;
#X connect 4 0 5 0;
#X connect 5 0 6 0;
#X connect 5 0 11 0;
#X connect 6 0 5 1;
#X connect 7 0 5 1;
#X connect 7 0 3 1;
#X connect 7 0 9 1;
#X connect 8 0 4 0;
#X connect 9 0 10 0;
#X connect 11 0 12 0;
#X connect 11 1 15 0;
#X connect 12 0 9 0;
#X connect 13 0 8 0;
#X connect 13 1 7 0;
#X connect 14 0 13 0;
#X connect 15 0 0 0;
#X restore 624 360 pd countnotes;
#X obj 209 418 s \$0-others;
#X obj 326 417 s \$0-reorder;
#X obj 418 420 s \$0-copy;
#X obj 512 419 s \$0-countem;
#X obj 488 279 tabwrite \$0-notes-from-poly;
#X obj 624 412 s \$0-num-down;
#X obj 270 461 table \$0-notes-from-poly 8;
#X obj 270 495 table \$0-notes-squashed 8;
#X obj 269 529 table \$0-notes-decreasing 8;
#X obj 269 562 table \$0-notes-increasing 8;
#X obj 267 323 tgl 15 0 empty empty notes_changed 17 7 0 10 -262144
-1 -1 0 1;
#X msg 169 280 1;
#X obj 167 356 spigot 0;
#X obj 167 384 t b b b b b, f 54;
#X msg 167 417 0;
#X obj 167 327 r resort-\$1;
#X text 274 357 only re-sort once before we generate a new note;
#X obj 169 250 t b f, f 54;
#X obj 263 30 inlet notes;
#X obj 30 27 inlet clock;
#X obj 417 28 inlet pattern;
#X obj 656 34 inlet length;
#X obj 166 652 outlet;
#X text 504 28 select pattern 0-7;
#X text 739 34 note length;
#X text 105 26 0-360 beat clock;
#X text 633 199 organize notes into arrays \, then play them;
#X connect 0 0 8 0;
#X connect 0 1 8 1;
#X connect 1 0 9 0;
#X connect 2 0 33 0;
#X connect 2 1 20 1;
#X connect 6 0 21 0;
#X connect 8 0 1 0;
#X connect 8 1 1 1;
#X connect 8 2 1 2;
#X connect 9 0 2 0;
#X connect 13 0 38 0;
#X connect 15 0 6 0;
#X connect 26 0 28 1;
#X connect 27 0 26 0;
#X connect 28 0 29 0;
#X connect 29 0 30 0;
#X connect 29 1 16 0;
#X connect 29 2 17 0;
#X connect 29 3 18 0;
#X connect 29 4 19 0;
#X connect 30 0 26 0;
#X connect 31 0 28 0;
#X connect 33 0 27 0;
#X connect 33 1 20 0;
#X connect 34 0 0 0;
#X connect 35 0 13 0;
#X connect 36 0 13 1;
#X connect 37 0 13 2;
#X restore 589 835 pd arpseq;
#X text 541 209 send beat clock to the sequencer BEFORE arp;
#X msg 980 199 1;
#X obj 959 99 list;
#X obj 1267 55 r rackSavePreset;
#X obj 1115 201 print sequence;
#X obj 1274 196 print sequence;
#N canvas 100 596 803 448 presetDir 0;
#X obj 88 153 s rackMsgs;
#X obj 88 106 symbol \$1;
#X msg 88 128 getsetting currentPreset Defaut rackCurrentPreset-\$1
;
#X obj 88 181 r rackCurrentPreset;
#X obj 215 181 r rackCurrentPreset-\$1;
#X obj 87 215 symbol \$1;
#X obj 442 163 s rackMsgs;
#X obj 442 113 symbol \$1;
#X obj 204 50 r loadbang-\$1;
#X obj 442 186 r rackDataDir;
#X obj 535 189 r rackDataDir-\$1;
#X msg 442 138 getsetting dataDir ./data rackDataDir-\$1;
#X obj 441 219 symbol \$1;
#X obj 249 276 pack s s s;
#X obj 255 210 symbol \$1;
#X obj 205 76 t b b b;
#X obj 444 71 bng 15 250 50 0 empty empty empty 17 7 0 10 -262144 -1
-1;
#X obj 71 67 bng 15 250 50 0 empty empty empty 17 7 0 10 -262144 -1
-1;
#X obj 114 243 t b b s;
#X obj 255 232 t b s;
#X obj 111 387 outlet;
#X obj 219 386 outlet;
#X text 81 25 track preset directory and bang on change;
#X connect 1 0 2 0;
#X connect 2 0 0 0;
#X connect 3 0 5 0;
#X connect 4 0 5 0;
#X connect 5 0 18 0;
#X connect 7 0 11 0;
#X connect 8 0 15 0;
#X connect 9 0 12 0;
#X connect 10 0 12 0;
#X connect 11 0 6 0;
#X connect 12 0 13 0;
#X connect 13 0 21 0;
#X connect 14 0 19 0;
#X connect 15 0 1 0;
#X connect 15 1 14 0;
#X connect 15 2 7 0;
#X connect 16 0 7 0;
#X connect 17 0 1 0;
#X connect 18 0 20 0;
#X connect 18 1 13 0;
#X connect 18 2 13 1;
#X connect 19 0 13 0;
#X connect 19 1 13 2;
#X restore 962 37 pd presetDir;
#X msg 988 154 read \$1/presets/\$2/\$3-sequence.txt;
#X msg 1211 155 write \$1/presets/\$2/\$3-sequence.txt;
#N canvas 103 262 721 484 savePreset 0;
#X obj 343 124 r saveState;
#X obj 252 232 list;
#X obj 146 127 unpack s s s;
#X obj 251 167 pack s s s;
#X obj 272 127 symbol \$1;
#X obj 113 96 list;
#X obj 233 101 t b b a b;
#X obj 106 54 inlet;
#X obj 258 286 outlet;
#X obj 229 39 inlet;
#X connect 0 0 1 0;
#X connect 1 0 8 0;
#X connect 2 0 3 0;
#X connect 2 2 3 2;
#X connect 3 0 1 1;
#X connect 4 0 3 1;
#X connect 5 0 2 0;
#X connect 6 0 1 0;
#X connect 6 1 3 0;
#X connect 6 2 4 0;
#X connect 6 3 5 0;
#X connect 7 0 5 1;
#X connect 9 0 6 0;
#X restore 1192 83 pd savePreset;
#X obj 216 249 r arpseq-\$1-notes-in;
#X obj 576 885 s arpseq-\$1-notes-out;
#X obj 774 264 r arpseq-\$1-aux-in;
#X obj 696 429 r arpseq-\$1-tick;
#X obj 450 393 s arpseq-\$1-tick;
#X obj 332 677 r arpseq-\$1-tick;
#X obj 776 451 r arpseq-\$1-recenable;
#X obj 928 488 r arpseq-\$1-stop;
#X obj 1049 487 r arpseq-\$1-start;
#X obj 730 681 s arpseq-\$1-status;
#X obj 680 651 t a a;
#X obj 588 620 seq \$1;
#N canvas 84 99 1493 885 seq-button-control 0;
#X obj 232 262 f;
#X obj 232 209 sel 1;
#X floatatom 42 271 5 0 0 0 - - -;
#X obj 42 302 sel 1;
#X obj 42 328 bng 15 250 50 0 empty empty empty 17 7 0 10 -262144 -1
-1;
#X obj 42 475 sel 0 1 2 3, f 54;
#X obj 42 550 t b b;
#X msg 74 585 1;
#X obj 135 526 t b b;
#X msg 159 547 0;
#X msg 315 334 2;
#X obj 217 169 t f f;
#X obj 232 288 sel 1;
#X obj 284 262 bng 15 250 50 0 empty empty empty 17 7 0 10 -262144
-1 -1;
#X obj 229 527 t b b;
#X msg 273 557 0;
#X obj 323 530 t b b b;
#X msg 406 556 1;
#X obj 232 316 t b b b;
#X msg 791 265 Sequencer: Playing;
#X msg 939 265 Sequencer: Stopped;
#X msg 1094 265 Sequencer: Enabled;
#X msg 1248 264 Sequencer: Recording;
#X text 662 62 states are: 0 = stopped \, 1 = playing \, 2 = rec enabled
\, 3 = recording, f 70;
#X text 825 151 Controls LED & Screen Infomation:;
#X obj 232 234 del 500;
#X text 19 10 Controls State With Aux Button;
#X obj 611 540 t b b;
#X obj 674 634 sel 0 1 2 3, f 33;
#X obj 674 586 delay 100;
#X text 675 543 Flashes LED at loop & sets color after sequence stop
;
#X msg 674 661 0;
#X msg 788 661 6;
#X msg 611 584 7;
#X obj 46 33 inlet;
#X msg 947 289 0;
#X msg 1097 291 6;
#X obj 975 383 s aux-label-\$1;
#X obj 1159 380 s aux-led-\$1;
#X obj 42 361 v arpseq-\$1-state;
#X obj 255 381 s arpseq-\$1-stop;
#X obj 315 356 v arpseq-\$1-state;
#X obj 232 408 s arpseq-\$1-recenable;
#X obj 42 659 s arpseq-\$1-start;
#X obj 81 608 v arpseq-\$1-state;
#X obj 135 627 s arpseq-\$1-stop;
#X obj 159 569 v arpseq-\$1-state;
#X obj 241 624 s arpseq-\$1-stop;
#X obj 273 579 v arpseq-\$1-state;
#X obj 347 631 s arpseq-\$1-start;
#X obj 370 603 s arpseq-\$1-end_seq;
#X obj 406 578 v arpseq-\$1-state;
#X obj 791 179 r arpseq-\$1-start;
#X obj 939 182 r arpseq-\$1-stop;
#X obj 1094 180 r arpseq-\$1-recenable;
#X obj 1248 179 r arpseq-\$1-record;
#X obj 674 703 s aux-led-\$1;
#X obj 674 610 v arpseq-\$1-state;
#X obj 598 179 r arpseq-\$1-status;
#X obj 665 345 t b;
#X obj 665 345;
#X obj 665 324 route end rec;
#X obj 714 402 t b b;
#X obj 753 460 v arpseq-\$1-state;
#X msg 746 437 3;
#X obj 714 511 s arpseq-\$1-record;
#X floatatom 935 675 5 0 0 0 - - -;
#X msg 731 660 4;
#X msg 845 661 3;
#X msg 1239 298 3;
#X msg 831 305 4;
#X obj 508 37 inlet start;
#X obj 474 195 t b b;
#X msg 506 230 1;
#X obj 474 304 s arpseq-\$1-start;
#X obj 513 253 v arpseq-\$1-state;
#X text 328 274 press and hold;
#X obj 674 36 inlet stop;
#X connect 0 0 12 0;
#X connect 1 0 25 0;
#X connect 2 0 3 0;
#X connect 3 0 4 0;
#X connect 4 0 39 0;
#X connect 5 0 6 0;
#X connect 5 1 8 0;
#X connect 5 2 14 0;
#X connect 5 3 16 0;
#X connect 6 0 43 0;
#X connect 6 1 7 0;
#X connect 7 0 44 0;
#X connect 8 0 45 0;
#X connect 8 1 9 0;
#X connect 9 0 46 0;
#X connect 10 0 41 0;
#X connect 11 0 1 0;
#X connect 11 1 0 1;
#X connect 12 0 18 0;
#X connect 14 0 47 0;
#X connect 14 1 15 0;
#X connect 15 0 48 0;
#X connect 16 0 49 0;
#X connect 16 1 50 0;
#X connect 16 2 17 0;
#X connect 17 0 51 0;
#X connect 18 0 42 0;
#X connect 18 1 40 0;
#X connect 18 2 10 0;
#X connect 19 0 37 0;
#X connect 20 0 37 0;
#X connect 21 0 37 0;
#X connect 22 0 37 0;
#X connect 25 0 0 0;
#X connect 25 0 13 0;
#X connect 27 0 33 0;
#X connect 27 1 29 0;
#X connect 28 0 31 0;
#X connect 28 1 67 0;
#X connect 28 2 32 0;
#X connect 28 3 68 0;
#X connect 29 0 57 0;
#X connect 31 0 56 0;
#X connect 32 0 56 0;
#X connect 33 0 56 0;
#X connect 34 0 2 0;
#X connect 34 0 11 0;
#X connect 35 0 38 0;
#X connect 36 0 38 0;
#X connect 39 0 5 0;
#X connect 52 0 19 0;
#X connect 52 0 70 0;
#X connect 53 0 20 0;
#X connect 53 0 35 0;
#X connect 54 0 21 0;
#X connect 54 0 36 0;
#X connect 55 0 22 0;
#X connect 55 0 69 0;
#X connect 57 0 28 0;
#X connect 58 0 61 0;
#X connect 59 0 27 0;
#X connect 61 0 59 0;
#X connect 61 0 60 0;
#X connect 61 1 62 0;
#X connect 62 0 65 0;
#X connect 62 1 64 0;
#X connect 64 0 63 0;
#X connect 66 0 56 0;
#X connect 67 0 56 0;
#X connect 68 0 56 0;
#X connect 69 0 38 0;
#X connect 70 0 38 0;
#X connect 71 0 72 0;
#X connect 72 0 74 0;
#X connect 72 1 73 0;
#X connect 73 0 75 0;
#X connect 77 0 8 0;
#X restore 823 334 pd seq-button-control;
#X obj 980 221 s arpseq-\$1-something-recorded;
#N canvas 4 50 1208 761 clock-div 0;
#X obj 134 149 t b f;
#X obj 271 391 t b;
#X obj 175 357 t b;
#X obj 175 323 sel 0;
#X obj 454 388 t b;
#X obj 454 354 sel 0 120 240;
#X obj 576 400 t b;
#X obj 219 234 route 1 2 3 4 5, f 99;
#X obj 805 387 t b;
#X obj 802 350 sel 0 72 144 216 288;
#X obj 575 352 sel 0 180;
#X obj 638 351 sel 90;
#X obj 683 352 sel 270;
#X obj 271 357 sel 0;
#X obj 309 391 t b;
#X obj 309 357 sel 180;
#X obj 454 141 * 90;
#X obj 454 177 + 180;
#X obj 454 105 / 100;
#X obj 454 203 i;
#X obj 614 139 * 45;
#X obj 615 201 i;
#X obj 657 200 i;
#X obj 615 175 + 90;
#X obj 657 174 + 270;
#X obj 454 75 inlet;
#X obj 302 84 inlet;
#X obj 57 55 inlet;
#X text 105 50 0-359 beat clock;
#X text 287 52 beat div 1-4;
#X obj 206 209 pack 4 0;
#X text 505 53 swing percent \, only applied to beat div 2 and 4;
#X obj 264 626 outlet;
#X text 327 630 ticks out;
#X obj 123 116 i;
#X obj 160 184 i;
#X connect 0 0 35 0;
#X connect 0 1 30 1;
#X connect 1 0 32 0;
#X connect 2 0 32 0;
#X connect 3 0 2 0;
#X connect 4 0 32 0;
#X connect 5 0 4 0;
#X connect 5 1 4 0;
#X connect 5 2 4 0;
#X connect 6 0 32 0;
#X connect 7 0 3 0;
#X connect 7 1 13 0;
#X connect 7 1 15 0;
#X connect 7 2 5 0;
#X connect 7 3 10 0;
#X connect 7 3 11 0;
#X connect 7 3 12 0;
#X connect 7 4 9 0;
#X connect 8 0 32 0;
#X connect 9 0 8 0;
#X connect 9 1 8 0;
#X connect 9 2 8 0;
#X connect 9 3 8 0;
#X connect 9 4 8 0;
#X connect 10 0 6 0;
#X connect 10 1 6 0;
#X connect 11 0 6 0;
#X connect 12 0 6 0;
#X connect 13 0 1 0;
#X connect 14 0 32 0;
#X connect 15 0 14 0;
#X connect 16 0 17 0;
#X connect 17 0 19 0;
#X connect 18 0 16 0;
#X connect 18 0 20 0;
#X connect 19 0 15 1;
#X connect 20 0 23 0;
#X connect 20 0 24 0;
#X connect 21 0 11 1;
#X connect 22 0 12 1;
#X connect 23 0 21 0;
#X connect 24 0 22 0;
#X connect 25 0 18 0;
#X connect 26 0 35 1;
#X connect 27 0 34 0;
#X connect 30 0 7 0;
#X connect 34 0 0 0;
#X connect 35 0 30 0;
#X restore 497 340 pd clock-div;
#X obj 506 274 r arpseq_beat-\$1;
#X obj 622 272 r arpseq_swing-\$1;
#X obj 1196 109 t l l;
#X obj 960 122 t l b l;
#N canvas 4 50 1048 617 save-recall-state 0;
#X obj 391 436 textfile;
#X msg 601 227 write \$1/presets/\$2/\$3-sequence-state.txt;
#X msg 883 220 clear;
#X obj 678 204 v arpseq-\$1-state;
#X obj 652 179 t l b b;
#X msg 642 263 add state \$1;
#X obj 327 490 i 0;
#X text 389 504 state = playing;
#X obj 327 516 sel 1;
#X msg 299 262 read \$1/presets/\$2/\$3-sequence-state.txt;
#X msg 320 230 clear;
#X msg 269 286 rewind;
#X obj 355 459 route state;
#X obj 247 88 inlet recall;
#X obj 706 58 inlet save;
#X obj 327 543 outlet;
#X text 387 545 outlets a bang to playing if saved state matches play
;
#X obj 217 171 t b b b a b b;
#X obj 754 544 outlet;
#X text 811 538 first stop it;
#X connect 0 0 12 0;
#X connect 1 0 0 0;
#X connect 2 0 0 0;
#X connect 3 0 5 0;
#X connect 4 0 1 0;
#X connect 4 1 3 0;
#X connect 4 2 2 0;
#X connect 5 0 0 0;
#X connect 6 0 8 0;
#X connect 8 0 15 0;
#X connect 9 0 0 0;
#X connect 10 0 0 0;
#X connect 11 0 0 0;
#X connect 12 0 6 1;
#X connect 13 0 17 0;
#X connect 14 0 4 0;
#X connect 17 0 6 0;
#X connect 17 1 0 0;
#X connect 17 2 11 0;
#X connect 17 3 9 0;
#X connect 17 4 10 0;
#X connect 17 5 18 0;
#X restore 930 260 pd save-recall-state;
#X text 935 363 middle bang to start \, right bang to stop;
#X text 241 83 hmm figure out how to add latch;
#X obj 808 142 r global-start;
#X obj 850 168 r global-stop;
#X connect 1 0 39 2;
#X connect 2 0 39 2;
#X connect 3 0 39 1;
#X connect 4 0 39 2;
#X connect 5 0 17 1;
#X connect 10 0 11 0;
#X connect 11 0 12 2;
#X connect 11 1 2 0;
#X connect 12 0 3 0;
#X connect 13 0 42 0;
#X connect 13 1 39 0;
#X connect 14 0 13 0;
#X connect 15 0 17 3;
#X connect 16 0 17 2;
#X connect 17 0 29 0;
#X connect 19 0 41 0;
#X connect 20 0 46 0;
#X connect 21 0 27 1;
#X connect 24 0 20 0;
#X connect 24 1 20 1;
#X connect 24 1 27 0;
#X connect 25 0 22 0;
#X connect 25 0 39 2;
#X connect 26 0 23 0;
#X connect 26 0 39 2;
#X connect 27 0 45 0;
#X connect 28 0 12 0;
#X connect 28 0 17 1;
#X connect 30 0 40 0;
#X connect 31 0 12 1;
#X connect 33 0 17 0;
#X connect 34 0 10 0;
#X connect 35 0 1 0;
#X connect 36 0 4 0;
#X connect 38 0 5 1;
#X connect 38 1 37 0;
#X connect 39 0 5 0;
#X connect 39 1 38 0;
#X connect 42 0 32 0;
#X connect 43 0 42 1;
#X connect 44 0 42 2;
#X connect 45 0 47 1;
#X connect 45 1 26 0;
#X connect 46 0 47 0;
#X connect 46 1 19 0;
#X connect 46 2 25 0;
#X connect 47 1 40 2;
#X connect 50 0 40 1;
#X connect 51 0 40 2;
#X restore 304 341 pd sequencer;
#X obj 651 222 r ctrlIn-\$1;
#X obj 651 249 s ctrlOut-\$1;
#X obj 304 207 list split 2;
#X obj 304 463 list append 0;
#X obj 304 293 s arpseq-\$1-notes-in;
#X obj 487 288 s arpseq-\$1-aux-in;
#X obj 304 442 r arpseq-\$1-notes-out;
#X obj 411 45 s arpseq-\$1-enable;
#X connect 0 0 13 0;
#X connect 2 0 18 0;
#X connect 7 0 16 0;
#X connect 13 0 15 0;
#X connect 14 0 1 0;
#X connect 17 0 14 0;
