#N canvas 288 94 1491 737 10;
#X obj 304 186 r notesIn-\$1;
#X obj 299 491 s notesOut-\$1;
#X obj 25 186 inlet~ inL-\$1;
#X obj 135 186 inlet~ inR-\$1;
#X obj 27 491 outlet~ outL-\$1;
#X obj 136 491 outlet~ outR-\$1;
#X obj 464 185 r auxIn-\$1;
#X obj 603 178 r expIn-\$1;
#X obj 603 203 r fsIn-\$1;
#N canvas 134 82 1694 962 sequencer 1;
#X obj 469 444 tgl 15 0 empty empty empty 17 7 0 10 -262144 -1 -1 0
1;
#N canvas 270 72 1049 972 seqplayer 0;
#X obj 329 631 t b f;
#X obj 208 219 stripnote;
#X obj 92 75 tgl 15 0 empty empty empty 17 7 0 10 -262144 -1 -1 1 1
;
#X obj 360 673 == 15;
#X obj 490 872 + 60;
#X obj 490 921 pack 0 100;
#X obj 275 61 inlet;
#X obj 92 50 inlet;
#X obj 590 71 inlet;
#X obj 495 550 - 1;
#X obj 490 942 outlet;
#X obj 820 77 inlet;
#X text 84 18 enable;
#X text 327 63 note;
#X text 592 47 length;
#X obj 326 179 unpack;
#X obj 357 452 tgl 15 0 empty empty empty 17 7 0 10 -262144 -1 -1 0
1;
#X obj 275 298 f;
#X obj 345 242 sel 0;
#X obj 374 264 bang;
#X msg 375 287 1;
#X obj 208 176 t a a;
#X obj 331 208 swap;
#X obj 330 292 f;
#X obj 300 269 t b b;
#X obj 298 322 ==;
#X obj 490 897 - 60;
#X obj 444 825 moses 1;
#X text 517 846 filter out notes that are 0;
#X obj 444 765 t f f, f 14;
#X obj 557 796 tabread \$0-seqvel;
#X obj 444 797 tabread \$0-seq;
#X obj 313 599 counter-up 16 \$1;
#X floatatom 168 489 5 0 0 0 - - -;
#X obj 307 523 spigot 0;
#X obj 313 570 t b;
#X obj 222 349 sel 0;
#X msg 222 370 0;
#X text 213 488 transpose;
#X text 867 74 tick, f 6;
#X obj 213 144 spigot 0;
#X obj 332 404 f;
#X obj 265 843 s \$0-end;
#X obj 303 745 sel 1;
#X obj 331 332 r \$0-end;
#X text 361 354 let if finish;
#X obj 281 344 sel 1;
#X msg 294 373 0;
#X obj 208 251 t f f b;
#X connect 0 1 3 0;
#X connect 0 1 29 0;
#X connect 1 0 48 0;
#X connect 2 0 36 0;
#X connect 2 0 40 1;
#X connect 3 0 43 0;
#X connect 4 0 26 0;
#X connect 5 0 10 0;
#X connect 6 0 40 0;
#X connect 7 0 2 0;
#X connect 8 0 9 0;
#X connect 8 0 32 2;
#X connect 9 0 3 1;
#X connect 11 0 34 0;
#X connect 15 0 22 0;
#X connect 15 1 22 1;
#X connect 16 0 34 1;
#X connect 17 0 25 0;
#X connect 18 0 24 0;
#X connect 18 1 19 0;
#X connect 19 0 20 0;
#X connect 20 0 16 0;
#X connect 20 0 41 1;
#X connect 21 0 1 0;
#X connect 21 1 15 0;
#X connect 22 0 18 0;
#X connect 22 1 23 1;
#X connect 23 0 25 1;
#X connect 24 0 17 0;
#X connect 24 1 23 0;
#X connect 25 0 46 0;
#X connect 26 0 5 0;
#X connect 27 1 4 0;
#X connect 29 0 31 0;
#X connect 29 1 30 0;
#X connect 30 0 5 1;
#X connect 31 0 27 0;
#X connect 32 0 0 0;
#X connect 33 0 4 1;
#X connect 34 0 35 0;
#X connect 35 0 32 0;
#X connect 36 0 37 0;
#X connect 37 0 16 0;
#X connect 40 0 21 0;
#X connect 41 0 16 0;
#X connect 43 0 42 0;
#X connect 44 0 41 0;
#X connect 46 0 47 0;
#X connect 47 0 41 1;
#X connect 48 0 17 1;
#X connect 48 1 33 0;
#X connect 48 2 32 1;
#X restore 133 522 pd seqplayer;
#X obj 41 413 tgl 15 0 empty empty empty 17 7 0 10 -262144 -1 -1 1
1;
#N canvas 708 386 1208 658 states 0;
#X obj 209 279 f;
#X obj 209 226 sel 1;
#X obj 131 242 sel 1;
#X obj 209 186 t f f, f 12;
#X obj 209 305 sel 1;
#X text 537 82 Controls LED & Screen Infomation:;
#X obj 209 251 del 500;
#X text 104 4 Controls State With Aux Button;
#X msg 622 216 1;
#X msg 209 339 1;
#X msg 222 450 0;
#X obj 131 415 sel 0 1 2, f 27;
#X text 528 11 states are: 0 = play mode \, 1 = punch in \, 2 = play
w latch, f 70;
#X obj 530 172 sel 0 1 2, f 53;
#X msg 131 458 2;
#X msg 311 465 0;
#X msg 539 220 0;
#X msg 862 227 2;
#X msg 530 301 Aux: Play Mode;
#X msg 714 293 Aux: Punch Mode;
#X msg 894 303 Aux: Play Mode Latch;
#X obj 131 27 r punchy-\$1-aux-in;
#X obj 209 367 s \$0-state;
#X obj 131 301 v \$0-state;
#X obj 403 198 r \$0-state;
#X obj 402 220 v \$0-state;
#X obj 530 130 r \$0-state;
#X obj 131 489 s \$0-state;
#X obj 222 490 s \$0-state;
#X obj 309 500 s \$0-state;
#X obj 539 244 s punchy-\$1-led;
#X obj 863 252 s punchy-\$1-led;
#X obj 656 256 s punchy-\$1-led;
#X obj 634 387 s punchy-\$1-aux-label;
#X connect 0 0 4 0;
#X connect 1 0 6 0;
#X connect 2 0 23 0;
#X connect 3 0 1 0;
#X connect 3 1 0 1;
#X connect 4 0 9 0;
#X connect 6 0 0 0;
#X connect 8 0 32 0;
#X connect 9 0 22 0;
#X connect 10 0 28 0;
#X connect 11 0 14 0;
#X connect 11 1 10 0;
#X connect 11 2 15 0;
#X connect 13 0 16 0;
#X connect 13 0 18 0;
#X connect 13 1 8 0;
#X connect 13 1 19 0;
#X connect 13 2 17 0;
#X connect 13 2 20 0;
#X connect 14 0 27 0;
#X connect 15 0 29 0;
#X connect 16 0 30 0;
#X connect 17 0 31 0;
#X connect 18 0 33 0;
#X connect 19 0 33 0;
#X connect 20 0 33 0;
#X connect 21 0 3 0;
#X connect 21 0 2 0;
#X connect 23 0 11 0;
#X connect 24 0 25 0;
#X connect 26 0 13 0;
#X restore 1188 26 pd states;
#X msg 469 409 0;
#X msg 505 410 1;
#X msg 41 369 1;
#X msg 87 370 0;
#X obj 469 366 sel 0 1 2;
#X obj 41 336 sel 0 1 2;
#X msg 131 369 1;
#X msg 540 409 0;
#X obj 1195 203 t f b;
#X obj 133 643 makenote 100 100;
#X text 1260 27 states are: 0 = play mode \, 1 = punch in \, 2 = play
w latch, f 70;
#N canvas 39 50 919 857 seqpuncher 0;
#X obj 220 132 tgl 15 0 empty empty empty 17 7 0 10 -262144 -1 -1 0
1;
#X obj 351 334 spigot 0;
#X obj 401 264 t f b;
#X obj 444 566 sel 1;
#X obj 321 169 t f f;
#X obj 321 138 stripnote;
#X obj 444 627 outlet;
#X obj 321 107 inlet;
#X obj 220 103 inlet;
#X text 544 263 writes notes to sequence;
#X text 508 577 bang at end, f 12;
#X obj 654 136 inlet;
#X obj 556 421 - 1;
#X text 647 104 len;
#X obj 631 618 outlet;
#X text 674 593 len, f 4;
#X obj 631 589 + 1;
#X obj 145 465 f;
#X obj 338 443 t b f b;
#X obj 188 778 outlet;
#X obj 188 731 swap;
#X obj 188 753 pack;
#X obj 391 628 + 1;
#X obj 251 547 tabwrite \$0-seq;
#X obj 82 639 tabwrite \$0-seqvel;
#X msg 391 659 Punching \$1;
#X obj 391 692 s punchy-\$1-aux-label;
#X obj 143 343 r punchy_velo-\$1;
#X obj 399 480 counter-up 64 \$1;
#X obj 444 540 == 63;
#X connect 0 0 2 0;
#X connect 1 0 18 0;
#X connect 2 0 1 1;
#X connect 2 1 28 1;
#X connect 3 0 6 0;
#X connect 4 0 1 0;
#X connect 5 0 4 0;
#X connect 7 0 5 0;
#X connect 8 0 0 0;
#X connect 11 0 12 0;
#X connect 11 0 28 2;
#X connect 12 0 29 1;
#X connect 16 0 14 0;
#X connect 17 0 20 0;
#X connect 17 0 24 0;
#X connect 18 0 17 0;
#X connect 18 1 20 1;
#X connect 18 1 23 0;
#X connect 18 2 28 0;
#X connect 20 0 21 0;
#X connect 20 1 21 1;
#X connect 21 0 19 0;
#X connect 22 0 25 0;
#X connect 25 0 26 0;
#X connect 27 0 17 1;
#X connect 28 0 16 0;
#X connect 28 0 22 0;
#X connect 28 0 23 1;
#X connect 28 0 24 1;
#X connect 28 0 29 0;
#X connect 29 0 3 0;
#X restore 469 491 pd seqpuncher;
#X text 1366 352 seq saving and recalling;
#X text 1161 70 up to 32 notes long \, len is stashed as last entry
;
#X text 1132 155 stash length as last entry;
#X obj 133 611 unpack, f 8;
#X obj 133 668 pack, f 16;
#X obj 133 700 s punchy-\$1-notes-out;
#X obj 187 462 r \$0-len;
#N canvas 757 99 886 799 latch 0;
#X obj 43 421 latch-notes;
#X obj 263 252 tgl 15 0 empty empty empty 17 7 0 10 -262144 -1 -1 0
1;
#X obj 123 368 spigot 1;
#X obj 43 368 spigot 0;
#X obj 263 278 == 0;
#X obj 263 368 sel 0 1;
#X obj 263 134 inlet;
#X obj 43 626 outlet;
#X obj 43 106 inlet;
#X text 44 53 incoming notes get sent through latch if enabled \, or
directly to output if disabled;
#X text 323 367 Update Screen & LED;
#X msg 286 458 Aux: Latch OFF \;;
#X msg 263 579 Aux: Latch ON \;;
#X text 311 135 1-0 enable / disables latch;
#X obj 263 160 t f b, f 7;
#X obj 309 314 b;
#X msg 298 408 0;
#X msg 289 534 2;
#X obj 448 672 s punchy-\$1-aux-label, f 27;
#X obj 385 559 s punchy-\$1-led;
#X connect 0 0 7 0;
#X connect 1 0 4 0;
#X connect 1 0 3 1;
#X connect 2 0 7 0;
#X connect 3 0 0 0;
#X connect 4 0 2 1;
#X connect 4 0 5 0;
#X connect 5 0 12 0;
#X connect 5 0 17 0;
#X connect 5 1 11 0;
#X connect 5 1 16 0;
#X connect 6 0 14 0;
#X connect 8 0 3 0;
#X connect 8 0 2 0;
#X connect 11 0 18 0;
#X connect 12 0 18 0;
#X connect 14 0 1 0;
#X connect 14 1 15 0;
#X connect 15 0 0 1;
#X connect 16 0 19 0;
#X connect 17 0 19 0;
#X restore 160 408 pd latch;
#X msg 275 318 0;
#X obj 229 284 sel 0 1 2;
#X msg 316 320 1;
#X msg 229 317 0;
#X obj 229 358 tgl 15 0 empty empty empty 17 7 0 10 -262144 -1 -1 0
1;
#X obj 229 262 r \$0-state;
#X obj 41 314 r \$0-state;
#X obj 477 519 s \$0-state;
#X obj 557 520 s \$0-len;
#X obj 469 335 r \$0-state;
#X obj 1195 177 r \$0-len;
#X obj 1180 260 tabwrite \$0-seq;
#X obj 222 615 r punchy_length-\$1;
#X obj 1160 95 table \$0-seq 65;
#X obj 1161 119 table \$0-seqvel 65;
#X msg 1231 228 64;
#X obj 1031 397 list;
#X msg 1095 595 read \$1/presets/\$2/\$3-punchy-seqvel.txt;
#X msg 1351 510 write \$1/presets/\$2/\$3-punchy-seq.txt;
#X msg 1351 593 write \$1/presets/\$2/\$3-punchy-seqvel.txt;
#X msg 1096 491 read \$1/presets/\$2/\$3-punchy-seq.txt;
#X obj 1255 571 s \$0-seq;
#X obj 1228 642 s \$0-seqvel;
#X obj 1302 328 r rackSavePreset;
#N canvas 100 635 803 448 presetDir 0;
#X obj 88 153 s rackMsgs;
#X obj 88 106 symbol \$1;
#X msg 88 128 getsetting currentPreset Defaut rackCurrentPreset-\$1
;
#X obj 88 181 r rackCurrentPreset;
#X obj 215 181 r rackCurrentPreset-\$1;
#X obj 87 215 symbol \$1;
#X obj 442 163 s rackMsgs;
#X obj 442 113 symbol \$1;
#X obj 204 50 r loadbang-\$1;
#X obj 442 186 r rackDataDir;
#X obj 535 189 r rackDataDir-\$1;
#X msg 442 138 getsetting dataDir ./data rackDataDir-\$1;
#X obj 441 219 symbol \$1;
#X obj 249 276 pack s s s;
#X obj 255 210 symbol \$1;
#X obj 205 76 t b b b;
#X obj 444 71 bng 15 250 50 0 empty empty empty 17 7 0 10 -262144 -1
-1;
#X obj 71 67 bng 15 250 50 0 empty empty empty 17 7 0 10 -262144 -1
-1;
#X obj 114 243 t b b s;
#X obj 255 232 t b s;
#X obj 111 387 outlet;
#X obj 219 386 outlet;
#X text 81 25 track preset directory and bang on change;
#X connect 1 0 2 0;
#X connect 2 0 0 0;
#X connect 3 0 5 0;
#X connect 4 0 5 0;
#X connect 5 0 18 0;
#X connect 7 0 11 0;
#X connect 8 0 15 0;
#X connect 9 0 12 0;
#X connect 10 0 12 0;
#X connect 11 0 6 0;
#X connect 12 0 13 0;
#X connect 13 0 21 0;
#X connect 14 0 19 0;
#X connect 15 0 1 0;
#X connect 15 1 14 0;
#X connect 15 2 7 0;
#X connect 16 0 7 0;
#X connect 17 0 1 0;
#X connect 18 0 20 0;
#X connect 18 1 13 0;
#X connect 18 2 13 1;
#X connect 19 0 13 0;
#X connect 19 1 13 2;
#X restore 1123 333 pd presetDir;
#N canvas 103 262 721 484 savePreset 0;
#X obj 343 124 r saveState;
#X obj 252 232 list;
#X obj 146 127 unpack s s s;
#X obj 251 167 pack s s s;
#X obj 272 127 symbol \$1;
#X obj 113 96 list;
#X obj 233 101 t b b a b;
#X obj 106 54 inlet;
#X obj 258 286 outlet;
#X obj 229 39 inlet;
#X connect 0 0 1 0;
#X connect 1 0 8 0;
#X connect 2 0 3 0;
#X connect 2 2 3 2;
#X connect 3 0 1 1;
#X connect 4 0 3 1;
#X connect 5 0 2 0;
#X connect 6 0 1 0;
#X connect 6 1 3 0;
#X connect 6 2 4 0;
#X connect 6 3 5 0;
#X connect 7 0 5 1;
#X connect 9 0 6 0;
#X restore 1234 393 pd savePreset;
#X obj 1050 525 tabread \$0-seq;
#X obj 1050 553 s \$0-len;
#X msg 1051 498 64;
#X text 1378 374 save when preset saved;
#X obj 399 -25 r beat-clock;
#X obj 317 355 r \$0-punchy-tick;
#X obj 541 223 s \$0-punchy-tick;
#X obj 195 -28 r punchy-\$1-notes-in;
#X obj 399 13 - 1;
#X obj 399 36 % 360;
#X text 439 26 back it up 1 tick to ensure upstream sequencers can
start;
#X obj 1240 765 textfile;
#X obj 265 109 t a a a;
#X obj 186 168 s \$0-note;
#X obj 399 60 t f f;
#X obj 464 89 s \$0-clock;
#X msg 1357 668 write \$1/presets/\$2/\$3-punchy-state.txt;
#X msg 983 672 read \$1/presets/\$2/\$3-punchy-state.txt;
#X obj 1306 844 s \$0-state;
#N canvas 195 108 850 568 save-state 0;
#X obj 380 326 v \$0-state;
#X obj 342 97 stripnote;
#X obj 342 69 r \$0-note;
#X obj 269 331 f;
#X msg 387 365 add state \$1;
#X msg 298 364 add clock \$1;
#X msg 214 362 add note \$1;
#X obj 281 223 t b b b b;
#X msg 477 365 clear;
#X obj 160 185 t a b;
#X obj 312 334 f;
#X obj 446 130 r \$0-clock;
#X obj 429 157 f;
#X obj 418 105 r \$0-punchy-tick;
#X obj 334 155 t f b;
#X msg 441 222 1;
#X obj 424 248 spigot 0;
#X obj 369 218 f;
#X obj 463 294 f;
#X obj 424 181 t b b f;
#X msg 402 222 0;
#X obj 424 269 t f b;
#X text 522 242 ok \, so when a note is pressd \, it gets recorded
when it is played., f 34;
#X obj 160 155 inlet;
#X obj 286 431 outlet;
#X text 163 25 save play state (play \, latch \, punch) \, clock of
last presed note \, and the note;
#X connect 0 0 4 0;
#X connect 1 0 14 0;
#X connect 2 0 1 0;
#X connect 3 0 6 0;
#X connect 4 0 24 0;
#X connect 5 0 24 0;
#X connect 6 0 24 0;
#X connect 7 0 3 0;
#X connect 7 1 10 0;
#X connect 7 2 0 0;
#X connect 7 3 8 0;
#X connect 8 0 24 0;
#X connect 9 0 24 0;
#X connect 9 1 7 0;
#X connect 10 0 5 0;
#X connect 11 0 12 1;
#X connect 12 0 19 0;
#X connect 13 0 12 0;
#X connect 14 0 17 1;
#X connect 14 1 15 0;
#X connect 15 0 16 1;
#X connect 16 0 21 0;
#X connect 17 0 16 0;
#X connect 18 0 10 1;
#X connect 19 0 20 0;
#X connect 19 1 17 0;
#X connect 19 2 18 1;
#X connect 20 0 16 1;
#X connect 21 0 3 1;
#X connect 21 1 18 0;
#X connect 23 0 9 0;
#X restore 1259 719 pd save-state;
#X obj 1238 417 t l l l;
#X obj 1184 843 s \$0-start-note;
#X obj 87 35 r \$0-start-note;
#N canvas 4 50 822 581 recall-state 0;
#X obj 260 62 route note clock state;
#X obj 313 329 sel, f 6;
#X obj 300 165 r \$0-clock;
#X obj 311 293 spigot 0;
#X msg 381 201 2;
#X obj 387 139 sel 2 0;
#X msg 423 200 0;
#X obj 451 169 t b;
#X msg 457 200 0;
#X msg 342 243 1;
#X obj 284 403 f;
#X msg 301 459 \$1 100;
#X obj 284 424 t f f;
#X msg 240 463 \$1 0;
#X msg 347 405 0;
#X obj 375 168 t b b;
#X obj 308 353 t b b;
#X text 352 459 kick it off;
#X obj 258 21 inlet;
#X obj 268 503 outlet;
#X obj 442 499 outlet;
#X text 497 165 only trigger a start note if saved in latch;
#X connect 0 0 10 1;
#X connect 0 1 1 1;
#X connect 0 2 5 0;
#X connect 1 0 16 0;
#X connect 2 0 3 0;
#X connect 3 0 1 0;
#X connect 4 0 20 0;
#X connect 5 0 15 0;
#X connect 5 1 6 0;
#X connect 5 2 7 0;
#X connect 6 0 20 0;
#X connect 7 0 8 0;
#X connect 8 0 20 0;
#X connect 9 0 3 1;
#X connect 10 0 12 0;
#X connect 11 0 19 0;
#X connect 12 0 13 0;
#X connect 12 1 11 0;
#X connect 13 0 19 0;
#X connect 14 0 3 1;
#X connect 15 0 9 0;
#X connect 15 1 4 0;
#X connect 16 0 10 0;
#X connect 16 1 14 0;
#X connect 18 0 0 0;
#X restore 1213 804 pd recall-state;
#X text 1339 799 save state \, start playing automatically if saved
with the latch on.;
#N canvas 4 50 483 417 read-state 0;
#X msg 172 178 rewind;
#X obj 98 277 outlet;
#X obj 85 47 inlet, f 18;
#X obj 86 149 t b b b b a b, f 37;
#X msg 275 185 clear;
#X connect 0 0 1 0;
#X connect 2 0 3 0;
#X connect 3 0 1 0;
#X connect 3 1 1 0;
#X connect 3 2 1 0;
#X connect 3 3 0 0;
#X connect 3 4 1 0;
#X connect 3 5 4 0;
#X connect 4 0 1 0;
#X restore 1023 709 pd read-state;
#X obj 559 115 r punchy_beat-\$1;
#X obj 1027 426 t l b b l l;
#X obj 1019 595 s \$0-state;
#X msg 1018 551 0;
#X obj 675 113 r punchy_swing-\$1;
#N canvas 4 50 1208 761 clock-div 0;
#X obj 134 149 t b f;
#X obj 271 391 t b;
#X obj 175 357 t b;
#X obj 175 323 sel 0;
#X obj 454 388 t b;
#X obj 454 354 sel 0 120 240;
#X obj 576 400 t b;
#X obj 219 234 route 1 2 3 4 5, f 99;
#X obj 805 387 t b;
#X obj 802 350 sel 0 72 144 216 288;
#X obj 575 352 sel 0 180;
#X obj 638 351 sel 90;
#X obj 683 352 sel 270;
#X obj 271 357 sel 0;
#X obj 309 391 t b;
#X obj 309 357 sel 180;
#X obj 454 141 * 90;
#X obj 454 177 + 180;
#X obj 454 105 / 100;
#X obj 454 203 i;
#X obj 614 139 * 45;
#X obj 615 201 i;
#X obj 657 200 i;
#X obj 615 175 + 90;
#X obj 657 174 + 270;
#X obj 454 75 inlet;
#X obj 302 84 inlet;
#X obj 57 55 inlet;
#X text 105 50 0-359 beat clock;
#X text 287 52 beat div 1-4;
#X obj 206 209 pack 4 0;
#X text 505 53 swing percent \, only applied to beat div 2 and 4;
#X obj 264 626 outlet;
#X text 327 630 ticks out;
#X obj 123 116 i;
#X obj 160 184 i;
#X connect 0 0 35 0;
#X connect 0 1 30 1;
#X connect 1 0 32 0;
#X connect 2 0 32 0;
#X connect 3 0 2 0;
#X connect 4 0 32 0;
#X connect 5 0 4 0;
#X connect 5 1 4 0;
#X connect 5 2 4 0;
#X connect 6 0 32 0;
#X connect 7 0 3 0;
#X connect 7 1 13 0;
#X connect 7 1 15 0;
#X connect 7 2 5 0;
#X connect 7 3 10 0;
#X connect 7 3 11 0;
#X connect 7 3 12 0;
#X connect 7 4 9 0;
#X connect 8 0 32 0;
#X connect 9 0 8 0;
#X connect 9 1 8 0;
#X connect 9 2 8 0;
#X connect 9 3 8 0;
#X connect 9 4 8 0;
#X connect 10 0 6 0;
#X connect 10 1 6 0;
#X connect 11 0 6 0;
#X connect 12 0 6 0;
#X connect 13 0 1 0;
#X connect 14 0 32 0;
#X connect 15 0 14 0;
#X connect 16 0 17 0;
#X connect 17 0 19 0;
#X connect 18 0 16 0;
#X connect 18 0 20 0;
#X connect 19 0 15 1;
#X connect 20 0 23 0;
#X connect 20 0 24 0;
#X connect 21 0 11 1;
#X connect 22 0 12 1;
#X connect 23 0 21 0;
#X connect 24 0 22 0;
#X connect 25 0 18 0;
#X connect 26 0 35 1;
#X connect 27 0 34 0;
#X connect 30 0 7 0;
#X connect 34 0 0 0;
#X connect 35 0 30 0;
#X restore 550 181 pd clock-div;
#X connect 0 0 15 0;
#X connect 1 0 19 0;
#X connect 2 0 1 0;
#X connect 4 0 0 0;
#X connect 5 0 0 0;
#X connect 6 0 2 0;
#X connect 7 0 2 0;
#X connect 8 0 4 0;
#X connect 8 1 5 0;
#X connect 8 2 11 0;
#X connect 9 0 6 0;
#X connect 9 1 7 0;
#X connect 9 2 10 0;
#X connect 10 0 2 0;
#X connect 11 0 0 0;
#X connect 12 0 35 0;
#X connect 12 1 39 0;
#X connect 13 0 20 0;
#X connect 13 1 20 1;
#X connect 15 0 19 0;
#X connect 15 1 31 0;
#X connect 15 2 32 0;
#X connect 19 0 13 0;
#X connect 19 1 13 1;
#X connect 20 0 21 0;
#X connect 22 0 1 2;
#X connect 23 0 1 1;
#X connect 24 0 28 0;
#X connect 25 0 27 0;
#X connect 25 1 24 0;
#X connect 25 2 26 0;
#X connect 26 0 28 0;
#X connect 27 0 28 0;
#X connect 28 0 23 1;
#X connect 29 0 25 0;
#X connect 30 0 9 0;
#X connect 33 0 8 0;
#X connect 34 0 12 0;
#X connect 36 0 13 2;
#X connect 39 0 35 1;
#X connect 40 0 77 0;
#X connect 41 0 46 0;
#X connect 42 0 45 0;
#X connect 43 0 46 0;
#X connect 44 0 45 0;
#X connect 47 0 49 1;
#X connect 48 0 40 0;
#X connect 48 1 49 0;
#X connect 48 1 40 1;
#X connect 49 0 70 0;
#X connect 50 0 51 0;
#X connect 52 0 50 0;
#X connect 54 0 58 0;
#X connect 55 0 1 3;
#X connect 57 0 62 0;
#X connect 58 0 59 0;
#X connect 59 0 64 0;
#X connect 61 0 73 0;
#X connect 62 0 63 0;
#X connect 62 1 23 0;
#X connect 62 2 15 1;
#X connect 64 0 81 0;
#X connect 64 1 65 0;
#X connect 66 0 69 0;
#X connect 67 0 75 0;
#X connect 69 0 61 0;
#X connect 70 0 66 0;
#X connect 70 1 43 0;
#X connect 70 2 42 0;
#X connect 72 0 62 0;
#X connect 73 0 71 0;
#X connect 73 1 68 0;
#X connect 75 0 61 0;
#X connect 76 0 81 1;
#X connect 77 0 67 0;
#X connect 77 1 79 0;
#X connect 77 2 52 0;
#X connect 77 3 41 0;
#X connect 77 4 44 0;
#X connect 79 0 78 0;
#X connect 80 0 81 2;
#X connect 81 0 56 0;
#X restore 301 337 pd sequencer;
#X obj 304 285 s punchy-\$1-notes-in;
#X obj 299 445 r punchy-\$1-notes-out;
#X obj 464 243 s punchy-\$1-aux-in;
#X obj 926 182 r punchy-\$1-led;
#X obj 760 182 r punchy-\$1-aux-label;
#X obj 760 203 s aux-label-\$1;
#X obj 926 203 s aux-led-\$1;
#X obj 304 207 list split 2;
#X obj 299 466 list append 0;
#X obj 587 295 r ctrlIn-\$1;
#X obj 587 390 s ctrlOut-\$1;
#X connect 0 0 17 0;
#X connect 6 0 12 0;
#X connect 11 0 18 0;
#X connect 13 0 16 0;
#X connect 14 0 15 0;
#X connect 17 0 10 0;
#X connect 18 0 1 0;
