#N canvas 1153 272 763 499 10;
#X obj 194 258 + 1, f 4;
#X obj 163 110 bng 15 250 50 0 empty empty empty 17 7 0 10 -262144
-1 -1;
#X obj 141 73 inlet;
#X obj 233 60 inlet;
#X obj 226 84 bng 15 250 50 0 empty empty empty 17 7 0 10 -262144 -1
-1;
#X obj 340 86 inlet;
#X text 36 17 simple counter;
#X text 121 48 increment;
#X text 234 39 reset;
#X text 352 408 bang when complete;
#X obj 187 428 outlet;
#X obj 195 296 expr if($f1 >= $f2 \, 0 \, $f1);
#X obj 400 133 f \$1;
#X floatatom 316 119 5 0 0 0 - - -;
#X text 349 51 max;
#X floatatom 149 392 5 0 0 0 - - -;
#X obj 309 435 outlet;
#X obj 194 226 f -1;
#X msg 225 111 -1;
#X obj 307 401 sel 0;
#X obj 194 354 t f f;
#X obj 405 103 r loadbang-\$2;
#X obj 532 78 inlet;
#X text 532 62 reset to number;
#X obj 532 106 - 1;
#X connect 0 0 11 0;
#X connect 1 0 17 0;
#X connect 2 0 1 0;
#X connect 3 0 4 0;
#X connect 4 0 18 0;
#X connect 5 0 12 0;
#X connect 11 0 17 1;
#X connect 11 0 15 0;
#X connect 11 0 20 0;
#X connect 12 0 11 1;
#X connect 13 0 12 0;
#X connect 17 0 0 0;
#X connect 18 0 17 1;
#X connect 19 0 16 0;
#X connect 20 0 10 0;
#X connect 20 1 19 0;
#X connect 21 0 12 0;
#X connect 22 0 24 0;
#X connect 24 0 17 1;
