#N canvas 268 160 1506 707 10;
#X obj 304 186 r notesIn-\$1;
#X obj 304 491 s notesOut-\$1;
#X obj 25 186 inlet~ inL-\$1;
#X obj 135 186 inlet~ inR-\$1;
#X obj 27 491 outlet~ outL-\$1;
#X obj 136 491 outlet~ outR-\$1;
#X obj 603 186 r auxIn-\$1;
#X obj 602 209 r expIn-\$1;
#X obj 602 234 r fsIn-\$1;
#N canvas 126 64 1758 905 sequencer 1;
#N canvas 670 69 450 300 press-n-hold 0;
#X obj 135 147 f;
#X obj 135 94 sel 1;
#X obj 120 54 t f f;
#X obj 135 173 sel 1;
#X obj 135 119 del 500;
#X obj 108 7 inlet;
#X obj 131 225 outlet;
#X text 184 17 aux button in;
#X text 200 213 bang if held for 1/2 second;
#X connect 0 0 3 0;
#X connect 1 0 4 0;
#X connect 2 0 1 0;
#X connect 2 1 0 1;
#X connect 3 0 6 0;
#X connect 4 0 0 0;
#X connect 5 0 2 0;
#X restore 906 139 pd press-n-hold;
#X text 126 519 check every quater note how many sounding;
#X msg 97 605 0;
#X obj 171 665 + 1;
#X obj 51 709 i, f 4;
#X obj 171 637 i 0;
#X obj 51 519 t b b b;
#X obj 77 741 s pb-\$1-number-playing-local;
#X obj 74 550 s pb-\$1-are-you-playing, f 21;
#X obj 171 590 r pb-\$1-i-am-playing;
#X obj 1019 217 s pb-\$1-cancel;
#X obj 631 158 s pb-\$1-note-len-local;
#X obj 480 110 s pb-\$1-div-local;
#X obj 862 638 spigot 0;
#X obj 903 333 r pb-\$1-notes-in;
#X obj 903 355 stripnote;
#X msg 903 403 1;
#X obj 478 191 s pb-\$1-vel-local;
#X obj 866 455 tgl 15 0 empty empty empty 17 7 0 10 -262144 -1 -1 0
1;
#X obj 839 137 sel 1;
#X obj 51 65 pb-notes 0 \$1;
#X obj 858 584 s pb-\$1-check-it;
#X obj 51 321 r pb-\$1-check-it;
#X obj 483 346 s pb-\$1-check-it;
#X text 450 252 when page changes print;
#X obj 445 301 del 100;
#X obj 478 147 r pb_note_vel-\$1;
#X obj 480 50 r pb_div-\$1;
#X obj 631 52 r pb_note_len-\$1;
#X obj 845 77 r auxIn-\$1;
#X msg 56 869 [ 4 ] Notes Latched;
#X obj 445 272 r loadbang-\$1;
#X obj 542 281 r page-ready-\$1;
#X obj 275 65 pb-notes 16 \$1;
#X obj 275 92 pb-notes 17 \$1;
#X obj 275 254 pb-notes 23 \$1;
#X obj 51 92 pb-notes 1 \$1;
#X obj 51 119 pb-notes 2 \$1;
#X obj 51 146 pb-notes 3 \$1;
#X obj 51 173 pb-notes 4 \$1;
#X obj 51 200 pb-notes 5 \$1;
#X obj 51 227 pb-notes 6 \$1;
#X obj 51 254 pb-notes 7 \$1;
#X obj 159 254 pb-notes 15 \$1;
#X obj 159 227 pb-notes 14 \$1;
#X obj 159 200 pb-notes 13 \$1;
#X obj 159 173 pb-notes 12 \$1;
#X obj 159 146 pb-notes 11 \$1;
#X obj 159 119 pb-notes 10 \$1;
#X obj 159 92 pb-notes 9 \$1;
#X obj 159 65 pb-notes 8 \$1;
#X obj 275 119 pb-notes 18 \$1;
#X obj 275 146 pb-notes 19 \$1;
#X obj 275 173 pb-notes 20 \$1;
#X obj 275 200 pb-notes 21 \$1;
#X obj 275 227 pb-notes 22 \$1;
#X obj 57 770 t b f;
#X msg 84 807 set [ \$1 ] Notes Latched \;;
#X obj 60 906 s aux-label-\$1;
#X obj 855 684 t f f;
#X obj 732 520 r beat-clock;
#N canvas 4 50 1208 761 clock-div 0;
#X obj 134 149 t b f;
#X obj 271 391 t b;
#X obj 175 357 t b;
#X obj 175 323 sel 0;
#X obj 454 388 t b;
#X obj 454 354 sel 0 120 240;
#X obj 576 400 t b;
#X obj 219 234 route 1 2 3 4 5, f 99;
#X obj 805 387 t b;
#X obj 802 350 sel 0 72 144 216 288;
#X obj 575 352 sel 0 180;
#X obj 638 351 sel 90;
#X obj 683 352 sel 270;
#X obj 271 357 sel 0;
#X obj 309 391 t b;
#X obj 309 357 sel 180;
#X obj 454 141 * 90;
#X obj 454 177 + 180;
#X obj 454 105 / 100;
#X obj 454 203 i;
#X obj 614 139 * 45;
#X obj 615 201 i;
#X obj 657 200 i;
#X obj 615 175 + 90;
#X obj 657 174 + 270;
#X obj 454 75 inlet;
#X obj 302 84 inlet;
#X obj 57 55 inlet;
#X text 105 50 0-359 beat clock;
#X text 287 52 beat div 1-4;
#X obj 206 209 pack 4 0;
#X text 505 53 swing percent \, only applied to beat div 2 and 4;
#X obj 264 626 outlet;
#X text 327 630 ticks out;
#X obj 123 116 i;
#X obj 160 184 i;
#X connect 0 0 35 0;
#X connect 0 1 30 1;
#X connect 1 0 32 0;
#X connect 2 0 32 0;
#X connect 3 0 2 0;
#X connect 4 0 32 0;
#X connect 5 0 4 0;
#X connect 5 1 4 0;
#X connect 5 2 4 0;
#X connect 6 0 32 0;
#X connect 7 0 3 0;
#X connect 7 1 13 0;
#X connect 7 1 15 0;
#X connect 7 2 5 0;
#X connect 7 3 10 0;
#X connect 7 3 11 0;
#X connect 7 3 12 0;
#X connect 7 4 9 0;
#X connect 8 0 32 0;
#X connect 9 0 8 0;
#X connect 9 1 8 0;
#X connect 9 2 8 0;
#X connect 9 3 8 0;
#X connect 9 4 8 0;
#X connect 10 0 6 0;
#X connect 10 1 6 0;
#X connect 11 0 6 0;
#X connect 12 0 6 0;
#X connect 13 0 1 0;
#X connect 14 0 32 0;
#X connect 15 0 14 0;
#X connect 16 0 17 0;
#X connect 17 0 19 0;
#X connect 18 0 16 0;
#X connect 18 0 20 0;
#X connect 19 0 15 1;
#X connect 20 0 23 0;
#X connect 20 0 24 0;
#X connect 21 0 11 1;
#X connect 22 0 12 1;
#X connect 23 0 21 0;
#X connect 24 0 22 0;
#X connect 25 0 18 0;
#X connect 26 0 35 1;
#X connect 27 0 34 0;
#X connect 30 0 7 0;
#X connect 34 0 0 0;
#X connect 35 0 30 0;
#X restore 930 818 pd clock-div;
#X obj 910 703 r pb_beat-\$1;
#X obj 994 705 r pb_swing-\$1;
#X obj 929 851 s pb-\$1-ticks;
#X obj 1464 669 textfile;
#X obj 903 380 t b;
#X obj 768 321 r pb-\$1-cancel;
#X msg 779 369 0;
#X obj 908 219 s pb-\$1-check-it;
#X obj 908 178 t b b;
#X obj 856 554 sel 1;
#N canvas 4 50 574 512 led 0;
#X obj 259 238 delay 100;
#X obj 136 206 delay 100;
#X obj 92 284 delay 300;
#X obj 259 189 b;
#X msg 124 259 1;
#X msg 92 308 0;
#X msg 136 229 0;
#X msg 259 261 0;
#X msg 339 244 7;
#X obj 92 101 r pb-\$1-cancel;
#X obj 235 99 sel 0;
#X msg 136 156 stop;
#X obj 92 156 t b b;
#X obj 229 396 s aux-led-\$1;
#X obj 92 132 t b b, f 13;
#X obj 246 63 inlet;
#X text 360 54 flash on beat and on cancel;
#X connect 0 0 7 0;
#X connect 1 0 6 0;
#X connect 2 0 5 0;
#X connect 3 0 0 0;
#X connect 3 0 8 0;
#X connect 4 0 13 0;
#X connect 5 0 13 0;
#X connect 6 0 13 0;
#X connect 7 0 13 0;
#X connect 8 0 13 0;
#X connect 9 0 14 0;
#X connect 10 0 3 0;
#X connect 11 0 1 0;
#X connect 11 0 0 0;
#X connect 12 0 2 0;
#X connect 12 1 4 0;
#X connect 14 0 12 0;
#X connect 14 1 11 0;
#X connect 15 0 10 0;
#X restore 837 842 pd led;
#X obj 774 565 t f f;
#X obj 670 291 r pb-\$1-start;
#X msg 670 322 1;
#N canvas 4 50 1253 876 recall 0;
#X obj 462 168 until;
#X msg 506 143 rewind;
#X obj 641 441 unpack 0 0 0 0;
#X obj 676 525 s pb-\$1-vel-local;
#X obj 696 499 s pb-\$1-div-local;
#X obj 608 747 s pb-\$1-start-stop;
#X obj 737 759 s pb-\$1-recall-count;
#X obj 709 648 i;
#X obj 645 489 t f f;
#X obj 642 547 f;
#X obj 599 501 t b f;
#X obj 626 651 i;
#X obj 642 568 > 0;
#X obj 648 592 sel 1;
#X obj 606 709 pack 0 1;
#X text 692 615 start it up if saved velocity > 0;
#X obj 644 615 t b b;
#X obj 698 682 pack 0 1;
#X obj 616 679 t f f;
#X obj 296 308 f;
#X obj 400 297 f;
#X obj 305 342 s pb-\$1-div-local;
#X obj 427 332 s pb-\$1-vel-local;
#X obj 312 282 r pb_div-\$1;
#X obj 414 272 r pb_note_vel-\$1;
#X obj 595 415 route clock;
#X msg 462 144 25;
#X obj 341 743 sel 0;
#X obj 304 713 spigot;
#X msg 325 791 0;
#X obj 514 460 s \$0-start-at;
#X obj 373 714 r \$0-start-at;
#X obj 340 769 t b b;
#X obj 367 797 s pb-\$1-start;
#X obj 568 773 i 0;
#X msg 415 510 0;
#X obj 566 748 t b;
#X obj 568 801 + 1;
#X obj 644 144 s pb-\$1-cancel;
#X obj 361 604 i;
#X obj 361 625 > 0;
#X obj 299 16 inlet;
#X text 611 800 if we have at least 1 voice on \, cue startup;
#X obj 573 291 outlet to-textfile;
#X obj 587 360 inlet from-textfile;
#X text 811 519 send in div num and velocity for this note;
#X text 332 252 restore div num and velocity;
#X obj 303 87 t b b b b b a b b, f 48;
#X obj 285 677 r \$0-beat-clock-saverecall;
#X connect 0 0 43 0;
#X connect 1 0 43 0;
#X connect 2 0 10 0;
#X connect 2 1 8 0;
#X connect 2 2 4 0;
#X connect 2 3 7 1;
#X connect 7 0 17 1;
#X connect 8 0 9 1;
#X connect 8 1 3 0;
#X connect 9 0 12 0;
#X connect 10 0 9 0;
#X connect 10 1 11 1;
#X connect 11 0 18 0;
#X connect 12 0 13 0;
#X connect 13 0 16 0;
#X connect 14 0 5 0;
#X connect 14 0 36 0;
#X connect 16 0 11 0;
#X connect 16 1 7 0;
#X connect 17 0 6 0;
#X connect 18 0 14 0;
#X connect 18 1 17 0;
#X connect 19 0 21 0;
#X connect 20 0 22 0;
#X connect 23 0 19 1;
#X connect 24 0 20 1;
#X connect 25 0 30 0;
#X connect 25 1 2 0;
#X connect 26 0 0 0;
#X connect 27 0 32 0;
#X connect 28 0 27 0;
#X connect 29 0 28 1;
#X connect 31 0 27 1;
#X connect 32 0 29 0;
#X connect 32 1 33 0;
#X connect 34 0 37 0;
#X connect 35 0 34 1;
#X connect 35 0 39 1;
#X connect 36 0 34 0;
#X connect 37 0 34 1;
#X connect 37 0 39 1;
#X connect 39 0 40 0;
#X connect 41 0 47 0;
#X connect 44 0 25 0;
#X connect 47 0 39 0;
#X connect 47 1 19 0;
#X connect 47 2 20 0;
#X connect 47 3 26 0;
#X connect 47 4 1 0;
#X connect 47 5 43 0;
#X connect 47 6 35 0;
#X connect 47 7 38 0;
#X connect 48 0 28 0;
#X restore 1274 657 pd recall;
#X obj 1277 236 list;
#X obj 1585 192 r rackSavePreset;
#N canvas 100 596 803 448 presetDir 0;
#X obj 88 153 s rackMsgs;
#X obj 88 106 symbol \$1;
#X msg 88 128 getsetting currentPreset Defaut rackCurrentPreset-\$1
;
#X obj 88 181 r rackCurrentPreset;
#X obj 215 181 r rackCurrentPreset-\$1;
#X obj 87 215 symbol \$1;
#X obj 442 163 s rackMsgs;
#X obj 442 113 symbol \$1;
#X obj 386 11 r loadbang-\$1;
#X obj 442 186 r rackDataDir;
#X obj 535 189 r rackDataDir-\$1;
#X msg 442 138 getsetting dataDir ./data rackDataDir-\$1;
#X obj 441 219 symbol \$1;
#X obj 249 326 pack s s s;
#X obj 255 210 symbol \$1;
#X obj 205 76 t b b b;
#X obj 444 71 bng 15 250 50 0 empty empty empty 17 7 0 10 -262144 -1
-1;
#X obj 71 71 bng 15 250 50 0 empty empty empty 17 7 0 10 -262144 -1
-1;
#X obj 114 243 t b b s;
#X obj 255 232 t b s;
#X obj 111 387 outlet;
#X obj 219 386 outlet;
#X text 81 25 track preset directory and bang on change;
#X obj 332 76 bng 15 250 50 0 empty empty empty 17 7 0 10 -262144 -1
-1;
#X connect 1 0 2 0;
#X connect 2 0 0 0;
#X connect 3 0 5 0;
#X connect 4 0 5 0;
#X connect 5 0 18 0;
#X connect 7 0 11 0;
#X connect 8 0 15 0;
#X connect 9 0 12 0;
#X connect 10 0 12 0;
#X connect 11 0 6 0;
#X connect 12 0 13 0;
#X connect 13 0 21 0;
#X connect 14 0 19 0;
#X connect 15 0 1 0;
#X connect 15 1 14 0;
#X connect 15 2 7 0;
#X connect 16 0 7 0;
#X connect 17 0 1 0;
#X connect 18 0 20 0;
#X connect 18 1 13 0;
#X connect 18 2 13 1;
#X connect 19 0 13 0;
#X connect 19 1 13 2;
#X connect 23 0 14 0;
#X restore 1337 148 pd presetDir;
#N canvas 103 262 721 484 savePreset 0;
#X obj 343 124 r saveState;
#X obj 252 232 list;
#X obj 146 127 unpack s s s;
#X obj 251 167 pack s s s;
#X obj 272 127 symbol \$1;
#X obj 113 96 list;
#X obj 233 101 t b b a b;
#X obj 106 54 inlet;
#X obj 258 286 outlet;
#X obj 229 39 inlet;
#X connect 0 0 1 0;
#X connect 1 0 8 0;
#X connect 2 0 3 0;
#X connect 2 2 3 2;
#X connect 3 0 1 1;
#X connect 4 0 3 1;
#X connect 5 0 2 0;
#X connect 6 0 1 0;
#X connect 6 1 3 0;
#X connect 6 2 4 0;
#X connect 6 3 5 0;
#X connect 7 0 5 1;
#X connect 9 0 6 0;
#X restore 1510 220 pd savePreset;
#N canvas 1180 399 672 606 save 0;
#X obj 311 306 s pb-\$1-get-state;
#X obj 312 341 r pb-\$1-voice-status;
#X msg 486 313 clear;
#X obj 328 269 t b b b;
#X msg 253 372 add clock \$1;
#X obj 246 13 inlet;
#X obj 322 538 outlet;
#X obj 210 125 list;
#X obj 244 46 t b l;
#X msg 184 91 1, f 5;
#X obj 118 118 spigot 0;
#X obj 113 151 sel 0;
#X msg 240 337 0;
#X obj 118 177 t b b;
#X msg 141 88 0, f 5;
#X text 308 94 wait till top of beat \, then save;
#X obj 62 26 r \$0-beat-clock-saverecall;
#X msg 127 248 write \$1/presets/\$2/\$3-polybeats.txt;
#X obj 231 154 t b l b;
#X obj 75 543 outlet;
#X text 124 540 done saving;
#X connect 1 0 6 0;
#X connect 2 0 6 0;
#X connect 3 0 12 0;
#X connect 3 1 0 0;
#X connect 3 2 2 0;
#X connect 4 0 6 0;
#X connect 5 0 8 0;
#X connect 7 0 18 0;
#X connect 8 0 9 0;
#X connect 8 1 7 1;
#X connect 9 0 10 1;
#X connect 10 0 11 0;
#X connect 11 0 13 0;
#X connect 12 0 4 0;
#X connect 13 0 14 0;
#X connect 13 1 7 0;
#X connect 14 0 10 1;
#X connect 16 0 10 0;
#X connect 17 0 6 0;
#X connect 18 0 19 0;
#X connect 18 1 17 0;
#X connect 18 2 3 0;
#X restore 1541 303 pd save;
#X obj 1272 266 t l;
#X obj 1225 126 r global-start;
#X obj 722 256 r global-stop;
#X obj 934 634 s \$0-beat-clock-saverecall;
#X obj 791 159 v pb-\$1-state;
#X obj 835 195 sel 0 1;
#X msg 1168 271 1;
#N canvas 4 50 605 303 top-beat 0;
#X obj 246 13 inlet;
#X msg 184 91 1, f 5;
#X obj 118 118 spigot 0;
#X obj 113 151 sel 0;
#X obj 118 177 t b b;
#X msg 141 88 0, f 5;
#X obj 62 26 r \$0-beat-clock-saverecall;
#X obj 244 46 t b;
#X obj 158 210 outlet;
#X text 210 140 stop it before ticking so when we get what we expect
when we save when it stopped;
#X connect 0 0 7 0;
#X connect 1 0 2 1;
#X connect 2 0 3 0;
#X connect 3 0 4 0;
#X connect 4 0 5 0;
#X connect 4 1 8 0;
#X connect 5 0 2 1;
#X connect 6 0 2 0;
#X connect 7 0 1 0;
#X restore 791 295 pd top-beat;
#N canvas 4 50 605 303 top-beat 0;
#X obj 246 13 inlet;
#X msg 184 91 1, f 5;
#X obj 118 118 spigot 0;
#X obj 113 151 sel 0;
#X obj 118 177 t b b;
#X msg 141 88 0, f 5;
#X obj 62 26 r \$0-beat-clock-saverecall;
#X obj 244 46 t b;
#X obj 158 210 outlet;
#X text 210 140 stop it before ticking so when we get what we expect
when we save when it stopped;
#X connect 0 0 7 0;
#X connect 1 0 2 1;
#X connect 2 0 3 0;
#X connect 3 0 4 0;
#X connect 4 0 5 0;
#X connect 4 1 8 0;
#X connect 5 0 2 1;
#X connect 6 0 2 0;
#X connect 7 0 1 0;
#X restore 1169 225 pd top-beat;
#X obj 820 524 v pb-\$1-state;
#X obj 867 479 t f f f;
#X obj 1201 165 t b b;
#X msg 1251 467 read \$1/presets/\$2/\$3-polybeats.txt;
#X obj 1413 395 s rackMsgs;
#X obj 1413 348 symbol \$1;
#X msg 1413 370 getsetting currentPreset Defaut rackCurrentPreset-\$1
;
#X text 1313 228 only read the saved file when starting, f 19;
#X text 1295 363 after saving \, update preset location, f 18;
#X connect 0 0 70 0;
#X connect 2 0 5 1;
#X connect 2 0 4 1;
#X connect 3 0 5 1;
#X connect 3 0 4 1;
#X connect 4 0 7 0;
#X connect 4 0 56 0;
#X connect 5 0 3 0;
#X connect 6 0 4 0;
#X connect 6 1 8 0;
#X connect 6 2 2 0;
#X connect 9 0 5 0;
#X connect 13 0 59 0;
#X connect 14 0 15 0;
#X connect 15 0 66 0;
#X connect 16 0 18 0;
#X connect 18 0 92 0;
#X connect 19 0 86 0;
#X connect 22 0 6 0;
#X connect 25 0 23 0;
#X connect 26 0 17 0;
#X connect 27 0 12 0;
#X connect 28 0 11 0;
#X connect 29 0 0 0;
#X connect 29 0 19 0;
#X connect 30 0 58 0;
#X connect 31 0 25 0;
#X connect 32 0 23 0;
#X connect 56 0 30 0;
#X connect 56 1 57 0;
#X connect 57 0 30 0;
#X connect 59 0 72 0;
#X connect 59 1 61 0;
#X connect 60 0 73 0;
#X connect 61 0 64 0;
#X connect 62 0 61 1;
#X connect 63 0 61 2;
#X connect 65 0 76 1;
#X connect 66 0 16 0;
#X connect 67 0 68 0;
#X connect 68 0 18 0;
#X connect 70 0 69 0;
#X connect 70 1 10 0;
#X connect 71 0 21 0;
#X connect 73 0 13 0;
#X connect 73 1 85 0;
#X connect 74 0 75 0;
#X connect 76 0 65 0;
#X connect 77 0 82 0;
#X connect 78 0 80 1;
#X connect 79 1 77 1;
#X connect 79 1 80 0;
#X connect 80 0 81 0;
#X connect 81 0 96 0;
#X connect 81 1 65 0;
#X connect 82 0 94 0;
#X connect 83 0 93 0;
#X connect 84 0 89 0;
#X connect 86 0 87 0;
#X connect 87 0 93 0;
#X connect 87 1 89 0;
#X connect 88 0 18 0;
#X connect 89 0 68 0;
#X connect 90 0 88 0;
#X connect 92 0 91 0;
#X connect 92 1 71 0;
#X connect 92 2 13 1;
#X connect 93 0 90 0;
#X connect 93 1 77 0;
#X connect 94 0 76 0;
#X connect 96 0 97 0;
#X connect 97 0 95 0;
#X restore 306 326 pd sequencer;
#X obj 304 288 s pb-\$1-notes-in;
#X obj 305 358 r pb-\$1-notes-out;
#X obj 498 185 r ctrlIn-\$1;
#X obj 498 490 s ctrlOut-\$1;
#X obj 305 393 list append 0;
#X obj 949 203 sel \$1;
#X obj 987 175 unpack s s;
#X obj 987 30 r activePage;
#X obj 999 266 &&;
#X msg 1050 233 1;
#X msg 1093 233 0;
#X msg 932 233 1;
#X msg 975 233 0;
#X text 1056 298 page and module is active;
#X obj 1111 413 bng 15 250 50 0 empty empty empty 17 7 0 10 -262144
-1 -1;
#X obj 984 419 unpack 0 0;
#X obj 984 441 + 1;
#X obj 984 463 pack 0 0;
#X obj 1183 407 del 20;
#X obj 1183 385 r loadbang-\$1;
#X obj 854 319 r ppb-tracker-\$1;
#X obj 991 324 sel 1;
#X obj 1141 456 spigot 0;
#X obj 1050 203 sel pg_graphics;
#X obj 984 490 cg-print-kb 100 \$1;
#X obj 304 207 list split 2;
#X obj 987 53 t b a;
#X obj 998 128 list;
#X obj 987 76 del 500;
#X obj 999 289 t f f f f;
#X connect 0 0 35 0;
#X connect 11 0 14 0;
#X connect 14 0 1 0;
#X connect 15 0 21 0;
#X connect 15 1 22 0;
#X connect 16 0 15 0;
#X connect 16 1 33 0;
#X connect 17 0 36 0;
#X connect 18 0 39 0;
#X connect 19 0 18 1;
#X connect 20 0 18 1;
#X connect 21 0 18 0;
#X connect 22 0 18 0;
#X connect 24 0 34 1;
#X connect 25 0 26 0;
#X connect 25 1 27 1;
#X connect 26 0 27 0;
#X connect 27 0 34 0;
#X connect 28 0 32 0;
#X connect 29 0 28 0;
#X connect 30 0 25 0;
#X connect 31 0 32 0;
#X connect 32 0 34 1;
#X connect 33 0 19 0;
#X connect 33 1 20 0;
#X connect 35 0 10 0;
#X connect 36 0 38 0;
#X connect 36 1 37 1;
#X connect 37 0 16 0;
#X connect 38 0 37 0;
#X connect 39 0 31 0;
#X connect 39 1 34 2;
#X connect 39 2 32 1;
