#N canvas 79 68 1300 878 10;
#X obj 270 77 stripnote;
#X obj 270 164 % 24;
#X obj 270 138 abs;
#X text 328 198 second argument (key number);
#X obj 270 99 expr if ($f1 > 59 \, $f1 - 60 \, $f1 - 12);
#X obj 270 305 tgl 15 0 empty empty empty 17 7 0 10 -262144 -1 -1 1
1;
#X obj 198 392 spigot;
#X obj 252 394 sel 1;
#X obj 256 366 t f f;
#X obj 273 456 i;
#X msg 308 265 0;
#X obj 249 332 t f f;
#X text 338 299 loop the sound the presc;
#X obj 331 353 i;
#X obj 331 378 sel 1;
#X obj 273 606 makenote 100 200;
#X obj 273 581 + 60;
#X obj 273 556 f \$1;
#X obj 270 190 sel \$1;
#X obj 273 640 pack;
#X obj 270 -59 r pb-\$2-notes-in;
#X obj 273 766 s pb-\$2-notes-out;
#X obj 273 527 b;
#X obj 331 400 s pb-\$2-i-am-playing;
#X obj 367 320 r pb-\$2-are-you-playing;
#X obj 308 229 r pb-\$2-cancel;
#X obj 77 469 s pb-\$2-start-metro;
#X obj 9 61 r pb-\$2-ticks;
#X obj 300 424 r pb-\$2-div-local;
#X obj 376 565 r pb-\$2-note-len-local;
#X obj 414 496 r pb-\$2-vel-local;
#X obj 235 424 t b b b;
#X obj 328 537 f 100;
#X obj 198 497 counter-up 16 \$2;
#X obj 452 352 list prepend \$1;
#X obj 452 379 s ppb-tracker-\$2;
#X obj 71 589 v pb-\$2-\$1-current-count;
#X msg 23 562 0;
#X obj 23 526 r pb-\$2-cancel;
#X obj 101 388 sel 1 0;
#X msg 119 507 0;
#X obj 713 183 t b b b b;
#X obj 722 320 pack 0 0 0 0;
#X msg 722 347 add \$1 \$2 \$3 \$4;
#X obj 757 272 v pb-\$2-\$1-note-vel;
#X obj 779 239 v pb-\$2-\$1-div;
#X obj 809 215 v pb-\$2-\$1-current-count;
#X obj 710 261 f \$1;
#X obj 82 622 v pb-\$2-\$1-div;
#X obj 103 676 v pb-\$2-\$1-note-vel;
#X obj 713 152 r pb-\$2-get-state;
#X obj 722 375 s pb-\$2-voice-status;
#X obj 137 228 route \$1;
#X obj 101 184 r pb-\$2-start-stop;
#X obj 424 436 r pb-\$2-recall-count;
#X obj 390 460 route \$1;
#X obj 344 485 + 1;
#X connect 0 0 4 0;
#X connect 1 0 18 0;
#X connect 2 0 1 0;
#X connect 4 0 2 0;
#X connect 5 0 11 0;
#X connect 5 0 13 1;
#X connect 5 0 34 0;
#X connect 6 0 33 0;
#X connect 7 0 31 0;
#X connect 8 0 6 1;
#X connect 8 1 7 0;
#X connect 9 0 33 2;
#X connect 9 0 48 0;
#X connect 10 0 5 0;
#X connect 11 0 39 0;
#X connect 11 1 8 0;
#X connect 13 0 14 0;
#X connect 14 0 23 0;
#X connect 15 0 19 0;
#X connect 15 1 19 1;
#X connect 16 0 15 0;
#X connect 17 0 16 0;
#X connect 18 0 5 0;
#X connect 19 0 21 0;
#X connect 20 0 0 0;
#X connect 22 0 17 0;
#X connect 24 0 13 0;
#X connect 25 0 10 0;
#X connect 27 0 6 0;
#X connect 28 0 9 1;
#X connect 29 0 15 2;
#X connect 30 0 32 1;
#X connect 31 1 9 0;
#X connect 31 2 32 0;
#X connect 32 0 15 1;
#X connect 32 0 49 0;
#X connect 33 0 36 0;
#X connect 33 1 22 0;
#X connect 34 0 35 0;
#X connect 37 0 49 0;
#X connect 38 0 37 0;
#X connect 39 0 26 0;
#X connect 39 1 40 0;
#X connect 39 1 33 1;
#X connect 40 0 49 0;
#X connect 41 0 47 0;
#X connect 41 1 44 0;
#X connect 41 2 45 0;
#X connect 41 3 46 0;
#X connect 42 0 43 0;
#X connect 43 0 51 0;
#X connect 44 0 42 1;
#X connect 45 0 42 2;
#X connect 46 0 42 3;
#X connect 47 0 42 0;
#X connect 50 0 41 0;
#X connect 52 0 5 0;
#X connect 53 0 52 0;
#X connect 54 0 55 0;
#X connect 55 0 56 0;
#X connect 56 0 33 3;
